<?xml version="1.0" encoding="utf-8"?>
<!-- Generator: Adobe Illustrator 24.3.0, SVG Export Plug-In . SVG Version: 6.00 Build 0)  -->
<svg version="1.1" id="logotipo-VTN-verticale_xA0_Image_1_"
	 xmlns="http://www.w3.org/2000/svg" xmlns:xlink="http://www.w3.org/1999/xlink" x="0px" y="0px" width="183.4px" height="40px"
	 viewBox="0 0 183.4 40" style="enable-background:new 0 0 183.4 40;" xml:space="preserve">
<style type="text/css">
	.st0{fill:#1D1D21;}
	.st1{fill:#1D1D1C;}
	.st2{fill:#5695A8;}
	.st3{fill:#222121;}
	.st4{fill:#5B97A9;}
	.st5{fill:#262626;}
	.st6{fill:#6199AB;}
	.st7{fill:#5D97AA;}
	.st8{fill:#111110;}
	.st9{fill:#232225;}
	.st10{fill:#262428;}
	.st11{fill:#2B292C;}
</style>
<g>
	<path class="st0" d="M183.4,20.6c-0.2,0-0.4,0-0.6,0c-44.8,0-89.7,0-134.5,0c-0.2,0-0.3,0-0.5,0c0,0-0.1,0-0.1,0s-0.1-0.1-0.1-0.1
		c0-0.1,0-0.1,0.1-0.1c0,0,0.1,0,0.1,0c0.1,0,0.3,0,0.4,0c44.9,0,89.8,0,134.7,0c0.1,0,0.3,0,0.4,0c0,0,0.1,0,0.1,0
		C183.4,20.4,183.4,20.5,183.4,20.6z"/>
	<path class="st1" d="M117.5,5.2c0,1,0,2,0,2.9c0,0.1,0,0.2,0,0.3c0,0,0,0.1-0.1,0.1c-0.1,0-0.2,0-0.3,0c-0.2,0-0.5,0-0.7,0
		c-0.1,0-0.2,0-0.2-0.2c0-0.1,0-0.2,0-0.3c0-0.7,0-1.4,0-2.1c0-0.6,0-1.3,0-1.9c0-0.1,0-0.2,0-0.2c0,0,0,0,0,0c0,0,0,0,0,0
		c0,0.1-0.1,0.1-0.1,0.2c-0.3,0.9-0.6,1.9-1,2.8c-0.2,0.5-0.3,1-0.5,1.4c0,0.1,0,0.1-0.1,0.2c0,0,0,0,0,0c0,0,0,0,0,0
		c-0.3,0-0.6,0-0.8,0c-0.1,0-0.1-0.1-0.1-0.1c0,0,0-0.1,0-0.1c-0.5-1.4-0.9-2.8-1.4-4.2c0-0.1-0.1-0.2-0.1-0.3c0,0,0,0,0,0
		c0,0,0,0,0,0c0,0,0,0.1,0,0.1c0,0.1,0,0.3,0,0.4c0,1.2,0,2.4,0,3.6c0,0.1,0,0.3,0,0.4c0,0-0.1,0.1-0.1,0.1c-0.3,0-0.7,0-1,0
		c0,0-0.1-0.1-0.1-0.1c0-0.1,0-0.2,0-0.2c0-2,0-4,0-6c0-0.1,0-0.2,0-0.2c0,0,0.1-0.1,0.1-0.1c0,0,0,0,0,0c0.5,0,1,0,1.5,0
		c0.1,0,0.1,0,0.1,0.1c0,0.1,0.1,0.2,0.1,0.3c0.5,1.4,1,2.9,1.5,4.3c0,0.1,0,0.2,0.1,0.2c0,0,0,0,0,0c0,0,0,0,0,0
		c0-0.1,0.1-0.2,0.1-0.3c0.5-1.4,1-2.9,1.5-4.3c0-0.1,0.1-0.1,0.1-0.2c0-0.1,0.1-0.1,0.1-0.1c0.5,0,1,0,1.5,0c0.1,0,0.1,0.1,0.1,0.1
		c0,0.1,0,0.2,0,0.3C117.5,3.3,117.5,4.3,117.5,5.2z"/>
	<g>
		<path class="st2" d="M19,0c0.7,0,1.4,0,2.2,0c0.2,0,0.4,0,0.7,0c0.1,0,0.2,0,0.4,0c0.1,0,0.2,0,0.4,0c0,0,0.1,0,0.1,0
			c0.2,0,0.5,0.1,0.7,0.1c0.6,0.1,1.2,0.2,1.8,0.4c0.6,0.2,1.1,0.3,1.7,0.5c0.5,0.2,1,0.4,1.4,0.6c0.3,0.1,0.6,0.3,0.9,0.4
			c1.1,0.6,2.1,1.2,3.1,1.9c0.4,0.3,0.9,0.7,1.3,1c0.4,0.4,0.9,0.8,1.3,1.2C35,6.7,35.3,7,35.6,7.4c0.5,0.6,1,1.3,1.4,1.9
			c0.1,0.2,0.2,0.4,0.3,0.6c0,0,0,0.1,0,0.1c0,0,0,0.1-0.1,0.1c-0.1,0-0.1,0-0.2,0c-0.4,0-0.7,0-1.1,0c-0.8,0-1.6,0-2.4,0
			c-0.1,0-0.2,0-0.2,0c0,0-0.1,0-0.1-0.1c0,0,0-0.1-0.1-0.1c-0.1-0.3-0.2-0.5-0.4-0.8c-0.4-0.8-0.9-1.6-1.4-2.3
			c-0.4-0.5-0.7-1-1.2-1.5c-0.5-0.5-1-1-1.5-1.5c-0.4-0.4-0.8-0.7-1.3-1c-0.8-0.6-1.6-1.1-2.5-1.5c-0.4-0.2-0.8-0.4-1.3-0.5
			c-0.1,0-0.3-0.1-0.4-0.1c-0.1,0-0.2,0-0.3-0.1c-0.1,0-0.2,0-0.3,0c-0.1,0-0.2,0-0.4,0c0,0,0,0,0,0c0,0,0,0,0,0c0,0,0.1,0,0.1,0
			c0.4,0.1,0.7,0.3,1.1,0.5c0.4,0.2,0.8,0.5,1.2,0.9c0.3,0.2,0.5,0.5,0.8,0.8c0.3,0.4,0.7,0.7,1,1.1c0.6,0.8,1.2,1.7,1.6,2.6
			c0.3,0.7,0.6,1.3,0.9,2c0.2,0.5,0.4,0.9,0.5,1.4c0,0,0,0.1-0.1,0.1c0,0,0,0-0.1,0c-0.1,0-0.1,0-0.2,0c-0.7,0-1.4,0-2.2,0
			c-0.4,0-0.7,0-1.1,0c-0.1,0-0.1,0-0.2,0c0,0-0.1,0-0.1-0.1c0-0.1-0.1-0.2-0.1-0.3c-0.1-0.5-0.2-1.1-0.4-1.6
			c-0.1-0.4-0.2-0.8-0.3-1.3c-0.1-0.3-0.2-0.6-0.3-0.9C24.4,4.9,24,4,23.5,3.2c-0.2-0.5-0.5-0.9-0.9-1.3c-0.2-0.2-0.4-0.5-0.6-0.7
			c-0.2-0.2-0.4-0.4-0.7-0.5c-0.1-0.1-0.2-0.1-0.3-0.2c0,0-0.1,0-0.1,0c-0.2,0-0.4,0-0.5,0c0,0-0.1,0.1,0,0.1c0,0,0,0,0,0
			c0.2,0.4,0.3,0.8,0.4,1.2c0.1,0.3,0.2,0.7,0.2,1c0.1,0.3,0.1,0.6,0.1,0.8c0.1,0.2,0.1,0.4,0.1,0.6c0,0.3,0.1,0.5,0.1,0.8
			c0,0.1,0,0.1,0,0.2c0,0.1,0,0.1,0,0.2c0,0.1,0,0.3,0.1,0.4c0,0.1,0,0.1,0,0.2c0,0.1,0,0.3,0,0.4c0,0.1,0,0.2,0,0.4
			c0,0.1,0,0.3,0,0.4c0,0.1,0,0.2,0,0.3c0,0.2,0,0.3,0,0.5c0,0.1,0,0.2,0,0.3c0,0.2,0,0.4,0,0.6c0,0.1,0,0.2,0,0.3
			c0,0.2,0,0.4,0,0.7c0,0.1,0,0.1-0.1,0.1c0,0,0,0-0.1,0c0,0-0.1,0-0.1,0c-1.1,0-2.2,0-3.2,0c-0.1,0-0.1,0-0.2,0c0,0-0.1,0-0.1-0.1
			c0,0,0-0.1,0-0.1c0-0.2,0-0.4,0-0.6c0-0.1,0-0.2,0-0.4c0-0.2,0-0.4,0-0.6c0-0.1,0-0.2,0-0.4c0-0.2,0-0.3,0-0.5c0-0.1,0-0.2,0-0.4
			c0-0.1,0-0.3,0-0.4c0-0.1,0-0.1,0-0.2c0-0.2,0-0.3,0.1-0.5c0,0,0-0.1,0-0.1c0-0.2,0-0.4,0.1-0.6c0-0.1,0-0.1,0-0.2
			c0-0.1,0-0.2,0-0.3c0,0,0-0.1,0-0.1c0-0.2,0.1-0.5,0.1-0.7c0.1-0.3,0.1-0.7,0.2-1c0-0.3,0.1-0.6,0.2-0.9c0.1-0.5,0.2-0.9,0.4-1.4
			c0-0.1,0.1-0.2,0.1-0.3c0,0,0,0,0-0.1c0,0,0,0,0,0c-0.2,0-0.4,0-0.5,0c0,0-0.1,0-0.1,0c-0.3,0.1-0.5,0.3-0.7,0.5
			c-0.3,0.3-0.6,0.6-0.9,1c-0.3,0.4-0.5,0.8-0.8,1.3c-0.3,0.6-0.6,1.2-0.8,1.8c-0.2,0.6-0.5,1.3-0.6,1.9c-0.1,0.4-0.3,0.9-0.4,1.3
			c-0.1,0.5-0.2,1-0.3,1.5c0,0.1,0,0.1-0.1,0.2c0,0-0.1,0-0.1,0.1c0,0-0.1,0-0.1,0c-1.1,0-2.2,0-3.3,0c-0.1,0-0.1,0-0.2,0
			c0,0-0.1-0.1-0.1-0.1c0,0,0,0,0-0.1c0-0.1,0-0.2,0.1-0.2c0.2-0.5,0.3-0.9,0.5-1.4c0.3-0.7,0.6-1.3,0.9-2c0.5-0.9,1-1.7,1.6-2.5
			c0.4-0.5,0.9-1,1.3-1.5c0.3-0.3,0.7-0.6,1.1-0.8C16.5,1.2,17,1,17.4,0.8c0.1,0,0.2-0.1,0.3-0.1c0,0,0,0,0,0c0,0,0,0,0,0
			c-0.1,0-0.1,0-0.2,0c-0.2,0-0.4,0.1-0.7,0.1c-0.2,0-0.3,0-0.5,0.1c-0.1,0-0.2,0-0.2,0.1c-0.2,0.1-0.5,0.2-0.7,0.3
			c-0.9,0.4-1.8,0.8-2.6,1.4c-0.6,0.4-1.1,0.8-1.6,1.3c-0.2,0.2-0.5,0.4-0.7,0.7c-0.3,0.3-0.6,0.7-0.9,1C9.3,5.7,9.1,6,8.9,6.3
			c-0.4,0.5-0.7,1-1,1.5c-0.4,0.6-0.7,1.3-1,1.9c0,0.1-0.1,0.2-0.1,0.3c0,0.1-0.1,0.1-0.2,0.1c-0.1,0-0.1,0-0.2,0
			c-1.1,0-2.3,0-3.4,0c-0.1,0-0.2,0-0.2,0c0,0,0-0.1,0-0.1c0-0.1,0.1-0.1,0.1-0.2C3,9.4,3.2,9,3.5,8.7C3.7,8.3,3.9,8,4.2,7.7
			C4.4,7.5,4.6,7.2,4.8,7c0.5-0.6,1.1-1.2,1.7-1.8c0.3-0.3,0.7-0.6,1.1-0.9c0.6-0.4,1.1-0.8,1.7-1.2c0.6-0.4,1.3-0.8,2-1.1
			c0.9-0.4,1.9-0.8,2.8-1.1c0.5-0.2,1-0.3,1.5-0.4c0.3,0,0.6-0.1,0.9-0.2c0.2-0.1,0.4-0.1,0.6-0.1c0.1,0,0.1,0,0.2,0
			c0.3,0,0.6-0.1,0.9-0.1c0.2,0,0.4,0,0.6-0.1C18.9,0,18.9,0,19,0z"/>
		<path class="st2" d="M4.7,29.9c0.6,0,1.1,0,1.7,0c0.1,0,0.2,0,0.2,0c0,0,0.1,0,0.1,0.1c0,0,0,0.1,0.1,0.1c0.5,1.2,1.2,2.3,2,3.4
			c0.3,0.4,0.6,0.8,1,1.3c0.5,0.5,1,1,1.5,1.5c0.5,0.5,1,0.9,1.6,1.3c0.6,0.4,1.2,0.8,1.9,1.1c0.5,0.2,1,0.4,1.5,0.6
			c0.2,0.1,0.4,0.1,0.6,0.1c0.1,0,0.2,0,0.4,0.1c0.1,0,0.2,0,0.3,0c0.1,0,0.2,0.1,0.3,0c0,0,0,0,0,0c0,0,0,0,0,0c0,0,0,0,0,0
			c0,0,0,0-0.1,0c-0.8-0.3-1.5-0.7-2.1-1.2c-0.5-0.4-0.9-0.8-1.3-1.2c-0.4-0.5-0.9-1-1.2-1.6c-0.3-0.5-0.6-0.9-0.8-1.4
			C11.7,33,11.3,32,10.9,31c-0.1-0.3-0.2-0.6-0.3-0.9c0,0,0-0.1,0-0.1c0,0,0-0.1,0.1-0.1c0,0,0,0,0.1,0c0.1,0,0.2,0,0.2,0
			c1,0,2,0,3,0c0.1,0,0.2,0,0.3,0c0.1,0,0.1,0.1,0.2,0.1c0,0.2,0.1,0.3,0.1,0.4c0.1,0.4,0.2,0.7,0.2,1.1c0.1,0.6,0.3,1.2,0.5,1.8
			c0.2,0.7,0.4,1.3,0.7,2c0.2,0.4,0.4,0.8,0.6,1.2c0.3,0.5,0.6,1,0.9,1.5c0.2,0.3,0.4,0.5,0.6,0.8c0.3,0.3,0.6,0.5,0.9,0.7
			c0.1,0,0.1,0.1,0.2,0.1c0.1,0,0.3,0,0.4,0c0,0,0.1,0,0.1,0c0,0,0.1-0.1,0-0.1c0,0,0,0,0-0.1c-0.2-0.3-0.3-0.7-0.4-1.1
			c-0.1-0.4-0.2-0.9-0.3-1.3c0-0.1,0-0.3-0.1-0.4c0-0.1-0.1-0.3-0.1-0.4c-0.1-0.2-0.1-0.5-0.1-0.7c0-0.3-0.1-0.5-0.1-0.8
			c0-0.1,0-0.3-0.1-0.4c0-0.1,0-0.3,0-0.4c0-0.2,0-0.4-0.1-0.5c0,0,0-0.1,0-0.1c0-0.2,0-0.4-0.1-0.6c0-0.1,0-0.1,0-0.2
			c0-0.2,0-0.3,0-0.5c0-0.1,0-0.3,0-0.4c0-0.1,0-0.2,0-0.4c0-0.2,0-0.4-0.1-0.7c0-0.2,0-0.3,0-0.5c0,0,0-0.1,0.1-0.1c0,0,0,0,0.1,0
			c0.1,0,0.1,0,0.2,0c1.1,0,2.1,0,3.2,0c0.1,0,0.1,0,0.2,0c0,0,0.1,0.1,0.1,0.1c0,0.2,0,0.4,0,0.6c0,0.2,0,0.3,0,0.5
			c0,0.1,0,0.2,0,0.3c0,0.2,0,0.4-0.1,0.6c0,0.1,0,0.2,0,0.3c0,0.1,0,0.3,0,0.4c0,0.1,0,0.1,0,0.2c0,0.2,0,0.4-0.1,0.5
			c0,0.1,0,0.2,0,0.2c0,0.1,0,0.2,0,0.4c0,0,0,0,0,0.1c0,0.1,0,0.3,0,0.4c0,0.1,0,0.2-0.1,0.4c0,0.1,0,0.2,0,0.4c0,0.1,0,0.1,0,0.2
			c0,0.1,0,0.2,0,0.2c0,0,0,0.1,0,0.1c0,0.2-0.1,0.4-0.1,0.6s-0.1,0.4-0.1,0.6c-0.1,0.4-0.1,0.7-0.2,1.1c0,0.2-0.1,0.3-0.1,0.5
			c-0.1,0.2-0.2,0.5-0.3,0.7c0,0,0,0.1-0.1,0.1c0,0,0,0,0,0.1s0,0,0.1,0c0.2,0,0.4,0,0.5,0c0,0,0.1,0,0.1,0c0.1,0,0.2-0.1,0.3-0.2
			c0.1-0.1,0.3-0.2,0.4-0.3c0.2-0.2,0.5-0.4,0.7-0.7c0.3-0.4,0.6-0.8,0.8-1.2c0.4-0.7,0.7-1.4,1-2.1c0.3-0.8,0.6-1.5,0.8-2.3
			c0.2-0.6,0.3-1.2,0.4-1.8c0.1-0.3,0.1-0.6,0.2-1c0,0,0-0.1,0.1-0.1c0,0,0,0,0.1,0c0,0,0.1,0,0.1,0c1.1,0,2.2,0,3.3,0
			c0.1,0,0.1,0,0.2,0c0,0,0.1,0.1,0.1,0.1c0,0.1,0,0.2-0.1,0.2c-0.1,0.4-0.3,0.7-0.4,1.1c-0.2,0.4-0.3,0.8-0.5,1.1
			c-0.1,0.3-0.3,0.6-0.5,1c-0.4,0.7-0.8,1.4-1.2,2c-0.2,0.3-0.5,0.6-0.7,1c-0.4,0.5-0.8,0.9-1.3,1.3c-0.6,0.6-1.3,1-2,1.4
			c-0.1,0-0.2,0.1-0.3,0.1c-0.1,0-0.2,0.1-0.2,0.1c0,0-0.1,0.1-0.1,0.1c0,0,0.1,0,0.1,0c0,0,0,0,0.1,0c0.1,0,0.2,0,0.3,0
			c0.1,0,0.2,0,0.4-0.1c0.2,0,0.3-0.1,0.5-0.1c0.1,0,0.1,0,0.2-0.1c0.4-0.1,0.8-0.3,1.2-0.5c0.7-0.3,1.4-0.7,2.1-1.1
			c0.5-0.3,1-0.7,1.4-1.1c0.4-0.4,0.9-0.8,1.3-1.2c0.5-0.6,1-1.2,1.5-1.8c0.5-0.7,1-1.4,1.4-2.2c0.2-0.4,0.4-0.8,0.6-1.3
			c0,0,0-0.1,0.1-0.1c0,0,0-0.1,0.1-0.1c0.1,0,0.1,0,0.2,0c0.7,0,1.5,0,2.2,0c0.4,0,0.8,0,1.2,0c0.1,0,0.1,0,0.2,0
			c0,0,0.1,0.1,0.1,0.1c0,0,0,0.1,0,0.1c-0.4,0.7-0.9,1.4-1.4,2.1c-0.8,1-1.6,1.9-2.5,2.7c-0.5,0.5-1.1,0.9-1.7,1.4
			c-0.5,0.4-1.1,0.7-1.6,1c-0.5,0.3-0.9,0.5-1.4,0.7c-0.3,0.1-0.5,0.2-0.8,0.4c-0.6,0.3-1.2,0.5-1.8,0.7c-0.5,0.2-1,0.3-1.5,0.4
			c-0.4,0.1-0.7,0.1-1.1,0.2c-0.2,0-0.4,0.1-0.7,0.1c-0.1,0-0.3,0.1-0.4,0.1c-0.1,0-0.3,0-0.4,0c-0.1,0-0.2,0-0.4,0
			c-0.2,0-0.3,0-0.5,0c-0.1,0-0.1,0-0.2,0c-0.6,0-1.3,0-1.9,0c-0.1,0-0.1,0-0.2,0c-0.2,0-0.4,0-0.5,0c-0.2,0-0.3,0-0.5,0
			c-0.1,0-0.1,0-0.2,0c-0.2,0-0.3,0-0.5-0.1c0,0,0,0-0.1,0c-0.3,0-0.5-0.1-0.8-0.1c-0.5-0.1-1.1-0.2-1.6-0.4c-0.5-0.1-1-0.3-1.5-0.4
			c-0.5-0.2-1-0.4-1.5-0.6c-0.4-0.2-0.9-0.4-1.3-0.6c-0.8-0.4-1.5-0.9-2.2-1.4c-0.3-0.2-0.6-0.5-1-0.7C7.2,35.4,7,35.2,6.8,35
			c-0.4-0.3-0.7-0.7-1.1-1.1c-0.3-0.3-0.7-0.7-1-1.1c-0.4-0.5-0.9-1.1-1.2-1.6c-0.3-0.4-0.5-0.8-0.7-1.2c0-0.1,0-0.1,0.1-0.1
			c0,0,0.1,0,0.1,0c0.1,0,0.2,0,0.2,0C3.7,29.9,4.2,29.9,4.7,29.9z"/>
		<path class="st2" d="M36.6,19.9c0-0.4,0-0.8,0-1.3c0-0.2,0-0.3,0-0.5c0-0.1,0-0.2,0-0.4c0-0.1,0-0.3,0-0.4c0,0,0,0,0-0.1
			c0-0.3-0.1-0.5-0.1-0.8c0-0.2-0.1-0.4-0.1-0.6c-0.1-0.3-0.1-0.6-0.2-0.8c0-0.3-0.1-0.6-0.2-0.8c-0.1-0.5-0.3-1-0.4-1.5
			c0-0.1-0.1-0.2-0.1-0.3c0,0,0-0.1,0-0.1c0,0,0,0,0-0.1c0,0,0,0,0.1,0c0,0,0.1,0,0.1,0c0.9,0,1.9,0,2.8,0c0,0,0.1,0,0.1,0
			c0,0,0.1,0,0.1,0.1c0,0.1,0.1,0.1,0.1,0.2c0.2,0.4,0.3,0.8,0.4,1.2c0.2,0.6,0.4,1.3,0.5,1.9c0.1,0.3,0.1,0.6,0.2,0.9
			c0.1,0.2,0.1,0.5,0.1,0.7c0,0.1,0,0.1,0,0.2c0,0.1,0,0.1,0,0.2c0,0.2,0,0.4,0.1,0.5c0,0.1,0,0.2,0,0.3c0,0.2,0,0.3,0,0.5
			c0,0.6,0,1.3,0,1.9c0,0.2,0,0.3,0,0.5c0,0.1,0,0.2,0,0.4c0,0.2,0,0.3-0.1,0.5c0,0,0,0,0,0.1c0,0.2-0.1,0.5-0.1,0.7
			c0,0.3-0.1,0.6-0.2,0.9c-0.1,0.3-0.1,0.6-0.2,0.9c-0.1,0.2-0.1,0.4-0.2,0.6c-0.2,0.6-0.4,1.3-0.6,1.9c0,0.1-0.1,0.2-0.1,0.3
			c0,0.1-0.1,0.1-0.1,0.1c-0.1,0-0.1,0-0.2,0c-0.6,0-1.2,0-1.8,0c-0.3,0-0.6,0-0.9,0c0,0-0.1,0-0.1,0c0,0-0.1-0.1-0.1-0.1
			c0,0,0-0.1,0-0.1c0-0.2,0.1-0.3,0.2-0.5c0,0,0-0.1,0-0.1c0,0,0-0.1-0.1-0.1c-0.1,0-0.1-0.1-0.2-0.1c-0.6-0.2-1.1-0.5-1.5-0.9
			c-0.2-0.2-0.4-0.3-0.6-0.5c0,0-0.1,0-0.1,0c0,0,0,0.1-0.1,0.1c0,0.1-0.1,0.1-0.1,0.2c-0.4,0.6-0.8,1.1-1.2,1.7
			c-0.1,0.1-0.2,0.3-0.3,0.4c0,0-0.1,0.1-0.1,0.1c0,0-0.1,0-0.1,0c-0.9,0-1.9,0-2.8,0c0,0-0.1,0-0.1,0c0,0,0,0,0,0c0,0,0,0,0,0
			c0,0,0,0,0-0.1c0.1-0.1,0.1-0.2,0.2-0.2c0.5-0.5,0.9-1,1.4-1.6c0.5-0.7,1-1.3,1.5-2c0.4-0.6,0.7-1.1,1-1.7
			c0.2-0.4,0.4-0.8,0.6-1.2c0.2-0.4,0.4-0.9,0.5-1.3c0.2-0.5,0.4-1,0.5-1.5c0.2-0.5,0.3-1,0.4-1.5c0.1-0.4,0.2-0.8,0.2-1.1
			c0-0.2,0.1-0.4,0.1-0.7c0,0,0,0,0,0c0,0,0,0,0.1,0c0,0,0,0.1,0,0.1c0,0.1,0,0.2,0.1,0.3c0,0.3,0.1,0.6,0.2,0.9
			c0.1,0.2,0.1,0.4,0.1,0.6c0,0.1,0,0.1,0,0.2c0,0.1,0,0.3,0,0.4c0,0.1,0,0.2,0,0.3c0,0.1,0,0.2,0,0.4c0,0.1,0,0.2,0,0.2
			c0,0.1,0,0.3,0,0.4c0,0.1,0,0.1,0,0.2c0,0.2,0,0.4,0,0.6c0,0.5,0,1,0,1.5c0,0.1,0,0.3-0.1,0.4c-0.2,0.4-0.3,0.7-0.5,1.1
			c-0.1,0.1-0.1,0.2-0.2,0.3c0,0.1,0,0.1,0,0.2c0,0.1,0.1,0.1,0.1,0.2c0.2,0.3,0.3,0.5,0.6,0.7c0.2,0.2,0.4,0.3,0.6,0.4
			c0,0,0,0,0.1,0c0,0,0.1,0,0.1,0c0-0.1,0-0.2,0-0.2c0-0.2,0-0.4,0.1-0.5c0-0.2,0-0.3,0.1-0.5c0-0.1,0-0.3,0-0.4s0-0.3,0-0.4
			c0,0,0,0,0,0c0.1-0.3,0-0.6,0.1-0.9C36.6,20.6,36.6,20.3,36.6,19.9z"/>
		<path class="st2" d="M15.7,20c0,0.9,0,1.8,0,2.7c0,0.2,0,0.3,0,0.5c0,0.1,0,0.2,0,0.3c0,0.2,0,0.4,0,0.7c0,0.2,0,0.4,0,0.6
			c0,0.1,0,0.2,0,0.3c0,0.2,0,0.3,0,0.5c0,0.1,0,0.1,0,0.2c0,0.2,0,0.4,0.1,0.7c0,0.1,0,0.3,0,0.4c0,0.1,0,0.3,0,0.4
			c0,0.1,0,0.2,0,0.4c0,0.1-0.1,0.1-0.1,0.1c0,0,0,0,0,0c0,0-0.1,0-0.1,0c-0.8,0-1.7,0-2.5,0c0,0-0.1,0-0.1,0c0,0-0.1-0.1-0.1-0.1
			c0,0,0,0,0,0c0-0.3-0.1-0.5-0.1-0.8c-0.1-0.2,0-0.5-0.1-0.7c0-0.1,0-0.1,0-0.2c0-0.3-0.1-0.6-0.1-0.9c0-0.2,0-0.4-0.1-0.6
			c0-0.1,0-0.1,0-0.2c0-0.2,0-0.4-0.1-0.6c0-0.2,0-0.3,0-0.5c0-0.1,0-0.2,0-0.2c0-0.3,0-0.5,0-0.8c0-0.2,0-0.4,0-0.5
			c0-0.1,0-0.2,0-0.2c0-0.9,0-1.8,0-2.6c0-0.1,0-0.1,0-0.2c0-0.3,0-0.5,0-0.8c0-0.1,0-0.3,0-0.4c0-0.2,0-0.3,0-0.5
			c0-0.1,0-0.2,0-0.4c0-0.2,0-0.4,0.1-0.7c0-0.1,0-0.1,0-0.2c0-0.2,0-0.4,0.1-0.6c0,0,0-0.1,0-0.1c0-0.2,0-0.3,0.1-0.5
			c0-0.1,0-0.1,0-0.2c0-0.1,0-0.2,0-0.2c0-0.1,0-0.2,0-0.3c0-0.1,0-0.2,0-0.3c0,0,0-0.1,0-0.1c0-0.2,0.1-0.5,0.1-0.7
			c0,0,0-0.1,0-0.1c0,0,0,0,0.1,0c0,0,0,0,0.1,0c0.1,0,0.2,0,0.2,0c1.4,0,2.8,0,4.2,0c0.1,0,0.2,0,0.3,0c0,0,0,0,0.1,0
			c0,0.1,0.1,0.2,0.1,0.3c0,0.3,0.1,0.6,0.1,0.8c0.1,0.3,0.1,0.7,0.2,1c0.1,0.8,0.2,1.2,0.4,1.7c0.1,0.3,0.1,0.5,0.2,0.8
			c0.3,0.9,0.6,1.7,0.9,2.6c0.3,0.7,0.6,1.3,0.9,1.9c0.3,0.5,0.5,0.9,0.8,1.4c0,0,0,0,0,0.1c0,0,0,0.1,0,0.1c0,0.1-0.1,0.1-0.1,0.2
			c-0.1,0.2-0.2,0.3-0.3,0.5c-0.3,0.6-0.7,1.1-1,1.6c0,0-0.1,0.1-0.1,0.1c0,0-0.1,0-0.1,0c0,0-0.1-0.1-0.1-0.1
			c-0.4-0.6-0.8-1.3-1.2-1.9c-0.3-0.5-0.5-1-0.8-1.5c-0.4-0.8-0.7-1.5-1-2.3c-0.2-0.6-0.4-1.2-0.6-1.9c-0.1-0.4-0.2-0.8-0.3-1.3
			c0-0.1-0.1-0.3-0.1-0.4c0,0,0,0,0,0c0,0,0,0,0,0c0,0,0,0,0,0.1c0,0.3,0,0.6-0.1,0.9c0,0.9,0,1.8,0,2.7C15.7,19.9,15.7,20,15.7,20
			C15.7,20,15.7,20,15.7,20z"/>
		<path class="st2" d="M24.7,12.3c0.7,0,1.4,0,2.2,0c0.1,0,0.2,0,0.2,0c0,0,0.1,0,0.1,0.1c0,0.1,0.1,0.3,0.1,0.4
			c0,0.1,0,0.3,0.1,0.4c0,0.3,0.1,0.5,0.1,0.8c0,0.1,0,0.1,0,0.2c0,0.1,0,0.2,0,0.3c0,0.1,0,0.2,0,0.3c0,0,0,0,0,0.1
			c0,0.2,0,0.4,0,0.5c0,0.2,0,0.4,0,0.5c0,0.2,0,0.4,0,0.5c0,0.1,0,0.1,0,0.2c0,0.2,0,0.4,0,0.5c0,0.1,0,0.2,0,0.4
			c0,0.1,0,0.2,0,0.3c0,1.5,0,2.9,0,4.4c0,0.1,0,0.2,0,0.4c0,0.1,0,0.2,0,0.2c0,0.2,0,0.4,0,0.5c0,0.1,0,0.2,0,0.4
			c0,0.1,0,0.3,0,0.4c0,0.2,0,0.3,0,0.5c0,0.1,0,0.1,0,0.2c0,0.2,0,0.4-0.1,0.5c0,0,0,0.1,0,0.1c0,0.2,0,0.3-0.1,0.5
			c0,0.1,0,0.1,0,0.2c0,0.1,0,0.2,0,0.3c0,0,0,0.1,0,0.1c0,0.2-0.1,0.4-0.1,0.7c0,0.1,0,0.3-0.1,0.4c0,0-0.1,0.1-0.1,0.1
			c-0.1,0-0.1,0-0.2,0c-0.4,0-0.9,0-1.3,0c-0.4,0-0.7,0-1.1,0c-0.1,0-0.1,0-0.2,0c0,0-0.1,0-0.1-0.1c0-0.1,0-0.2,0-0.3
			c0-0.2,0-0.3,0-0.5c0-0.2,0-0.4,0-0.5c0-0.1,0-0.2,0-0.3c0-0.2,0-0.5,0.1-0.7c0-0.1,0-0.1,0-0.2c0-0.2,0-0.4,0-0.6
			c0-0.2,0-0.4,0-0.5c0-0.1,0-0.2,0-0.3c0-0.4,0-0.9,0-1.3c0-0.1,0-0.3,0-0.4c0-0.1,0-0.2,0-0.3c0-1.1,0-2.2,0-3.3
			c0-0.1,0-0.2,0-0.4c0-0.1,0-0.2,0-0.4c0-0.5,0-1,0-1.5c0,0,0,0,0,0c0,0,0,0,0,0c0,0,0,0.1,0,0.1c0,0.2-0.1,0.4-0.1,0.6
			c-0.1,0.3-0.2,0.6-0.3,1c-0.1,0.5-0.3,0.9-0.5,1.4c-0.2,0.6-0.4,1.2-0.7,1.7c-0.1,0.3-0.2,0.6-0.4,0.8c0,0,0,0.1-0.1,0.1
			c0,0-0.1,0-0.1,0c0,0,0-0.1-0.1-0.1c-0.3-0.4-0.5-0.9-0.7-1.4c-0.2-0.4-0.4-0.9-0.6-1.3c0-0.1-0.1-0.2-0.1-0.2c0-0.1,0-0.1,0-0.2
			c0.2-0.5,0.4-1,0.5-1.6c0.2-0.5,0.3-1,0.4-1.6c0.1-0.3,0.1-0.6,0.2-0.9c0-0.2,0.1-0.4,0.1-0.6c0-0.1,0-0.3,0.1-0.4
			c0-0.1,0-0.2,0-0.4c0-0.1,0-0.2,0-0.2c0-0.2,0.1-0.4,0.1-0.6c0,0,0-0.1,0.1-0.1c0,0,0.1,0,0.1,0c0.1,0,0.2,0,0.3,0
			C23.3,12.3,24,12.3,24.7,12.3z"/>
		<path class="st2" d="M3.2,27.7c-0.4,0-0.9,0-1.3,0c-0.1,0-0.1,0-0.2,0c0,0-0.1,0-0.1-0.1c0,0,0-0.1-0.1-0.1
			c-0.1-0.2-0.2-0.4-0.2-0.6c-0.2-0.4-0.3-0.8-0.4-1.2c-0.1-0.4-0.3-0.9-0.4-1.4c-0.1-0.3-0.1-0.6-0.2-1c0-0.2-0.1-0.5-0.1-0.7
			c0-0.2-0.1-0.5-0.1-0.7C0,21.6,0.1,21.3,0,21c0-0.1,0-0.3,0-0.4c0-0.1,0-0.2,0-0.2c0-0.2,0-0.4,0-0.6c0-0.1,0-0.2,0-0.4
			c0-0.1,0-0.2,0-0.4c0-0.1,0.1-0.1,0.1-0.1c0.1,0,0.1,0,0.2,0c1,0,1.9,0,2.9,0c0.1,0,0.1,0,0.2,0c0.1,0,0.1,0.1,0.1,0.1
			c0,0.1,0,0.2,0,0.3c0,0.5,0,1,0,1.5c0,0.2,0,0.3,0,0.5c0,0.1,0,0.3,0,0.4c0,0.2,0,0.4,0.1,0.6c0,0,0,0.1,0,0.1
			c0,0.2,0,0.4,0.1,0.6c0,0.1,0,0.2,0,0.3c0.1,0.3,0.1,0.7,0.2,1c0.1,0.8,0.3,1.3,0.5,2.1c0.1,0.4,0.2,0.7,0.4,1.1c0,0,0,0.1,0,0.1
			c0,0,0,0,0,0.1c0,0,0,0-0.1,0c-0.1,0-0.2,0-0.3,0C4,27.7,3.6,27.7,3.2,27.7z"/>
		<path class="st2" d="M7.6,16.7c-0.8,0-1.5,0-2.3,0c-0.1,0-0.2,0-0.3,0c-0.1,0-0.1-0.1-0.1-0.1c0-0.1,0-0.2,0-0.3
			c0-0.1,0-0.3,0.1-0.4c0-0.1,0-0.3,0.1-0.4c0-0.1,0-0.3,0.1-0.4c0.1-0.5,0.2-1.1,0.4-1.6c0.1-0.3,0.1-0.5,0.2-0.8
			c0-0.1,0.1-0.2,0.1-0.3c0,0,0-0.1,0.1-0.1c0,0,0,0,0.1,0c0.1,0,0.2,0,0.3,0c1.4,0,2.8,0,4.2,0c0.1,0,0.2,0,0.3,0
			c0.1,0,0.1,0,0.1,0.1c0,0.3-0.1,0.5-0.1,0.8c-0.1,0.2,0,0.4-0.1,0.6c0,0.2-0.1,0.4-0.1,0.6c0,0.1-0.1,0.3-0.1,0.4
			c0,0.1,0,0.3-0.1,0.4c0,0,0,0.1,0,0.1c0,0.3-0.1,0.6-0.1,0.9c0,0.1,0,0.3-0.1,0.4c0,0-0.1,0.1-0.1,0.1c-0.1,0-0.2,0-0.3,0
			c-0.6,0-1.1,0-1.7,0C8,16.7,7.8,16.7,7.6,16.7z"/>
		<path class="st2" d="M7.5,22.2c-0.8,0-1.6,0-2.4,0c-0.1,0-0.2,0-0.3,0c0,0-0.1,0-0.1-0.1c0-0.2-0.1-0.4-0.1-0.6c0-0.8,0-1.5,0-2.3
			c0-0.1,0-0.1,0-0.2c0-0.1,0-0.1,0.1-0.1c0.1,0,0.1,0,0.2,0c1.6,0,3.2,0,4.9,0c0.1,0,0.1,0,0.2,0c0,0,0.1,0.1,0.1,0.1
			c0,0.1,0,0.2,0,0.3c0,0.6,0,1.1,0,1.7c0,0.2,0,0.4,0,0.6c0,0.2,0,0.3,0,0.5c0,0,0,0.1-0.1,0.1c-0.1,0-0.2,0-0.3,0
			C9,22.2,8.2,22.2,7.5,22.2z"/>
		<path class="st2" d="M4.3,14.1c-0.1,0.5-0.2,1-0.3,1.5c-0.1,0.3-0.1,0.6-0.1,0.9c0,0,0,0.1,0,0.1c0,0,0,0.1-0.1,0.1
			c0,0-0.1,0-0.1,0c-1,0-2,0-3,0c0,0-0.1,0-0.1,0c0,0-0.1,0-0.1-0.1c0-0.2,0.1-0.5,0.1-0.7c0.2-0.7,0.2-0.9,0.4-1.6
			C1,13.6,1.2,13,1.5,12.4c0,0,0,0,0-0.1c0,0,0-0.1,0.1-0.1c0.1,0,0.2,0,0.2,0c0.7,0,1.3,0,2,0c0.2,0,0.4,0,0.6,0c0.1,0,0.1,0,0.2,0
			c0.1,0,0.2,0,0.1,0.1c0,0.1,0,0.1-0.1,0.2c-0.1,0.2-0.1,0.4-0.2,0.7C4.4,13.6,4.3,13.9,4.3,14.1z"/>
	</g>
	<path class="st1" d="M88.1,5.9c0,0.5,0,1,0,1.6c0,0.2,0,0.4,0,0.6c0,0.3-0.1,0.6-0.2,1c-0.2,0.5-0.6,0.9-1.1,1.2
		c-0.3,0.1-0.5,0.2-0.8,0.3c-0.2,0-0.4,0.1-0.7,0.1c-0.8-0.1-1.4-0.3-2-0.9c-0.2-0.2-0.3-0.4-0.4-0.6c0,0,0-0.1,0.1-0.1
		c0.4,0,0.8,0,1.2,0c0,0,0.1,0,0.1,0.1c0,0,0.1,0.1,0.1,0.1c0.2,0.2,0.4,0.3,0.6,0.3c0.1,0,0.2,0,0.2,0c0.1,0,0.2,0,0.3,0
		c0.6,0,1-0.3,1.3-0.8C86.9,8.5,87,8.4,87,8.2c0,0,0-0.1,0-0.1c0,0-0.1,0-0.1,0c0,0-0.1,0.1-0.1,0.1c-0.4,0.3-0.8,0.5-1.3,0.5
		c-0.8,0-1.6-0.4-2.1-1c-0.3-0.4-0.4-0.8-0.5-1.2c0-0.2,0-0.3,0-0.5c0-0.9,0.6-1.9,1.4-2.3c0.4-0.2,0.9-0.3,1.4-0.3c0,0,0.1,0,0.1,0
		c0.4,0,0.8,0.2,1.1,0.5c0,0,0.1,0.1,0.1,0.1c0,0,0.1,0,0.1,0c0,0,0,0,0,0c0-0.1,0-0.3,0-0.4c0,0,0-0.1,0.1-0.1c0,0,0,0,0,0
		c0.3,0,0.6,0,0.9,0c0,0,0.1,0.1,0.1,0.1c0,0,0,0.1,0,0.1c0,0.1,0,0.3,0,0.4C88.1,4.8,88.1,5.4,88.1,5.9L88.1,5.9z M85.4,7.6
		c0.2,0,0.4,0,0.5-0.1c0.3-0.1,0.6-0.3,0.8-0.6c0.1-0.2,0.2-0.4,0.2-0.6c0.1-0.3,0-0.6-0.1-0.9c-0.1-0.4-0.4-0.7-0.8-0.8
		c-0.2-0.1-0.4-0.1-0.5-0.1c-0.3,0-0.5,0.1-0.8,0.2C84.3,5,84,5.4,84,5.9c0,0.1,0,0.2,0,0.3c0,0.2,0.1,0.4,0.2,0.6
		C84.5,7.4,84.9,7.6,85.4,7.6z"/>
	<path class="st3" d="M105.6,2.3c0-0.1,0-0.2,0-0.3c0,0-0.1-0.1-0.1-0.1c-0.3,0-0.7,0-1,0c0,0,0,0,0,0c0,0-0.1,0-0.1,0.1
		c0,0.4,0,0.8,0,1.3c0,0.2,0,0.4,0,0.6c0,0,0,0,0,0c0,0-0.1,0-0.1,0c-0.1-0.1-0.2-0.1-0.3-0.2c-0.2-0.1-0.5-0.2-0.7-0.3
		c-0.1,0-0.2,0-0.2,0c-0.4,0-0.8,0-1.1,0.2c-0.7,0.3-1.1,0.8-1.4,1.4c-0.1,0.3-0.2,0.6-0.2,0.9c0,0.1,0,0.2,0,0.3
		c0,0.2,0.1,0.5,0.1,0.7c0.1,0.4,0.4,0.8,0.7,1.1c0.3,0.3,0.7,0.5,1.2,0.6c0.4,0.1,0.7,0.1,1.1,0c0.3-0.1,0.6-0.2,0.8-0.4
		c0,0,0.1-0.1,0.1-0.1c0,0,0,0,0.1,0c0,0,0,0,0.1,0.1c0,0.1,0,0.2,0,0.3c0,0,0,0.1,0.1,0.1c0.1,0,0.2,0,0.2,0c0.2,0,0.5,0,0.7,0
		c0,0,0.1-0.1,0.1-0.1c0-0.1,0-0.2,0-0.2c0-1,0-2,0-3C105.6,4.3,105.6,3.3,105.6,2.3z M104.4,6.3c-0.1,0.6-0.5,1-1,1.2
		c0,0-0.1,0-0.1,0c-0.1,0-0.2,0-0.3,0c-0.3,0-0.6-0.1-0.8-0.3c-0.3-0.2-0.5-0.5-0.6-0.9c0-0.1,0-0.2,0-0.4c0-0.6,0.3-1.1,0.8-1.4
		c0.3-0.2,0.6-0.2,1-0.1c0.5,0.1,0.8,0.5,1,0.9C104.4,5.8,104.5,6.1,104.4,6.3z"/>
	<path class="st1" d="M139.8,6.9c-0.4,0-0.7,0-1.1,0c0,0-0.1,0-0.1,0.1c0,0.1-0.1,0.2-0.1,0.3c-0.2,0.4-0.3,0.8-0.5,1.1
		c0,0.1-0.1,0.1-0.1,0.2c0,0-0.1,0.1-0.1,0.1c0,0,0,0,0,0c-0.4,0-0.7,0-1.1,0c-0.1,0-0.1-0.1-0.1-0.1c0,0,0-0.1,0-0.1
		c0.3-0.7,0.6-1.5,0.9-2.2c0.5-1.3,1.1-2.5,1.6-3.8c0-0.1,0.1-0.2,0.1-0.3c0,0,0.1-0.1,0.1-0.1c0.2,0,0.4,0,0.7,0
		c0.2,0,0.3,0,0.3,0.2c0.9,2.1,1.7,4.1,2.6,6.2c0,0,0,0.1,0,0.1c0,0,0,0.1-0.1,0.1c0,0-0.1,0-0.1,0c-0.3,0-0.6,0-0.9,0
		c-0.2,0-0.2-0.1-0.3-0.2c-0.2-0.4-0.3-0.8-0.5-1.2c0-0.1-0.1-0.2-0.1-0.3c0,0-0.1-0.1-0.1-0.1c-0.1,0-0.1,0-0.2,0
		C140.4,6.9,140.1,6.9,139.8,6.9C139.8,6.9,139.8,6.9,139.8,6.9z M139.8,5.7c0.2,0,0.4,0,0.7,0c0,0,0.1-0.1,0.1-0.1c0,0,0,0,0,0
		c-0.2-0.6-0.4-1.1-0.6-1.7c0,0,0,0-0.1-0.1c0,0,0,0-0.1,0.1c-0.2,0.6-0.4,1.1-0.6,1.7c0,0,0,0,0,0c0,0,0,0.1,0.1,0.1
		C139.3,5.7,139.5,5.7,139.8,5.7z"/>
	<path class="st1" d="M96.1,6.6c-0.5,0-1.1,0-1.6,0c-0.1,0-0.2,0-0.2,0c0,0-0.1,0.1-0.1,0.1c0.1,0.4,0.4,0.6,0.7,0.8
		c0.1,0.1,0.3,0.1,0.4,0.1c0.2,0,0.3,0,0.5,0c0.2,0,0.5-0.1,0.6-0.3c0.1-0.1,0.1-0.1,0.2-0.2C96.6,7.1,96.7,7,96.8,7
		c0.2,0,0.3,0,0.5,0c0.2,0,0.3,0,0.5,0c0.1,0,0.1,0.1,0.1,0.1c0,0,0,0,0,0c-0.2,0.6-0.9,1.3-1.7,1.5c-0.4,0.1-0.8,0.1-1.3,0
		c-0.5-0.1-1-0.4-1.4-0.8c-0.3-0.3-0.5-0.7-0.6-1.1c-0.1-0.4-0.1-0.7,0-1.1c0.1-0.3,0.1-0.6,0.3-0.9c0.4-0.7,0.9-1.1,1.7-1.3
		c0.3-0.1,0.5-0.1,0.8-0.1c0.1,0,0.1,0,0.2,0c0.7,0.1,1.2,0.4,1.6,0.9c0.3,0.4,0.5,0.8,0.6,1.3c0,0.1,0,0.2,0,0.3
		c0,0.2,0,0.4-0.1,0.7c0,0-0.1,0.1-0.1,0.1c-0.1,0-0.2,0-0.3,0C97.1,6.6,96.6,6.6,96.1,6.6z M95.4,5.6L95.4,5.6c0.3,0,0.7,0,1,0
		c0.1,0,0.1,0,0.2,0c0.1,0,0.2-0.1,0.1-0.2c-0.1-0.3-0.2-0.5-0.5-0.7c-0.1-0.1-0.3-0.2-0.5-0.2c-0.3-0.1-0.7,0-1,0.1
		c-0.3,0.2-0.6,0.4-0.7,0.8c0,0,0,0.1,0,0.1c0,0,0,0.1,0,0.1c0,0,0.1,0,0.1,0C94.6,5.6,95,5.6,95.4,5.6z"/>
	<path class="st1" d="M180.5,6.6c-0.6,0-1.1,0-1.7,0c-0.1,0-0.1,0-0.2,0c0,0,0,0,0,0.1c0,0,0,0.1,0,0.1c0.1,0.3,0.4,0.5,0.7,0.6
		c0.1,0.1,0.3,0.1,0.4,0.1c0.1,0,0.3,0,0.4,0c0.3,0,0.6-0.2,0.8-0.4c0,0,0.1-0.1,0.1-0.1c0,0,0.1-0.1,0.2-0.1c0.3,0,0.7,0,1,0
		c0.1,0,0.1,0.1,0.1,0.1c-0.1,0.2-0.2,0.3-0.3,0.5c-0.3,0.5-0.8,0.8-1.3,1c-0.3,0.1-0.5,0.1-0.8,0.1c-0.6,0-1.1-0.2-1.5-0.5
		c-0.5-0.3-0.8-0.8-1-1.3c-0.1-0.3-0.1-0.5-0.1-0.8c0-0.6,0.1-1.1,0.4-1.6c0.4-0.6,0.9-1,1.6-1.1c0.2-0.1,0.4-0.1,0.6-0.1
		s0.4,0,0.6,0c0.2,0,0.3,0.1,0.4,0.1c0.6,0.3,1,0.7,1.3,1.3c0.2,0.4,0.3,0.9,0.2,1.3c0,0.1,0,0.2-0.1,0.3c0,0,0,0.1-0.1,0.1
		c-0.1,0-0.2,0-0.2,0C181.6,6.6,181,6.6,180.5,6.6L180.5,6.6z M179.9,5.7L179.9,5.7c0.4,0,0.8,0,1.2,0c0,0,0.1,0,0.1,0
		c0,0,0.1-0.1,0.1-0.1c0-0.2-0.1-0.3-0.2-0.5c-0.1-0.2-0.3-0.3-0.5-0.4c-0.4-0.2-0.8-0.1-1.1,0c-0.4,0.2-0.7,0.5-0.8,0.9
		c0,0.1,0,0.1,0.1,0.1C179,5.6,179.4,5.6,179.9,5.7z"/>
	<path class="st3" d="M163.7,6.1c0,0.7,0,1.4,0,2c0,0.1,0,0.2,0,0.3c0,0.1-0.1,0.1-0.1,0.2c-0.2,0-0.5,0-0.7,0c-0.1,0-0.1,0-0.2,0
		c0,0-0.1,0-0.1-0.1c0-0.1,0-0.2,0-0.4c0,0-0.1,0-0.1,0c-0.1,0-0.1,0.1-0.2,0.1c-0.3,0.3-0.7,0.4-1.2,0.5c-0.2,0-0.5,0-0.8,0
		c-0.8-0.2-1.4-0.6-1.7-1.3c-0.2-0.3-0.2-0.6-0.3-0.9c0-0.3,0-0.6,0-0.9c0-0.1,0.1-0.2,0.1-0.4c0.2-0.7,0.7-1.2,1.4-1.5
		c0.4-0.2,0.7-0.2,1.1-0.2c0.3,0,0.6,0.1,0.9,0.3c0.2,0.1,0.4,0.2,0.5,0.4c0,0,0.1,0,0.1,0c0,0,0,0,0.1-0.1c0-0.1,0-0.3,0-0.4
		c0,0,0-0.1,0.1-0.1c0,0,0,0,0,0c0.3,0,0.6,0,0.8,0c0.1,0,0.1,0.1,0.1,0.1c0,0,0,0.1,0,0.1c0,0.1,0,0.2,0,0.3
		C163.7,4.8,163.7,5.5,163.7,6.1z M161,7.6c0.1,0,0.2,0,0.3,0c0,0,0.1,0,0.1,0c0.5-0.2,0.9-0.6,1-1.2c0-0.3,0-0.5,0-0.7
		c0,0,0-0.1,0-0.1c-0.1-0.4-0.4-0.7-0.7-0.9c-0.1,0-0.2-0.1-0.3-0.1c-0.5-0.1-1.1,0-1.5,0.5c-0.2,0.3-0.3,0.6-0.4,1
		c0,0.3,0.1,0.6,0.2,0.8C160,7.3,160.4,7.6,161,7.6z"/>
	<path class="st3" d="M134.2,6.1c0,0.7,0,1.4,0,2.1c0,0.1,0,0.2,0,0.2c0,0.1-0.1,0.1-0.1,0.1c-0.3,0-0.6,0-0.8,0
		c-0.1,0-0.1,0-0.1-0.2c0-0.1,0-0.2,0-0.3c0,0,0,0-0.1,0c-0.1,0-0.1,0.1-0.2,0.1c-0.2,0.2-0.4,0.3-0.7,0.4c-0.3,0.1-0.7,0.2-1.1,0.1
		c-0.5-0.1-0.9-0.2-1.3-0.6c-0.4-0.3-0.6-0.7-0.7-1.2c-0.1-0.2-0.1-0.4-0.1-0.6c0-0.2,0-0.4,0-0.6c0.1-1,0.8-1.9,1.7-2.2
		c0.3-0.1,0.6-0.1,0.9-0.1c0.1,0,0.2,0,0.2,0c0.1,0,0.2,0,0.3,0.1c0.3,0.1,0.6,0.3,0.9,0.5c0,0,0.1,0,0.1,0c0,0,0.1,0,0.1-0.1
		c0-0.1,0-0.1,0-0.2c0,0,0-0.1,0-0.1c0,0,0-0.1,0-0.1c0,0,0.1,0,0.1,0c0.3,0,0.6,0,0.8,0c0.1,0,0.1,0.1,0.1,0.1c0,0,0,0.1,0,0.1
		c0,0.1,0,0.3,0,0.4C134.2,4.8,134.2,5.5,134.2,6.1z M131.6,7.6c0.1,0,0.2,0,0.4-0.1c0.6-0.2,0.9-0.6,1-1.2c0-0.1,0-0.1,0-0.2
		c0-0.3,0-0.5-0.1-0.7c-0.1-0.3-0.3-0.6-0.6-0.8c-0.1-0.1-0.3-0.1-0.4-0.2c-0.5-0.1-1.1,0-1.5,0.5c-0.2,0.3-0.4,0.7-0.4,1.1
		c0,0.3,0.1,0.6,0.2,0.8c0.3,0.4,0.7,0.7,1.2,0.7C131.5,7.6,131.6,7.6,131.6,7.6z"/>
	<path class="st1" d="M123.4,6.1c0,0.7,0,1.4,0,2.1c0,0.1,0,0.2,0,0.3c0,0,0,0.1-0.1,0.1c0,0-0.1,0-0.1,0c-0.3,0-0.5,0-0.8,0
		c0,0-0.1,0-0.1-0.1c0-0.1,0-0.2,0-0.4c0,0,0,0-0.1,0c-0.1,0-0.1,0.1-0.2,0.1c-0.2,0.2-0.4,0.3-0.7,0.4c-0.3,0.1-0.7,0.2-1.1,0.1
		c-0.5-0.1-1-0.3-1.3-0.6c-0.3-0.3-0.5-0.7-0.7-1.1c-0.1-0.4-0.2-0.8-0.1-1.2c0-0.2,0.1-0.5,0.1-0.7c0.2-0.6,0.5-1,1.1-1.3
		c0.2-0.1,0.4-0.2,0.7-0.3c0.2-0.1,0.5-0.1,0.7-0.1c0.5,0,0.9,0.2,1.2,0.4c0.1,0.1,0.1,0.1,0.2,0.2c0,0,0.1,0.1,0.1,0c0,0,0,0,0-0.1
		c0-0.1,0-0.2,0-0.3c0,0,0.1-0.1,0.1-0.1c0.3,0,0.6,0,0.8,0c0.1,0,0.1,0.1,0.1,0.1c0,0.1,0,0.2,0,0.2C123.4,4.6,123.4,5.4,123.4,6.1
		L123.4,6.1z M122.2,6.1c0-0.1,0-0.3,0-0.4c0,0,0-0.1,0-0.1c-0.2-0.6-0.6-0.9-1.2-1c-0.5-0.1-0.9,0.1-1.3,0.5
		c-0.2,0.3-0.4,0.6-0.4,1c0,0.4,0.1,0.7,0.3,1c0.3,0.4,0.6,0.6,1.1,0.6c0.1,0,0.2,0,0.4,0c0,0,0.1,0,0.1,0c0.2-0.1,0.3-0.1,0.5-0.2
		c0.3-0.3,0.5-0.6,0.6-1C122.2,6.3,122.2,6.2,122.2,6.1z"/>
	<path class="st4" d="M99.1,27c0-0.7,0-1.4,0-2.1c0-0.3,0-0.4,0.3-0.4c0.3,0,0.6,0,0.9,0c0,0,0.1,0,0.1,0c0,0,0.1,0,0.1,0.1
		c0.1,0.2,0.1,0.5,0.2,0.7c0.2,0.7,0.3,1.3,0.5,2c0,0.1,0.1,0.2,0.1,0.3c0,0,0,0.1,0.1,0c0,0,0,0,0,0c0,0,0-0.1,0-0.1
		c0.1-0.4,0.2-0.8,0.3-1.2c0.1-0.5,0.3-1,0.4-1.6c0,0,0-0.1,0.1-0.1c0,0,0,0,0.1-0.1c0,0,0.1,0,0.1,0c0.4,0,0.8,0,1.1,0c0,0,0,0,0,0
		c0,0,0.1,0.1,0.1,0.1c0,0.1,0,0.2,0,0.3c0,0.6,0,1.3,0,1.9c0,0.7,0,1.4,0,2c0,0.1,0,0.2,0,0.3c0,0.1-0.1,0.1-0.2,0.1
		c-0.1,0-0.2,0-0.3,0c-0.1,0-0.2,0-0.3,0c0,0-0.1-0.1-0.1-0.1c0,0,0-0.1,0-0.1c0-0.1,0-0.3,0-0.4c0-0.8,0-1.7,0-2.5
		c0-0.1,0-0.2,0-0.2c0,0,0-0.1,0,0c0,0,0,0,0,0c0,0.1-0.1,0.2-0.1,0.3c-0.2,0.9-0.5,1.8-0.7,2.7c0,0.1-0.1,0.2-0.1,0.3
		c0,0.1-0.1,0.1-0.1,0.1c-0.2,0-0.5,0-0.7,0c-0.1,0-0.1-0.1-0.1-0.1c0,0,0-0.1,0-0.1c-0.1-0.2-0.1-0.4-0.2-0.6
		c-0.2-0.7-0.3-1.4-0.5-2.1c0-0.1-0.1-0.2-0.1-0.3c0,0,0,0-0.1,0c0,0,0,0,0,0c0,0.1,0,0.2,0,0.2c0,0.7,0,1.4,0,2c0,0.2,0,0.4,0,0.7
		c0,0.1,0,0.1,0,0.2c0,0-0.1,0.1-0.1,0.1c-0.2,0-0.5,0-0.7,0c0,0-0.1-0.1-0.1-0.1s0-0.1,0-0.1c0-0.1,0-0.3,0-0.4
		C99.1,28.2,99.1,27.6,99.1,27C99.1,27,99.1,27,99.1,27z"/>
	<path class="st1" d="M71.5,8.7c-1,0-2-0.5-2.5-1.7c-0.2-0.4-0.2-0.8-0.2-1.3c0.1-1,0.6-1.7,1.5-2.1c0.4-0.2,0.7-0.3,1.1-0.3
		c0.9,0,1.6,0.4,2.2,1.1c0.2,0.3,0.3,0.6,0.4,0.9c0.1,0.3,0.1,0.5,0.1,0.8c0,0.2,0,0.3-0.1,0.5C74.1,6.8,74,7,74,7.1
		c-0.4,1-1.2,1.4-1.9,1.6C71.9,8.7,71.7,8.7,71.5,8.7z M70,6c0,0.2,0,0.4,0.1,0.6c0.1,0.4,0.4,0.7,0.7,0.9c0.2,0.1,0.4,0.2,0.6,0.2
		c0.1,0,0.3,0,0.4,0c0,0,0.1,0,0.1,0c0.2-0.1,0.4-0.2,0.6-0.4c0.2-0.3,0.4-0.6,0.4-1c0-0.2,0-0.3-0.1-0.5c-0.1-0.5-0.4-0.8-0.8-1
		c-0.2-0.1-0.4-0.2-0.6-0.1c-0.2,0-0.3,0.1-0.5,0.1C70.4,4.9,70,5.5,70,6z"/>
	<path class="st5" d="M147.6,6.1c0,0.7,0,1.4,0,2c0,0.1,0,0.2,0,0.3c0,0.1-0.1,0.1-0.1,0.1c0,0,0,0,0,0c-0.3,0-0.5,0-0.8,0
		c-0.1,0-0.1,0-0.1-0.1c0-0.1,0-0.2,0-0.2c0,0,0,0,0,0c0,0,0,0,0,0c-0.1,0-0.1,0.1-0.2,0.2c-0.2,0.2-0.4,0.3-0.7,0.4
		c-0.1,0-0.1,0-0.2,0c-0.1,0-0.2,0-0.3,0c-0.5,0-0.9-0.2-1.3-0.6c-0.1-0.1-0.3-0.3-0.3-0.5c-0.1-0.2-0.1-0.4-0.2-0.5
		c0-0.3-0.1-0.6-0.1-0.8c0-0.8,0-1.6,0-2.4c0-0.1,0-0.1,0-0.2c0,0,0.1-0.1,0.1-0.1c0.3,0,0.7,0,1,0c0,0,0.1,0.1,0.1,0.1
		c0,0,0,0.1,0,0.1c0,0.1,0,0.3,0,0.4c0,0.6,0,1.2,0,1.7c0,0.1,0,0.3,0,0.4c0,0.2,0,0.4,0.1,0.6c0.1,0.2,0.2,0.4,0.3,0.6
		c0.1,0.1,0.2,0.2,0.4,0.2c0.1,0,0.3,0,0.4,0c0.2,0,0.3-0.1,0.4-0.2c0.2-0.2,0.3-0.3,0.3-0.6c0.1-0.2,0.1-0.5,0.1-0.7
		c0-0.7,0-1.5,0-2.2c0-0.1,0-0.2,0-0.2c0,0,0,0,0.1-0.1c0,0,0,0,0,0c0.3,0,0.6,0,0.9,0c0.1,0,0.1,0.1,0.1,0.1c0,0,0,0.1,0,0.1
		c0,0.1,0,0.3,0,0.4C147.6,4.8,147.6,5.5,147.6,6.1z"/>
	<path class="st3" d="M65.6,6.1c0,0.7,0,1.4,0,2.1c0,0.1,0,0.2,0,0.2c0,0,0,0.1-0.1,0.1c0,0-0.1,0-0.1,0c-0.3,0-0.5,0-0.8,0
		c-0.1,0-0.1-0.1-0.1-0.1c0-0.1,0-0.1,0-0.2c0,0,0,0,0,0c0,0,0,0-0.1,0c0,0,0,0-0.1,0.1c-0.2,0.2-0.4,0.3-0.7,0.4c0,0-0.1,0-0.1,0
		c-0.3,0-0.5,0-0.8,0c-0.2,0-0.3-0.1-0.5-0.2c-0.1-0.1-0.2-0.1-0.4-0.2c-0.3-0.2-0.5-0.6-0.6-0.9c-0.1-0.3-0.1-0.5-0.1-0.8
		c0-0.9,0-1.9,0-2.8c0,0,0-0.1,0-0.1c0,0,0,0,0.1-0.1c0,0,0,0,0,0c0.3,0,0.6,0,0.9,0c0.1,0,0.1,0.1,0.1,0.1c0,0,0,0.1,0,0.1
		c0,0.1,0,0.3,0,0.4c0,0.6,0,1.2,0,1.8c0,0.2,0,0.4,0,0.7c0,0.2,0.1,0.5,0.3,0.6c0,0,0.1,0.1,0.1,0.1c0.1,0.1,0.2,0.2,0.4,0.2
		c0.1,0,0.2,0,0.3,0c0.3,0,0.5-0.1,0.6-0.4c0.1-0.2,0.2-0.4,0.2-0.6c0-0.2,0-0.5,0-0.7c0-0.7,0-1.4,0-2c0-0.1,0-0.2,0-0.2
		c0-0.1,0.1-0.1,0.1-0.1c0.3,0,0.6,0,0.9,0c0.1,0,0.1,0.1,0.1,0.1c0,0.1,0,0.1,0,0.2c0,0.2,0,0.4,0,0.6C65.6,5,65.6,5.6,65.6,6.1z"
		/>
	<path class="st1" d="M76.8,5.3c0-0.9,0-1.9,0-2.8c0-0.1,0-0.3,0-0.4c0-0.1,0.1-0.1,0.1-0.1c0,0,0,0,0,0c1,0,2.1,0,3.1,0
		c0,0,0,0,0,0c0,0,0.1,0,0.1,0.1c0,0.3,0,0.6,0,0.9c0,0,0,0,0,0c0,0,0,0.1-0.1,0.1c-0.1,0-0.1,0-0.2,0c-0.5,0-1,0-1.6,0
		c-0.1,0-0.2,0-0.2,0c0,0-0.1,0.1-0.1,0.1c0,0.2,0,1.1,0,1.4c0,0,0.1,0.1,0.1,0.1c0,0,0.1,0,0.1,0c0.2,0,0.3,0,0.5,0
		c0.4,0,0.8,0,1.3,0c0.1,0,0.1,0.1,0.1,0.1c0,0.3,0,0.6,0,0.9c0,0-0.1,0.1-0.1,0.1c-0.2,0-0.4,0-0.6,0c-0.3,0-0.7,0-1,0
		c-0.1,0-0.2,0-0.2,0c0,0-0.1,0.1-0.1,0.1c0,0.1,0,0.2,0,0.2c0,0.7,0,1.4,0,2c0,0.1,0,0.2,0,0.3c0,0,0,0-0.1,0.1c0,0,0,0,0,0
		c-0.3,0-0.7,0-1,0c-0.1,0-0.1,0-0.1-0.1c0,0,0-0.1,0-0.1c0-0.1,0-0.3,0-0.4C76.8,7,76.8,6.1,76.8,5.3z"/>
	<path class="st3" d="M176.4,5.2c-0.1,0-0.3,0-0.4,0c-0.2,0-0.3,0-0.4-0.2c0,0,0,0-0.1-0.1c-0.3-0.4-0.6-0.5-1.1-0.5
		c-0.4,0-0.8,0.2-1,0.5c-0.1,0.1-0.2,0.3-0.3,0.5c-0.1,0.2-0.1,0.5-0.1,0.7c0.1,0.5,0.4,1.1,1.1,1.3c0,0,0.1,0,0.1,0
		c0.1,0,0.3,0,0.4,0c0.3,0,0.5-0.1,0.8-0.3c0.1-0.1,0.1-0.2,0.2-0.2c0-0.1,0.1-0.1,0.2-0.1c0.4,0,0.8,0,1.1,0c0,0,0.1,0.1,0.1,0.1
		c-0.3,0.7-0.8,1.3-1.5,1.5c-0.3,0.1-0.6,0.1-0.9,0.2c-0.4,0-0.8-0.1-1.1-0.2c-0.7-0.3-1.2-0.9-1.5-1.7c-0.1-0.4-0.1-0.8-0.1-1.2
		c0.1-0.6,0.4-1.2,0.9-1.6c0.3-0.3,0.7-0.5,1.2-0.6c0.2,0,0.3-0.1,0.5-0.1c0.8,0,1.6,0.3,2.1,1c0.2,0.2,0.3,0.5,0.4,0.8
		c0,0,0,0.1,0,0.1c0,0-0.1,0-0.1,0C176.8,5.3,176.6,5.2,176.4,5.2L176.4,5.2z"/>
	<path class="st4" d="M97,35.2c0,0.7,0,1.4,0,2.1c0,0.1,0,0.2,0,0.2c0,0-0.1,0.1-0.1,0.1c0,0,0,0,0,0c-0.3,0-0.5,0-0.8,0
		c-0.1,0-0.1,0-0.2-0.1c-0.2-0.2-0.3-0.5-0.5-0.7c-0.4-0.6-0.8-1.3-1.2-1.9c0-0.1-0.1-0.1-0.1-0.2c0,0,0,0,0,0c0,0-0.1,0-0.1,0
		c0,0.1,0,0.2,0,0.3c0,0.7,0,1.4,0,2.2c0,0.1,0,0.2,0,0.3c0,0-0.1,0.1-0.1,0.1c-0.2,0-0.4,0-0.6,0c-0.1,0-0.2-0.1-0.2-0.1
		c0-0.1,0-0.2,0-0.2c0-1.4,0-2.8,0-4.2c0-0.1,0-0.2,0-0.2c0-0.1,0.1-0.1,0.1-0.1c0.2,0,0.5,0,0.7,0c0,0,0.1,0,0.1,0.1
		c0,0,0.1,0.1,0.1,0.1c0.1,0.2,0.2,0.3,0.3,0.5c0.4,0.7,0.9,1.4,1.3,2.1c0,0.1,0.1,0.2,0.2,0.2c0,0,0,0,0,0c0,0,0.1,0,0.1-0.1
		c0-0.1,0-0.3,0-0.4c0-0.7,0-1.5,0-2.2c0-0.1,0-0.2,0-0.3c0,0,0.1-0.1,0.1-0.1c0,0,0,0,0,0c0.2,0,0.4,0,0.6,0c0,0,0,0,0,0
		c0,0,0.1,0.1,0.1,0.1c0,0.1,0,0.2,0,0.2C97,33.7,97,34.4,97,35.2z"/>
	<path class="st3" d="M148.7,7c0.2,0,0.3,0,0.5,0c0.1,0,0.1,0,0.2,0.1c0,0,0,0.1,0,0.1c0,0.1,0.1,0.1,0.1,0.2
		c0.1,0.1,0.2,0.2,0.4,0.2c0.1,0,0.1,0,0.2,0c0.3,0,0.5-0.3,0.4-0.6c0-0.1-0.1-0.2-0.2-0.2c-0.1,0-0.1-0.1-0.2-0.1
		c-0.1-0.1-0.3-0.1-0.4-0.2c-0.1,0-0.2-0.1-0.4-0.1c-0.2-0.1-0.3-0.1-0.5-0.3c-0.2-0.1-0.3-0.3-0.4-0.5c-0.1-0.3-0.2-0.6-0.1-0.9
		c0.1-0.6,0.4-0.9,1-1.1c0.3-0.1,0.6-0.2,0.9-0.1c0.5,0.1,1.1,0.4,1.4,1.1c0,0.1,0,0.2,0,0.3c0,0-0.1,0.1-0.1,0.1
		c-0.3,0-0.6,0-0.9,0c0,0-0.1,0-0.1-0.1c0-0.1-0.1-0.1-0.1-0.2c-0.1-0.2-0.4-0.3-0.6-0.2c-0.1,0.1-0.3,0.2-0.2,0.4
		c0,0.1,0.1,0.2,0.1,0.2c0.1,0.1,0.2,0.1,0.2,0.1c0.2,0.1,0.4,0.1,0.5,0.2c0.1,0,0.3,0.1,0.4,0.1c0.1,0.1,0.3,0.1,0.4,0.2
		c0.3,0.2,0.5,0.6,0.6,1c0.1,0.7-0.3,1.4-1,1.7c-0.3,0.1-0.6,0.2-0.9,0.2c-0.4,0-0.7-0.1-1-0.3c-0.3-0.2-0.5-0.4-0.6-0.8
		c0-0.1-0.1-0.1-0.1-0.2c0-0.1,0-0.2,0-0.3c0-0.1,0-0.1,0.1-0.1C148.3,7,148.5,7,148.7,7L148.7,7z"/>
	<path class="st4" d="M84.9,24.5c0.2,0,0.5,0,0.7,0c0.1,0,0.2,0,0.3,0c0.5,0,1.1,0.3,1.4,0.8c0.1,0.2,0.2,0.5,0.3,0.8
		c0,0.1,0,0.2,0,0.2c0,0.3,0,0.7,0,1c0,0.4-0.2,0.8-0.4,1.2c-0.1,0.2-0.3,0.4-0.6,0.5c-0.1,0-0.2,0.1-0.3,0.1
		c-0.1,0-0.2,0.1-0.4,0.1c-0.1,0-0.3,0-0.4,0c-0.6,0-1.1,0-1.7,0c-0.1,0-0.1,0-0.2,0c0,0-0.1-0.1-0.1-0.1c0-0.1,0-0.2,0-0.2
		c0-0.4,0-0.8,0-1.3c0-0.1,0-0.2,0-0.3c0-0.1-0.1-0.1-0.1-0.1c-0.1,0-0.2,0-0.3,0c0,0,0,0-0.1-0.1c0,0,0,0,0,0c0-0.1,0-0.2,0-0.4
		c0-0.1,0.1-0.1,0.1-0.1c0.1,0,0.2,0,0.3,0c0,0,0.1,0,0.1-0.1c0-0.1,0-0.2,0-0.2c0-0.5,0-0.9,0-1.4c0-0.1,0-0.2,0-0.3
		c0-0.1,0.1-0.1,0.1-0.1c0.1,0,0.2,0,0.2,0C84.2,24.5,84.5,24.5,84.9,24.5L84.9,24.5z M84.5,27.9C84.5,27.9,84.5,27.9,84.5,27.9
		c0,0.1,0,0.3,0,0.4c0,0,0,0.1,0,0.1c0,0.1,0.1,0.1,0.1,0.1c0,0,0.1,0,0.1,0c0.2,0,0.3,0,0.5,0c0.2,0,0.4,0,0.7-0.1
		c0.1,0,0.2-0.1,0.3-0.2c0.2-0.2,0.3-0.4,0.3-0.6c0-0.1,0-0.2,0-0.3c0-0.2,0-0.4,0-0.7c0-0.2,0-0.3-0.1-0.5c0-0.2-0.1-0.4-0.2-0.6
		c-0.1-0.2-0.3-0.3-0.4-0.3c-0.2,0-0.4-0.1-0.6-0.1c-0.2,0-0.4,0-0.6,0c0,0-0.1,0-0.1,0c0,0-0.1,0-0.1,0.1c0,0,0,0.1,0,0.1
		c0,0.3,0,0.6,0,0.9c0,0.1,0.1,0.2,0.1,0.2c0.2,0,0.3,0,0.5,0c0.1,0,0.2,0,0.3,0c0,0,0.1,0.1,0.1,0.1c0,0.1,0,0.2,0,0.4
		c0,0.1-0.1,0.1-0.1,0.1c-0.1,0-0.3,0-0.4,0c-0.1,0-0.2,0-0.3,0c-0.1,0-0.1,0.1-0.1,0.1C84.5,27.6,84.5,27.7,84.5,27.9z"/>
	<path class="st1" d="M49.9,7c0.2,0,0.3,0,0.5,0c0.1,0,0.1,0,0.1,0.1c0,0.1,0.1,0.2,0.1,0.3c0.1,0.2,0.2,0.3,0.4,0.3
		c0.1,0,0.1,0,0.2,0c0.2,0,0.4-0.2,0.4-0.4c0,0,0-0.1,0-0.1c0-0.1-0.1-0.2-0.2-0.3c0,0-0.1-0.1-0.2-0.1c-0.1,0-0.2-0.1-0.3-0.1
		c-0.2,0-0.3-0.1-0.5-0.2c-0.2,0-0.3-0.1-0.4-0.2c-0.3-0.2-0.5-0.4-0.6-0.7c0-0.1-0.1-0.2-0.1-0.3c0-0.1,0-0.3,0-0.4
		c0-0.2,0.1-0.4,0.2-0.5c0.2-0.3,0.5-0.6,0.8-0.7c0.4-0.2,0.8-0.2,1.2-0.1c0.5,0.1,0.9,0.5,1.1,1c0.1,0.1,0.1,0.3,0.1,0.4
		c0,0,0,0.1-0.1,0.1c0,0,0,0,0,0c-0.3,0-0.6,0-0.9,0c-0.1,0-0.1,0-0.1-0.1c0,0,0-0.1-0.1-0.1c-0.1-0.2-0.4-0.3-0.6-0.1
		c-0.1,0.1-0.2,0.1-0.2,0.3c-0.1,0.2,0,0.3,0.1,0.4c0.1,0,0.1,0.1,0.2,0.1c0.2,0.1,0.4,0.1,0.6,0.2c0.2,0.1,0.3,0.1,0.5,0.2
		c0.2,0.1,0.4,0.2,0.5,0.4c0.1,0.1,0.2,0.3,0.2,0.5c0,0,0,0,0,0c0.2,0.9-0.2,1.6-1,2c-0.2,0.1-0.5,0.2-0.8,0.1c-0.4,0-0.7-0.1-1-0.3
		c-0.3-0.2-0.5-0.4-0.6-0.7c-0.1-0.2-0.1-0.4-0.1-0.6c0,0,0.1-0.1,0.1-0.1C49.6,7,49.8,7,49.9,7C49.9,7,49.9,7,49.9,7z"/>
	<path class="st4" d="M157.6,26.9c0-0.7,0-1.4,0-2c0-0.1,0-0.2,0-0.3c0,0,0.1-0.1,0.1-0.1c0,0,0,0,0,0c0.2,0,0.5,0,0.7,0
		c0.1,0,0.1,0,0.2,0.1c0,0,0,0,0,0c0.4,0.7,0.9,1.4,1.3,2.1c0.1,0.2,0.2,0.4,0.4,0.6c0,0,0.1,0.1,0.1,0.1c0,0,0.1,0,0.1,0
		c0,0,0,0,0,0c0-0.1,0-0.2,0-0.2c0-0.6,0-1.3,0-1.9c0-0.2,0-0.4,0-0.6c0,0,0-0.1,0-0.1c0-0.1,0.1-0.1,0.1-0.1c0.2,0,0.4,0,0.7,0
		c0,0,0.1,0.1,0.1,0.1c0,0.1,0,0.2,0,0.2c0,0.4,0,0.8,0,1.1c0,0.9,0,1.9,0,2.8c0,0.1,0,0.3,0,0.4c0,0.1-0.1,0.2-0.1,0.2
		c-0.2,0-0.5,0-0.7,0c-0.1,0-0.2,0-0.2-0.1c-0.1-0.2-0.2-0.4-0.4-0.6c-0.5-0.7-0.9-1.5-1.4-2.2c0,0,0,0-0.1-0.1c0,0-0.1,0-0.1,0
		c0,0,0,0,0,0c0,0.1,0,0.2,0,0.3c0,0.7,0,1.4,0,2.2c0,0.1,0,0.2,0,0.3c0,0.1-0.1,0.2-0.2,0.2c-0.2,0-0.4,0-0.6,0
		c-0.1,0-0.1-0.1-0.1-0.2c0,0,0-0.1,0-0.1c0-0.1,0-0.2,0-0.3C157.6,28.1,157.6,27.5,157.6,26.9L157.6,26.9z"/>
	<path class="st4" d="M64.2,27c0-0.6,0-1.2,0-1.8c0-0.1,0-0.3,0-0.4c0-0.2,0.1-0.2,0.2-0.2c0,0,0.1,0,0.1,0c0.5,0,1,0,1.5,0
		c0.2,0,0.3,0,0.5,0c0.2,0,0.4,0.1,0.5,0.1c0.1,0,0.2,0.1,0.3,0.2c0.2,0.2,0.4,0.3,0.5,0.6c0.2,0.3,0.3,0.5,0.3,0.8
		c0,0.2,0.1,0.4,0.1,0.6c0,0.3,0,0.7-0.1,1c-0.1,0.5-0.3,0.9-0.7,1.2c-0.1,0.1-0.2,0.2-0.4,0.3c-0.2,0.1-0.4,0.1-0.6,0.2
		c-0.3,0-0.7,0-1,0c-0.3,0-0.7,0-1,0c-0.1,0-0.1,0-0.2,0c-0.1,0-0.1-0.1-0.1-0.1c0-0.1,0-0.2,0-0.3C64.2,28.3,64.2,27.6,64.2,27z
		 M65.2,26.9c0,0.4,0,0.8,0,1.2c0,0.1,0,0.2,0,0.3c0,0,0,0.1,0,0.1s0.1,0.1,0.1,0.1c0.4,0,0.8,0,1.2-0.1c0.2-0.1,0.4-0.2,0.5-0.4
		c0.1-0.2,0.2-0.5,0.2-0.8c0-0.2,0-0.5,0-0.7c0-0.2-0.1-0.5-0.2-0.7c-0.1-0.3-0.4-0.5-0.7-0.5c-0.1,0-0.2,0-0.4,0
		c-0.2,0-0.5,0-0.7,0c-0.1,0-0.1,0.1-0.1,0.1c0,0.1,0,0.2,0,0.2C65.2,26.1,65.2,26.5,65.2,26.9z"/>
	<path class="st6" d="M133.6,26.9c0-0.6,0-1.3,0-1.9c0-0.1,0-0.2,0-0.3c0-0.1,0.1-0.2,0.2-0.2c0.2,0,0.4,0,0.7,0
		c0.1,0,0.1,0.1,0.2,0.2c0,0,0,0.1,0,0.1c0,0.1,0,0.2,0,0.3c0,0.3,0,0.7,0,1c0,0.1,0,0.2,0,0.2c0,0.1,0.1,0.1,0.1,0.1c0,0,0,0,0,0
		c0.5,0,1,0,1.5,0c0,0,0.1,0,0.1,0c0,0,0.1-0.1,0.1-0.1c0-0.1,0-0.1,0-0.2c0-0.4,0-0.8,0-1.1c0-0.1,0-0.2,0-0.3
		c0-0.1,0.1-0.2,0.1-0.2c0.2,0,0.5,0,0.7,0c0,0,0.1,0,0.1,0s0,0,0.1,0.1c0,0.1,0,0.2,0,0.2c0,1.4,0,2.8,0,4.2c0,0.1,0,0.2,0,0.2
		c0,0-0.1,0.1-0.1,0.1c0,0-0.1,0-0.1,0c-0.2,0-0.3,0-0.5,0c0,0-0.1,0-0.1,0c0,0,0,0-0.1-0.1c0-0.1,0-0.2,0-0.2c0-0.5,0-0.9,0-1.4
		c0-0.1,0-0.2,0-0.2c0-0.1-0.1-0.1-0.1-0.1c0,0-0.1,0-0.1,0c-0.5,0-1,0-1.5,0c0,0-0.1,0-0.1,0c0,0-0.1,0-0.1,0.1c0,0.1,0,0.2,0,0.2
		c0,0.5,0,1,0,1.5c0,0.1,0,0.2,0,0.2c0,0-0.1,0.1-0.1,0.1c0,0-0.1,0-0.1,0c-0.2,0-0.4,0-0.6,0c0,0-0.1,0-0.1,0c0,0-0.1-0.1-0.1-0.1
		c0-0.1,0-0.2,0-0.3C133.6,28.3,133.6,27.6,133.6,26.9z"/>
	<path class="st6" d="M63.8,35.1c0-0.7,0-1.4,0-2c0-0.1,0-0.2,0-0.3c0-0.1,0.1-0.1,0.1-0.1c0,0,0.1,0,0.1,0c0.2,0,0.4,0,0.6,0
		c0,0,0,0,0,0c0.1,0,0.2,0.1,0.2,0.1c0,0.1,0,0.2,0,0.2c0,0.4,0,0.7,0,1.1c0,0.1,0,0.2,0,0.3c0,0.1,0.1,0.2,0.2,0.2c0,0,0.1,0,0.1,0
		c0.5,0,0.9,0,1.4,0c0.1,0,0.1,0,0.2,0c0,0,0,0,0.1-0.1c0,0,0-0.1,0-0.1c0-0.1,0-0.2,0-0.3c0-0.4,0-0.8,0-1.1c0-0.1,0-0.1,0-0.2
		c0,0,0.1-0.1,0.1-0.1c0,0,0,0,0,0c0.2,0,0.5,0,0.7,0c0.1,0,0.1,0.1,0.1,0.2c0,0,0,0.1,0,0.1c0,0,0,0.1,0,0.1c0,1.4,0,2.7,0,4.1
		c0,0.1,0,0.2,0,0.3c0,0-0.1,0.1-0.1,0.1c0,0,0,0,0,0c-0.2,0-0.5,0-0.7,0c-0.1,0-0.1-0.1-0.1-0.1c0,0,0-0.1,0-0.1c0-0.1,0-0.3,0-0.4
		c0-0.3,0-0.7,0-1c0-0.1,0-0.2,0-0.3c0-0.1-0.1-0.1-0.1-0.1c0,0-0.1,0-0.1,0c-0.5,0-1,0-1.5,0c0,0-0.1,0-0.1,0c0,0,0,0-0.1,0.1
		c0,0,0,0.1,0,0.1c0,0.1,0,0.3,0,0.4c0,0.4,0,0.8,0,1.3c0,0.1,0,0.1,0,0.2c0,0,0,0-0.1,0.1c0,0-0.1,0-0.1,0c-0.2,0-0.4,0-0.7,0
		c-0.1,0-0.2-0.1-0.2-0.2c0-0.1,0-0.3,0-0.4C63.8,36.4,63.8,35.8,63.8,35.1z"/>
	<path class="st7" d="M55.8,35.9c0-0.5,0-0.9,0-1.4c0-0.1,0-0.2,0-0.2c0,0,0.1-0.1,0.1-0.1c0.2,0,0.4,0,0.6,0c0.1,0,0.1,0,0.1,0.1
		c0,0,0,0.1,0,0.1c0,0,0.1,0,0.1,0c0.1,0,0.2-0.1,0.2-0.2c0.1-0.1,0.2-0.1,0.3-0.1c0,0,0.1,0,0.1,0c0.2,0,0.4,0,0.6,0
		c0.2,0,0.3,0.1,0.4,0.2c0.1,0.1,0.1,0.2,0.2,0.2c0,0,0.1,0,0.1,0c0.1,0,0.1-0.1,0.2-0.1c0.2-0.2,0.5-0.3,0.9-0.3c0.1,0,0.1,0,0.2,0
		c0.1,0,0.2,0,0.3,0.1c0.2,0.1,0.4,0.3,0.5,0.5c0,0.1,0.1,0.1,0.1,0.2c0,0.3,0.1,0.6,0.1,0.9c0,0.5,0,1,0,1.5c0,0.1,0,0.2,0,0.3
		c0,0-0.1,0.1-0.1,0.1c-0.2,0-0.5,0-0.7,0c-0.1,0-0.1-0.1-0.1-0.1c0-0.1,0-0.2,0-0.3c0-0.5,0-1,0-1.6c0-0.2,0-0.3,0-0.5
		c0-0.1-0.1-0.2-0.1-0.2c0,0-0.1-0.1-0.2-0.1c-0.1,0-0.3,0-0.4,0c-0.2,0.1-0.3,0.2-0.3,0.3c-0.1,0.2-0.1,0.3-0.1,0.5
		c0,0.2,0,0.3,0,0.5c0,0.4,0,0.8,0,1.2c0,0.1,0,0.2,0,0.2c0,0-0.1,0.1-0.1,0.1c0,0,0,0,0,0c-0.2,0-0.4,0-0.7,0
		c-0.1,0-0.1-0.1-0.1-0.1c0,0,0-0.1,0-0.1c0-0.1,0-0.2,0-0.3c0-0.4,0-0.9,0-1.3c0-0.1,0-0.3,0-0.4c0-0.1,0-0.2-0.1-0.4
		c0-0.1-0.1-0.2-0.2-0.2c-0.2,0-0.3,0-0.5,0c0,0-0.1,0-0.1,0c-0.2,0.1-0.3,0.2-0.3,0.4c0,0.2-0.1,0.5-0.1,0.8c0,0.4,0,0.8,0,1.3
		c0,0.1,0,0.2,0,0.2c0,0-0.1,0.1-0.1,0.1c0,0,0,0,0,0c-0.2,0-0.4,0-0.7,0c-0.1,0-0.1-0.1-0.1-0.1c0-0.1,0-0.1,0-0.2
		c0-0.2,0-0.4,0-0.6C55.8,36.4,55.8,36.1,55.8,35.9L55.8,35.9z"/>
	<path class="st7" d="M101.7,35.8c0-0.5,0-0.9,0-1.4c0-0.1,0-0.2,0-0.2c0-0.1,0.1-0.1,0.1-0.1c0.2,0,0.4,0,0.6,0c0,0,0.1,0,0.1,0.1
		c0,0,0,0.1,0,0.1c0,0,0.1,0.1,0.1,0.1c0.1-0.1,0.2-0.1,0.3-0.2c0.1-0.1,0.2-0.1,0.3-0.1c0.2-0.1,0.6-0.1,0.8,0
		c0.1,0,0.3,0.1,0.4,0.2c0.1,0.1,0.1,0.1,0.2,0.2c0,0,0.1,0,0.1,0c0.1,0,0.2-0.1,0.3-0.2c0.1-0.1,0.2-0.1,0.3-0.2s0.2-0.1,0.3-0.1
		c0.1,0,0.2,0,0.3,0c0.1,0,0.2,0,0.4,0.1c0.2,0.1,0.4,0.3,0.5,0.5c0,0.1,0.1,0.2,0.1,0.3c0,0.1,0,0.3,0,0.4c0,0.7,0,1.4,0,2.1
		c0,0.1,0,0.1,0,0.2c0,0,0,0-0.1,0.1c0,0,0,0,0,0c-0.2,0-0.4,0-0.7,0c-0.1,0-0.1-0.1-0.1-0.1c0,0,0-0.1,0-0.1c0-0.1,0-0.3,0-0.4
		c0-0.5,0-1,0-1.5c0-0.2,0-0.3,0-0.5c0-0.2-0.2-0.3-0.4-0.3c-0.1,0-0.2,0-0.3,0c-0.1,0-0.2,0.1-0.3,0.2c-0.1,0.1-0.1,0.3-0.2,0.4
		c0,0.2,0,0.3,0,0.5c0,0.5,0,0.9,0,1.4c0,0.1,0,0.2,0,0.2c0,0,0,0-0.1,0.1c0,0,0,0,0,0c-0.2,0-0.5,0-0.7,0c0,0-0.1-0.1-0.1-0.1
		c0,0,0-0.1,0-0.1c0-0.1,0-0.3,0-0.4c0-0.4,0-0.8,0-1.3c0-0.1,0-0.3,0-0.4c0-0.1,0-0.3-0.1-0.4c0-0.1-0.1-0.2-0.2-0.2
		c-0.2-0.1-0.3,0-0.5,0c-0.2,0.1-0.3,0.2-0.3,0.4c-0.1,0.2-0.1,0.4-0.1,0.7c0,0.5,0,1,0,1.5c0,0.1,0,0.2,0,0.2c0,0,0,0-0.1,0.1
		c0,0,0,0,0,0c-0.2,0-0.4,0-0.7,0c-0.1,0-0.1-0.1-0.1-0.1c0,0,0-0.1,0-0.1c0-0.1,0-0.2,0-0.3C101.7,36.6,101.7,36.2,101.7,35.8
		L101.7,35.8z"/>
	<path class="st4" d="M80.7,27.8c0,0.4,0,0.9,0,1.3c0,0.2,0,0.3,0,0.5c0,0.2-0.1,0.4-0.2,0.6c-0.1,0.2-0.2,0.3-0.4,0.4
		c-0.2,0.1-0.4,0.2-0.6,0.2c-0.2,0-0.4,0.1-0.6,0.1c-0.2,0-0.5-0.1-0.7-0.1c-0.1,0-0.2,0-0.3-0.1c-0.3-0.1-0.5-0.4-0.6-0.7
		c0-0.1,0-0.2,0-0.3c0,0,0-0.1,0.1-0.1c0.1,0,0.1,0,0.2,0c0.2,0,0.5,0.1,0.7,0.1c0,0,0.1,0,0.1,0.1c0,0,0.1,0.1,0.1,0.1
		c0.1,0.1,0.2,0.1,0.3,0.2c0.2,0,0.3,0,0.5,0c0.3-0.1,0.4-0.2,0.4-0.5c0-0.2,0-0.3,0-0.5c0,0,0,0,0,0c0,0,0,0,0,0s0,0,0,0
		c-0.1,0.1-0.1,0.1-0.2,0.2c-0.1,0.1-0.2,0.1-0.3,0.2c-0.1,0-0.1,0-0.2,0c-0.2,0-0.3,0-0.5,0c-0.2,0-0.4-0.1-0.6-0.2
		c-0.3-0.3-0.5-0.6-0.6-1c0-0.1,0-0.2,0-0.2c0-0.2,0-0.3,0-0.5c0-0.1,0-0.2,0-0.2c0-0.4,0.2-0.7,0.5-1c0,0,0.1-0.1,0.1-0.1
		c0.1-0.1,0.2-0.1,0.4-0.2c0.2-0.1,0.5-0.1,0.7-0.1c0.2,0,0.3,0.1,0.5,0.2c0.1,0.1,0.2,0.1,0.3,0.2c0,0,0.1,0,0.1,0
		c0-0.1,0-0.1,0-0.2c0,0,0.1-0.1,0.1-0.1c0.2,0,0.4,0,0.6,0c0.1,0,0.1,0.1,0.1,0.1c0,0,0,0.1,0,0.1c0,0.1,0,0.2,0,0.3
		C80.7,26.9,80.7,27.3,80.7,27.8L80.7,27.8z M79.8,27.5c0-0.1,0-0.2,0-0.4c0-0.1-0.1-0.3-0.2-0.4c-0.1-0.2-0.3-0.3-0.6-0.3
		c-0.1,0-0.2,0-0.2,0c-0.1,0-0.1,0-0.2,0.1c-0.2,0.2-0.3,0.4-0.4,0.6c0,0.2,0,0.5,0,0.7c0,0.2,0.1,0.3,0.2,0.5
		c0.1,0.2,0.3,0.2,0.5,0.2c0.1,0,0.1,0,0.2,0c0,0,0.1,0,0.1,0c0.1-0.1,0.2-0.1,0.3-0.3c0.1-0.1,0.2-0.3,0.2-0.4
		C79.8,27.8,79.8,27.7,79.8,27.5z"/>
	<path class="st5" d="M66.8,6.6c0-0.6,0-1.2,0-1.8c0-0.1-0.1-0.1-0.1-0.1c-0.1,0-0.2,0-0.2,0c0,0-0.1,0-0.1,0c0,0-0.1-0.1-0.1-0.1
		c0,0,0-0.1,0-0.1c0-0.2,0-0.5,0-0.8c0-0.1,0.1-0.1,0.1-0.1c0.1,0,0.1,0,0.2,0c0.1,0,0.1,0,0.2,0c0,0,0.1-0.1,0.1-0.1
		c0-0.2,0-0.4,0-0.6c0-0.3,0-0.6,0-0.8c0-0.1,0.1-0.1,0.1-0.1c0.3,0,0.7,0,1,0C68,1.9,68,2,68,2c0,0.1,0,0.1,0,0.2
		c0,0.4,0,0.7,0,1.1c0,0.1,0,0.1,0,0.2c0,0,0.1,0.1,0.1,0.1c0.2,0,0.3,0,0.5,0c0,0,0.1,0.1,0.1,0.1c0,0,0,0,0,0c0,0.3,0,0.5,0,0.8
		c0,0.1-0.1,0.1-0.1,0.1c-0.1,0-0.2,0-0.2,0c-0.1,0-0.2,0-0.3,0c0,0,0,0-0.1,0.1c0,0.1,0,0.2,0,0.2c0,1,0,2.1,0,3.1
		c0,0.1,0,0.3,0,0.4c0,0,0,0.1-0.1,0.1c0,0,0,0,0,0c-0.3,0-0.7,0-1,0c0,0-0.1-0.1-0.1-0.1c0-0.1,0-0.1,0-0.2c0-0.3,0-0.5,0-0.8
		C66.8,7.2,66.8,6.9,66.8,6.6L66.8,6.6z"/>
	<path class="st5" d="M164.8,6.6c0-0.6,0-1.2,0-1.8c0,0,0-0.1,0-0.1c0,0,0,0,0,0c-0.1,0-0.3,0-0.4,0c0,0,0,0-0.1-0.1c0,0,0,0,0,0
		c0-0.3,0-0.6,0-0.8c0-0.1,0.1-0.1,0.1-0.1c0.1,0,0.2,0,0.4,0c0,0,0.1,0,0.1-0.1c0-0.1,0-0.2,0-0.4c0-0.4,0-0.7,0-1.1
		c0,0,0-0.1,0.1-0.1c0.2,0,0.8,0,1,0c0,0,0.1,0.1,0.1,0.1c0,0.1,0,0.2,0,0.2c0,0.4,0,0.7,0,1.1c0,0,0,0.1,0,0.1c0,0,0,0.1,0.1,0.1
		c0.1,0,0.3,0,0.4,0c0,0,0.1,0,0.1,0c0,0,0,0,0.1,0.1c0,0,0,0,0,0c0,0.3,0,0.7,0,0.8c0,0-0.1,0.1-0.1,0.1c0,0-0.1,0-0.1,0
		c-0.1,0-0.2,0-0.4,0c0,0-0.1,0.1-0.1,0.1c0,0.1,0,0.2,0,0.3c0,1,0,2,0,3c0,0.1,0,0.2,0,0.4c0,0,0,0.1-0.1,0.1c-0.1,0-0.1,0-0.2,0
		c-0.3,0-0.5,0-0.8,0c-0.1,0-0.1,0-0.1-0.1c0-0.1,0-0.2,0-0.3C164.8,7.6,164.8,7.1,164.8,6.6C164.8,6.6,164.8,6.6,164.8,6.6z"/>
	<path class="st5" d="M54.5,1.9c0.2,0,0.3,0,0.5,0c0,0,0.1,0,0.1,0.1c0,0.2,0,0.5,0,0.7c0,0.3,0,0.5,0,0.8c0,0,0,0.1,0.1,0.1
		c0.1,0,0.3,0,0.4,0c0,0,0.1,0,0.1,0c0,0,0,0,0.1,0.1c0,0,0,0,0,0c0,0.3,0,0.7,0,0.8c0,0-0.1,0.1-0.1,0.1c0,0-0.1,0-0.1,0
		c-0.1,0-0.3,0-0.4,0c0,0-0.1,0.1-0.1,0.1c0,0.1,0,0.2,0,0.3c0,1,0,2,0,3.1c0,0.1,0,0.2,0,0.3c0,0-0.1,0.1-0.1,0.1c-0.3,0-0.7,0-1,0
		c0,0-0.1,0-0.1-0.1c0-0.1,0-0.2,0-0.3c0-1,0-2,0-3.1c0-0.1,0-0.2,0-0.3c0,0-0.1-0.1-0.1-0.1c-0.1,0-0.2,0-0.4,0
		c0,0-0.1-0.1-0.1-0.1c0,0,0-0.1,0-0.1c0-0.2,0-0.5,0-0.7c0-0.1,0.1-0.1,0.1-0.1c0.1,0,0.2,0,0.2,0c0,0,0.1,0,0.1,0
		c0,0,0.1,0,0.1-0.1c0-0.1,0-0.2,0-0.2c0-0.4,0-0.8,0-1.2c0,0,0-0.1,0.1-0.1c0,0,0.1,0,0.1,0C54.2,1.9,54.4,1.9,54.5,1.9
		C54.5,1.9,54.5,1.9,54.5,1.9z"/>
	<path class="st2" d="M120.2,24.5c0.4,0,0.7,0,1.1,0c0.1,0,0.3,0,0.4,0.1c0.2,0.1,0.3,0.2,0.5,0.3c0.1,0.1,0.2,0.2,0.2,0.3
		c0.1,0.2,0.1,0.3,0.1,0.5c0,0.1,0,0.3,0,0.4c0,0.3-0.1,0.6-0.4,0.9c-0.1,0.1-0.1,0.1-0.2,0.2c-0.2,0.1-0.4,0.2-0.6,0.2
		c-0.2,0-0.4,0.1-0.6,0.1c-0.3,0-0.5,0-0.8,0c0,0-0.1,0-0.1,0c0,0-0.1,0-0.1,0.1c0,0.1,0,0.1,0,0.2c0,0.4,0,0.8,0,1.1
		c0,0.1,0,0.2,0,0.3c0,0.1-0.1,0.1-0.1,0.1c-0.2,0-0.5,0-0.7,0c-0.1,0-0.1-0.1-0.1-0.1c0-0.1,0-0.2,0-0.3c0-1.3,0-2.7,0-4
		c0-0.1,0-0.2,0-0.3c0,0,0-0.1,0.1-0.1c0,0,0.1,0,0.1,0c0.1,0,0.2,0,0.3,0C119.6,24.5,119.9,24.5,120.2,24.5
		C120.2,24.5,120.2,24.5,120.2,24.5z M119.8,26C119.8,26,119.8,26,119.8,26c0,0.1,0,0.3,0,0.4c0,0,0,0.1,0,0.1
		c0,0.1,0.1,0.2,0.1,0.2c0.3,0,0.6,0,0.9,0c0.1,0,0.2-0.1,0.4-0.1c0.1-0.1,0.2-0.2,0.3-0.3c0-0.1,0-0.1,0-0.2c0,0,0-0.1,0-0.1
		c0-0.2-0.1-0.4-0.3-0.5c0,0-0.1,0-0.1,0c-0.1,0-0.3-0.1-0.4-0.1c-0.2,0-0.5,0-0.8,0c-0.1,0-0.2,0.1-0.2,0.2
		C119.8,25.6,119.8,25.8,119.8,26z"/>
	<path class="st7" d="M80.4,37.6c-0.1,0-0.2,0-0.3,0c-0.2,0-0.3,0-0.3-0.3c-0.2-0.6-0.5-1.3-0.7-2c-0.3-0.7-0.5-1.5-0.8-2.2
		c0-0.1-0.1-0.2-0.1-0.4c0-0.1,0-0.2,0.1-0.2c0,0,0,0,0,0c0.2,0,0.4,0,0.7,0c0.1,0,0.2,0.1,0.2,0.2c0.2,0.6,0.4,1.2,0.6,1.7
		c0.2,0.5,0.3,0.9,0.5,1.4c0,0,0,0.1,0.1,0.1c0,0,0,0,0,0c0,0,0,0,0,0c0.1-0.1,0.1-0.2,0.1-0.3c0.2-0.5,0.3-1,0.5-1.5
		c0.2-0.5,0.3-0.9,0.5-1.4c0,0,0-0.1,0-0.1c0-0.1,0.1-0.2,0.2-0.2c0.3,0,0.5,0,0.8,0c0,0,0,0,0,0c0,0,0.1,0,0,0.1
		c0,0.1,0,0.2-0.1,0.3c-0.2,0.5-0.4,1-0.6,1.6c-0.3,0.9-0.6,1.7-0.9,2.6c0,0.1-0.1,0.2-0.1,0.3c0,0.1-0.1,0.1-0.2,0.1
		C80.7,37.6,80.5,37.6,80.4,37.6L80.4,37.6z"/>
	<path class="st8" d="M58.7,6.6c0-0.6,0-1.2,0-1.8c0,0-0.1-0.1-0.1-0.1c0,0-0.1,0-0.1,0c-0.1,0-0.2,0-0.2,0c-0.1,0-0.1-0.1-0.1-0.1
		c0-0.3,0-0.5,0-0.8c0-0.1,0.1-0.1,0.2-0.1c0.1,0,0.2,0,0.2,0c0,0,0.1,0,0.1,0c0,0,0.1-0.1,0.1-0.1c0-0.2,0-0.3,0-0.5
		c0-0.3,0-0.7,0-1c0,0,0,0,0.1-0.1c0,0,0,0,0,0c0.3,0,0.6,0,0.9,0c0,0,0.1,0,0.1,0c0,0,0,0.1,0,0.1c0,0.1,0,0.1,0,0.2
		c0,0.4,0,0.7,0,1.1c0,0.1,0,0.1,0,0.2c0,0,0,0.1,0.1,0.1c0.1,0,0.2,0,0.4,0c0,0,0.1,0,0.1,0c0,0,0.1,0.1,0.1,0.1c0,0,0,0,0,0
		c0,0.3,0,0.5,0,0.8c0,0.1-0.1,0.1-0.1,0.1c-0.1,0-0.1,0-0.2,0c-0.1,0-0.2,0-0.3,0c0,0-0.1,0-0.1,0.1c0,0.1,0,0.2,0,0.3
		c0,0.8,0,1.5,0,2.3c0,0.4,0,0.8,0,1.1c0,0.1-0.1,0.2-0.1,0.2c-0.3,0-0.7,0-1,0c0,0-0.1,0-0.1-0.1c0-0.1,0-0.2,0-0.2
		C58.8,7.7,58.8,7.2,58.7,6.6C58.8,6.6,58.7,6.6,58.7,6.6z"/>
	<path class="st4" d="M150.6,29.4c-0.1,0-0.2,0-0.3,0c-0.1,0-0.2-0.1-0.2-0.2c0-0.1-0.1-0.2-0.1-0.3c-0.1-0.1-0.1-0.3-0.2-0.4
		c-0.4-1.2-0.8-2.3-1.2-3.5c0-0.1-0.1-0.2-0.1-0.4c0,0,0-0.1,0-0.1c0,0,0.1,0,0.1,0c0.3,0,0.5,0,0.8,0c0.1,0,0.1,0,0.1,0.1
		c0,0.1,0,0.1,0.1,0.2c0.3,0.9,0.6,1.8,0.9,2.8c0,0.1,0.1,0.2,0.1,0.3c0,0,0,0,0.1,0c0,0,0.1,0,0.1-0.1c0-0.1,0.1-0.2,0.1-0.3
		c0.1-0.4,0.3-0.8,0.4-1.2c0.2-0.5,0.3-1,0.5-1.4c0-0.1,0.1-0.2,0.1-0.3c0-0.1,0.1-0.1,0.1-0.1c0.3,0,0.5,0,0.8,0
		c0,0,0.1,0.1,0.1,0.1c0,0,0,0.1,0,0.1c-0.1,0.3-0.2,0.5-0.3,0.8c-0.3,0.9-0.6,1.7-0.9,2.6c-0.1,0.4-0.3,0.7-0.4,1.1
		c0,0.1-0.1,0.1-0.2,0.1c0,0-0.1,0-0.1,0C150.8,29.4,150.7,29.4,150.6,29.4L150.6,29.4z"/>
	<path class="st4" d="M88.4,27.2c0-0.3,0-0.7,0-1c0-0.1,0-0.1,0-0.2c0,0,0.1-0.1,0.1-0.1c0,0,0,0,0,0c0.2,0,0.4,0,0.7,0
		c0.1,0,0.1,0.1,0.1,0.1c0,0.1,0,0.2,0,0.3c0,0.4,0,0.9,0,1.3c0,0.2,0,0.3,0,0.5c0,0.1,0,0.1,0,0.2c0,0.2,0.1,0.3,0.3,0.4
		c0,0,0.1,0,0.1,0c0.1,0,0.1,0,0.2,0c0.1,0,0.2,0,0.2-0.1c0.2-0.1,0.3-0.2,0.3-0.3c0.1-0.1,0.1-0.2,0.1-0.4c0-0.2,0-0.4,0-0.6
		c0-0.4,0-0.9,0-1.3c0-0.1,0-0.1,0-0.2c0,0,0,0,0,0c0,0,0,0,0,0c0.2,0,0.5,0,0.8,0c0,0,0.1,0.1,0.1,0.1c0,0.1,0,0.2,0,0.2
		c0,0.4,0,0.7,0,1.1c0,0.1,0,0.1,0,0.2c0,0,0,0.1,0.1,0.1c0,0,0.1,0,0.1,0c0.1,0,0.3-0.1,0.4-0.2c0.1-0.1,0.2-0.2,0.2-0.4
		c0,0,0-0.1-0.1-0.1c0,0-0.1,0-0.1,0c0,0-0.1,0-0.1,0c-0.1,0-0.1-0.1-0.1-0.1c0-0.2,0-0.5,0-0.7c0,0,0.1-0.1,0.1-0.1c0,0,0,0,0,0
		c0.2,0,0.4,0,0.6,0c0.1,0,0.2,0.1,0.2,0.1c0,0.3,0,0.6,0,0.9c0,0.3-0.2,0.6-0.4,0.7c-0.1,0.1-0.2,0.1-0.3,0.2
		c-0.1,0-0.2,0.1-0.3,0.1c-0.1,0-0.1,0.1-0.1,0.2c0,0.3,0,0.6,0,0.8c0,0.1,0,0.2,0,0.3c0,0-0.1,0.1-0.1,0.1c-0.2,0-0.4,0-0.7,0
		c0,0-0.1-0.1-0.1-0.1c0-0.1,0-0.1,0-0.2c0,0-0.1-0.1-0.1,0c0,0-0.1,0.1-0.1,0.1c-0.1,0.1-0.3,0.2-0.4,0.2c-0.1,0-0.2,0.1-0.3,0.1
		c-0.2,0-0.3,0-0.5,0c-0.4,0-0.7-0.3-0.8-0.7c0-0.2-0.1-0.3-0.1-0.5c0,0,0-0.1,0-0.1C88.5,27.9,88.5,27.5,88.4,27.2
		C88.5,27.2,88.5,27.2,88.4,27.2z"/>
	<path class="st9" d="M47.5,5.3c0-1,0-2,0-3c0-0.1,0-0.2,0-0.3c0,0,0,0,0.1-0.1c0,0,0,0,0,0c0.3,0,0.7,0,1,0c0.1,0,0.1,0.1,0.1,0.1
		c0,0,0,0.1,0,0.1c0,0.1,0,0.2,0,0.3c0,1.9,0,3.8,0,5.7c0,0.1,0,0.3,0,0.4c0,0.1-0.1,0.1-0.1,0.1c-0.3,0-0.7,0-1,0
		c0,0-0.1,0-0.1-0.1c0,0,0-0.1,0-0.1c0-0.1,0-0.3,0-0.4C47.5,7.1,47.5,6.2,47.5,5.3L47.5,5.3z"/>
	<path class="st4" d="M123.4,27c0-0.7,0-1.4,0-2.1c0-0.1,0-0.2,0-0.2c0,0,0,0,0.1-0.1c0,0,0,0,0,0c0.2,0,0.4,0,0.7,0
		c0.1,0,0.1,0.1,0.1,0.2c0,0,0,0.1,0,0.1c0,0.2,0,0.4,0,0.6c0,0.2,0,0.5,0,0.7c0,0,0,0.1,0.1,0.1c0,0,0,0,0,0c0,0,0,0,0,0
		c0,0,0.1-0.1,0.1-0.1c0.1-0.1,0.3-0.2,0.5-0.2c0.1,0,0.1,0,0.2,0c0.1,0,0.1,0,0.2,0c0.2,0,0.4,0.1,0.6,0.2c0.2,0.1,0.3,0.3,0.4,0.5
		c0.1,0.2,0.1,0.3,0.1,0.5c0,0.1,0,0.2,0,0.3c0,0.6,0,1.2,0,1.8c0,0.1,0,0.2,0,0.2c0,0-0.1,0.1-0.1,0.1c0,0-0.1,0-0.1,0
		c-0.2,0-0.4,0-0.6,0c0,0-0.1,0-0.1,0c0,0-0.1-0.1-0.1-0.1c0-0.1,0-0.2,0-0.3c0-0.5,0-1,0-1.5c0-0.1,0-0.3,0-0.4
		c0-0.1,0-0.2-0.1-0.3c-0.1-0.2-0.2-0.2-0.4-0.3c-0.1,0-0.2,0-0.2,0c-0.2,0-0.4,0.1-0.5,0.3c-0.1,0.1-0.1,0.2-0.2,0.4
		c0,0.2,0,0.3,0,0.5c0,0.5,0,0.9,0,1.4c0,0.1,0,0.2,0,0.2c0,0-0.1,0.1-0.1,0.1c0,0,0,0,0,0c-0.2,0-0.4,0-0.7,0
		c-0.1,0-0.1-0.1-0.1-0.1c0,0,0-0.1,0-0.1c0-0.1,0-0.3,0-0.4C123.4,28.2,123.4,27.6,123.4,27L123.4,27z"/>
	<path class="st4" d="M58.1,26.9c0-0.6,0-1.3,0-1.9c0-0.1,0-0.3,0-0.4c0-0.1,0.1-0.1,0.1-0.1c0.2,0,0.5,0,0.7,0c0,0,0.1,0.1,0.1,0.1
		c0,0.1,0,0.2,0,0.2c0,0.4,0,0.7,0,1.1c0,0.1,0,0.1,0,0.2c0,0,0,0,0.1,0c0.1,0,0.1-0.1,0.2-0.1c0.1-0.1,0.2-0.1,0.4-0.2
		c0.2-0.1,0.3-0.1,0.5-0.1c0.2,0,0.5,0.1,0.7,0.2c0.1,0.1,0.2,0.2,0.3,0.3c0.1,0.2,0.2,0.4,0.2,0.6c0,0.1,0,0.2,0,0.2
		c0,0.7,0,1.4,0,2c0,0.1,0,0.1,0,0.2c0,0,0,0-0.1,0.1c0,0,0,0,0,0c-0.2,0-0.4,0-0.7,0c-0.1,0-0.1-0.1-0.1-0.1c0,0,0-0.1,0-0.1
		c0-0.1,0-0.3,0-0.4c0-0.4,0-0.9,0-1.3c0-0.1,0-0.3,0-0.4c0-0.2-0.2-0.4-0.4-0.4c-0.1,0-0.2,0-0.2,0c-0.2,0-0.3,0.1-0.4,0.2
		c0,0-0.1,0.1-0.1,0.1C59.1,27,59,27.2,59,27.4c0,0.1,0,0.3,0,0.4c0,0.4,0,0.8,0,1.3c0,0.1,0,0.2,0,0.2c0,0-0.1,0.1-0.1,0.1
		c0,0,0,0,0,0c-0.2,0-0.4,0-0.7,0c-0.1,0-0.1-0.1-0.1-0.1c0,0,0-0.1,0-0.1c0-0.1,0-0.3,0-0.4C58.1,28.1,58.1,27.5,58.1,26.9z"/>
	<path class="st3" d="M90.1,5.3c0,1,0,2,0,2.9c0,0.1,0,0.2,0,0.2c0,0-0.1,0.1-0.1,0.1c0,0,0,0,0,0c-0.3,0-0.6,0-0.9,0
		c-0.1,0-0.1-0.1-0.1-0.1c0,0,0-0.1,0-0.1c0-0.1,0-0.2,0-0.2c0-1.9,0-3.8,0-5.8c0-0.1,0-0.2,0-0.3c0-0.1,0-0.2,0.1-0.2
		c0.3,0,0.6,0,0.9,0c0.1,0,0.1,0.1,0.1,0.1c0,0,0,0.1,0,0.1c0,0.2,0,0.4,0,0.6C90.1,3.6,90.1,4.4,90.1,5.3z"/>
	<path class="st7" d="M116,27.8c0,0.2,0,0.5,0,0.7c0,0.2,0,0.4,0.1,0.6c0,0,0,0.1,0,0.1c0,0.1,0,0.1-0.1,0.1c-0.2,0-0.4,0-0.6,0
		c-0.1,0-0.2,0-0.2-0.1c0,0,0-0.1,0-0.1c-0.1-0.1-0.1-0.1-0.1,0c-0.1,0-0.1,0.1-0.2,0.1c-0.1,0.1-0.2,0.1-0.3,0.1
		c-0.1,0-0.2,0.1-0.3,0.1c-0.1,0-0.3,0-0.4,0c-0.2,0-0.4-0.1-0.6-0.2c-0.2-0.2-0.4-0.4-0.4-0.7c0-0.1,0-0.2,0-0.2
		c0-0.4,0.2-0.6,0.5-0.8c0.1-0.1,0.3-0.1,0.4-0.2c0.2,0,0.3-0.1,0.5-0.1c0.2,0,0.4-0.1,0.6-0.1c0,0,0.1,0,0.1-0.1
		c0.1,0,0.1-0.1,0.1-0.2c0-0.1,0-0.2-0.1-0.2c-0.1-0.1-0.1-0.2-0.3-0.2c-0.2,0-0.3,0-0.5,0c-0.1,0-0.2,0.1-0.2,0.1
		c-0.1,0.1-0.1,0.1-0.2,0.2c0,0-0.1,0.1-0.1,0.1c-0.2,0-0.4-0.1-0.6-0.1c0,0-0.1-0.1-0.1-0.1c0-0.1,0.1-0.2,0.1-0.3
		c0.2-0.2,0.4-0.4,0.7-0.5c0.2-0.1,0.4-0.1,0.6-0.1c0.1,0,0.3,0,0.4,0c0.2,0,0.4,0,0.6,0.1c0.2,0,0.3,0.1,0.4,0.2
		c0.1,0.1,0.2,0.2,0.2,0.3c0.1,0.2,0.1,0.4,0.1,0.7C116,27.3,116,27.6,116,27.8L116,27.8z M115.1,28.1
		C115.1,28.1,115.1,28.1,115.1,28.1c0-0.1,0-0.2,0-0.2c0,0-0.1-0.1-0.1-0.1s-0.1,0-0.1,0c-0.2,0-0.4,0.1-0.6,0.1
		c-0.1,0-0.1,0-0.2,0.1c-0.2,0.1-0.3,0.2-0.3,0.4c0,0.1,0,0.2,0.1,0.2c0.1,0.1,0.2,0.1,0.3,0.1c0.1,0,0.2,0,0.2,0
		c0.1,0,0.2,0,0.3-0.1c0.1,0,0.1-0.1,0.2-0.2C115,28.5,115.1,28.3,115.1,28.1C115.1,28.1,115.1,28.1,115.1,28.1z"/>
	<path class="st7" d="M71.6,36c0,0.3,0,0.5,0,0.8c0,0.2,0,0.3,0.1,0.5c0,0.1,0.1,0.2,0,0.3c0,0,0,0.1-0.1,0.1c0,0,0,0,0,0
		c-0.2,0-0.4,0-0.7,0c0,0-0.1,0-0.1,0c0-0.1-0.1-0.1-0.1-0.2c0,0-0.1-0.1-0.1,0c-0.1,0-0.2,0.1-0.2,0.1c-0.1,0.1-0.2,0.1-0.3,0.2
		c-0.1,0-0.1,0-0.2,0c-0.2,0-0.3,0-0.5,0c-0.4-0.1-0.7-0.3-0.9-0.6c0-0.1-0.1-0.1-0.1-0.2c0-0.1,0-0.2,0-0.3c0-0.1,0-0.2,0.1-0.4
		c0.1-0.2,0.3-0.4,0.5-0.5c0.2-0.1,0.4-0.2,0.7-0.2c0.2,0,0.4-0.1,0.6-0.1c0.1,0,0.2-0.1,0.3-0.1c0,0,0,0,0.1-0.1
		c0-0.1,0-0.3-0.1-0.4c0,0-0.1,0-0.1,0c-0.2-0.1-0.4-0.1-0.7,0c-0.1,0-0.1,0-0.2,0.1c-0.1,0.1-0.1,0.2-0.2,0.2c0,0-0.1,0.1-0.1,0
		c0,0-0.1,0-0.1,0c-0.2,0-0.4-0.1-0.6-0.1c0,0,0,0-0.1-0.1c0,0,0,0,0,0c0-0.2,0.1-0.3,0.2-0.4c0.2-0.3,0.5-0.4,0.8-0.4
		c0.3,0,0.6,0,0.9,0c0.3,0,0.6,0.2,0.8,0.4c0,0,0.1,0.1,0.1,0.2c0.1,0.2,0.1,0.3,0.1,0.5C71.6,35.4,71.6,35.7,71.6,36
		C71.6,36,71.6,36,71.6,36z M70.7,36.3C70.7,36.3,70.7,36.3,70.7,36.3C70.7,36.2,70.7,36.2,70.7,36.3c0-0.1,0-0.1,0-0.1
		c0-0.1-0.1-0.2-0.2-0.2c-0.2,0-0.5,0.1-0.7,0.2c-0.1,0-0.1,0-0.2,0.1c-0.1,0.1-0.1,0.1-0.2,0.2c0,0.1,0,0.2,0,0.3
		c0.1,0.2,0.2,0.2,0.4,0.3c0.2,0,0.4-0.1,0.5-0.2C70.6,36.7,70.7,36.6,70.7,36.3C70.7,36.3,70.7,36.3,70.7,36.3z"/>
	<path class="st7" d="M100.8,35.9c0,0.2,0,0.4,0,0.7c0,0.2,0,0.5,0.1,0.7c0,0.1,0,0.2,0.1,0.2c0,0,0,0.1-0.1,0.1c-0.2,0-0.5,0-0.7,0
		c0,0-0.1,0-0.1-0.1c0,0,0-0.1-0.1-0.1c0,0-0.1-0.1-0.1,0c-0.1,0-0.2,0.1-0.2,0.1c-0.1,0.1-0.2,0.1-0.3,0.1c-0.3,0.1-0.5,0.1-0.8,0
		c-0.2,0-0.4-0.1-0.6-0.3c-0.2-0.2-0.2-0.4-0.3-0.6c0-0.2,0-0.4,0.1-0.6c0.1-0.1,0.2-0.3,0.3-0.3c0.1-0.1,0.2-0.1,0.4-0.2
		c0.2,0,0.3-0.1,0.5-0.1c0.2,0,0.4-0.1,0.6-0.1c0.1,0,0.1,0,0.2-0.1c0,0,0.1-0.1,0.1-0.1c0-0.1,0-0.1,0-0.2c0-0.1-0.1-0.2-0.2-0.3
		c-0.2,0-0.3,0-0.5,0c-0.1,0-0.2,0.1-0.3,0.2c0,0,0,0-0.1,0.1c-0.1,0.1-0.2,0.1-0.3,0.1c-0.2,0-0.4-0.1-0.6-0.1c0,0-0.1-0.1-0.1-0.1
		c0.1-0.2,0.2-0.5,0.4-0.6c0,0,0.1-0.1,0.1-0.1c0.2-0.1,0.4-0.2,0.6-0.2c0.3,0,0.5,0,0.8,0c0.2,0,0.5,0.1,0.7,0.2
		c0.2,0.1,0.3,0.3,0.4,0.6c0,0.1,0,0.2,0,0.4C100.8,35.4,100.8,35.7,100.8,35.9L100.8,35.9z M99.9,36.3c0-0.1,0-0.1,0-0.2
		c0,0,0,0,0,0c0,0-0.1-0.1-0.1-0.1c0,0,0,0,0,0c-0.3,0-0.5,0.1-0.8,0.2c0,0-0.1,0-0.1,0.1c-0.2,0.2-0.2,0.4-0.1,0.5
		c0,0.1,0.1,0.1,0.2,0.2C99,37,99.1,37,99.2,37c0.2,0,0.4-0.1,0.6-0.2c0.1-0.1,0.1-0.2,0.1-0.3C99.9,36.4,99.9,36.4,99.9,36.3z"/>
	<path class="st7" d="M140.2,29.5c0,0-0.1,0-0.1,0c-0.2,0-0.4,0-0.6-0.1c-0.5-0.2-0.8-0.5-1-1c-0.1-0.2-0.1-0.4-0.1-0.6
		c0,0,0-0.1,0-0.1c0-0.5,0.2-0.9,0.5-1.2c0.1-0.1,0.3-0.2,0.4-0.3c0.2-0.1,0.5-0.2,0.8-0.2c0.1,0,0.2,0,0.3,0c0.4,0,0.7,0.1,1,0.3
		c0.4,0.3,0.6,0.6,0.7,1c0,0.1,0,0.2,0.1,0.3c0,0.5-0.1,0.9-0.3,1.3c-0.2,0.3-0.6,0.6-0.9,0.7c-0.1,0-0.1,0-0.2,0
		C140.4,29.5,140.3,29.5,140.2,29.5C140.2,29.5,140.2,29.5,140.2,29.5z M141,27.7c0-0.1,0-0.2,0-0.3c0-0.3-0.2-0.5-0.4-0.6
		c-0.1-0.1-0.3-0.2-0.4-0.2c-0.4,0-0.7,0.3-0.8,0.6c0,0.1,0,0.2-0.1,0.2c-0.1,0.3,0,0.7,0.1,1c0,0.1,0.1,0.2,0.2,0.3
		c0.1,0.1,0.2,0.1,0.3,0.2c0.1,0,0.2,0,0.4,0c0,0,0.1,0,0.1,0c0.2-0.1,0.3-0.2,0.4-0.4c0-0.1,0.1-0.2,0.1-0.3
		C141,27.9,141,27.8,141,27.7z"/>
	<path class="st7" d="M54.9,35.8c0,0.2,0,0.4,0,0.6c0,0.3,0,0.7,0.1,1c0,0,0,0,0,0c0,0,0,0.1,0,0.1c0,0-0.1,0-0.1,0
		c-0.2,0-0.4,0-0.7,0c-0.1,0-0.1,0-0.1-0.1c0,0,0-0.1-0.1-0.1c0,0-0.1,0-0.1,0c-0.1,0-0.1,0.1-0.2,0.1c-0.1,0.1-0.3,0.1-0.5,0.2
		c0,0-0.1,0-0.1,0c-0.1,0-0.2,0-0.3,0c-0.2,0-0.4-0.1-0.6-0.2c-0.2-0.1-0.3-0.3-0.4-0.5c0-0.1-0.1-0.3-0.1-0.4
		c0-0.4,0.2-0.7,0.5-0.8c0.1-0.1,0.3-0.1,0.4-0.1c0.3-0.1,0.6-0.1,0.9-0.2c0.1,0,0.2,0,0.3-0.1c0,0,0.1-0.1,0.1-0.1
		c0-0.1,0-0.2,0-0.3c0-0.1-0.1-0.1-0.2-0.1c-0.2,0-0.4-0.1-0.6,0c-0.1,0-0.1,0.1-0.2,0.1c-0.1,0.1-0.1,0.1-0.1,0.2
		c0,0.1-0.1,0.1-0.2,0.1c0,0,0,0,0,0c0,0-0.1,0-0.1,0c-0.1-0.1-0.3,0-0.5-0.1c0,0,0,0,0-0.1c0,0,0,0,0,0c0-0.2,0.1-0.3,0.2-0.5
		c0.2-0.2,0.5-0.4,0.8-0.4c0.3,0,0.7,0,1,0c0.2,0,0.5,0.1,0.6,0.3c0.2,0.1,0.3,0.3,0.3,0.5c0,0.1,0,0.3,0,0.4
		C54.9,35.4,54.9,35.6,54.9,35.8L54.9,35.8z M53.3,37c0.2,0,0.4-0.1,0.6-0.3c0,0,0.1-0.1,0.1-0.1c0.1-0.2,0.1-0.3,0.1-0.5
		c0,0,0,0,0,0c0-0.1-0.1-0.1-0.1-0.1c-0.3,0-0.5,0.1-0.8,0.2c-0.1,0-0.1,0-0.2,0.1c-0.2,0.1-0.2,0.4-0.1,0.5
		C52.9,36.9,53.1,37,53.3,37z"/>
	<path class="st4" d="M107.7,27.6c0,0.2,0,0.3,0,0.5c0,0.3,0,0.6,0.1,0.9c0,0.1,0.1,0.2,0.1,0.3c0,0,0,0.1-0.1,0.1c0,0,0,0,0,0
		c-0.2,0-0.4,0-0.6,0c-0.1,0-0.1,0-0.2-0.1c0,0,0-0.1-0.1-0.1c0,0-0.1-0.1-0.1,0c-0.1,0.1-0.2,0.1-0.3,0.2c-0.2,0.1-0.4,0.2-0.6,0.2
		c-0.1,0-0.2,0-0.3,0c-0.4,0-0.6-0.2-0.8-0.5c-0.1-0.2-0.2-0.5-0.1-0.7c0-0.1,0-0.2,0.1-0.2c0.1-0.1,0.1-0.2,0.3-0.3
		c0.1-0.1,0.3-0.2,0.4-0.2c0.2-0.1,0.5-0.1,0.7-0.2c0.2,0,0.4-0.1,0.6-0.1c0,0,0.1,0,0.1-0.1c0,0,0,0,0-0.1c0-0.1,0-0.2-0.1-0.3
		c-0.1-0.1-0.1-0.1-0.2-0.2c-0.2,0-0.4,0-0.6,0c-0.1,0-0.1,0-0.2,0.1c-0.1,0.1-0.1,0.1-0.2,0.2c0,0-0.1,0.1-0.1,0.1c0,0-0.1,0-0.1,0
		c-0.2,0-0.4-0.1-0.6-0.1c0,0,0,0,0-0.1c0,0,0-0.1,0-0.1c0-0.1,0.1-0.1,0.1-0.2c0.2-0.3,0.4-0.4,0.7-0.5c0.2-0.1,0.4-0.1,0.6-0.1
		c0.1,0,0.2,0,0.3,0c0.2,0,0.4,0,0.6,0.1c0.2,0.1,0.4,0.2,0.5,0.3c0.1,0.1,0.1,0.2,0.1,0.3c0,0.2,0,0.3,0,0.5
		C107.7,27.2,107.7,27.4,107.7,27.6C107.7,27.6,107.7,27.6,107.7,27.6z M106.8,28C106.8,28,106.8,27.9,106.8,28c0-0.1,0-0.1,0-0.1
		c0,0-0.1-0.1-0.1-0.1c-0.2,0-0.4,0.1-0.6,0.1c-0.1,0-0.2,0-0.3,0.1c-0.2,0.1-0.2,0.2-0.3,0.4c0,0.1,0,0.2,0.1,0.2
		c0.1,0.1,0.2,0.2,0.4,0.3c0.1,0,0.1,0,0.2,0c0.2,0,0.4-0.1,0.5-0.3c0,0,0,0,0-0.1C106.7,28.3,106.8,28.2,106.8,28z"/>
	<path class="st4" d="M70.7,29.5C70.7,29.5,70.7,29.5,70.7,29.5c-0.4,0-0.7-0.1-0.9-0.2c-0.4-0.2-0.7-0.5-0.8-0.9
		c-0.1-0.3-0.1-0.6-0.1-1c0.1-0.4,0.2-0.7,0.4-1c0.2-0.2,0.4-0.3,0.7-0.4c0.3-0.1,0.6-0.2,1-0.1c0.4,0.1,0.7,0.2,1,0.5
		c0.3,0.3,0.5,0.7,0.5,1.1c0,0.2,0,0.5,0,0.7c0,0.1,0,0.2-0.1,0.3c-0.1,0.3-0.3,0.6-0.6,0.7c-0.1,0-0.1,0.1-0.2,0.1
		c-0.2,0.1-0.5,0.2-0.8,0.2C70.9,29.5,70.8,29.5,70.7,29.5L70.7,29.5z M70.7,28.7c0.1,0,0.1,0,0.2,0c0,0,0.1,0,0.1,0
		c0.3-0.1,0.4-0.3,0.5-0.6c0-0.1,0-0.2,0-0.2c0-0.2,0-0.3,0-0.5c0-0.1,0-0.2-0.1-0.2c0,0,0-0.1,0-0.1c-0.1-0.2-0.3-0.4-0.6-0.5
		c-0.1,0-0.2,0-0.4,0c-0.3,0.1-0.4,0.2-0.6,0.5c0,0,0,0,0,0c0,0.2-0.1,0.4-0.1,0.6c0,0.2,0,0.4,0.1,0.6
		C70.1,28.5,70.3,28.7,70.7,28.7z"/>
	<path class="st8" d="M167.4,6.1c0-0.7,0-1.5,0-2.2c0-0.1,0-0.2,0-0.2c0,0,0-0.1,0.1-0.1c0,0,0,0,0,0c0.3,0,0.6,0,0.8,0
		c0,0,0.1,0,0.1,0.1c0,0,0,0.1,0,0.1c0,0,0.1,0.1,0.1,0c0.1,0,0.1-0.1,0.2-0.2c0.2-0.1,0.3-0.2,0.5-0.3c0.1,0,0.2,0,0.3,0
		c0,0,0,0,0.1,0.1c0,0,0,0,0,0c0,0.3,0,0.6,0,0.9c0,0,0,0.1-0.1,0.1c0,0-0.1,0-0.1,0c-0.1,0-0.2,0-0.3,0.1c-0.2,0.1-0.4,0.2-0.5,0.4
		c0,0.1-0.1,0.1-0.1,0.2c0,0.2-0.1,0.4-0.1,0.7c0,0.8,0,1.5,0,2.3c0,0.1,0,0.2,0,0.2c0,0,0,0.1-0.1,0.1c0,0,0,0,0,0
		c-0.3,0-0.6,0-0.9,0c0,0-0.1,0-0.1,0c0,0,0-0.1,0-0.1c0-0.1,0-0.2,0-0.3C167.4,7.5,167.4,6.8,167.4,6.1z"/>
	<path class="st4" d="M73.3,27.6c0-0.5,0-0.9,0-1.4c0-0.1,0-0.2,0-0.2c0-0.1,0.1-0.1,0.1-0.1c0.2,0,0.4,0,0.7,0c0,0,0.1,0.1,0.1,0.1
		c0,0.1,0,0.1,0,0.2c0,0,0.1,0.1,0.1,0c0.1-0.1,0.2-0.1,0.3-0.2c0.2-0.1,0.5-0.2,0.7-0.2c0.2,0,0.4,0,0.6,0.1c0.1,0,0.1,0.1,0.2,0.1
		c0.2,0.1,0.4,0.3,0.4,0.6c0,0.2,0.1,0.4,0.1,0.6c0,0.6,0,1.3,0,1.9c0,0.1,0,0.1,0,0.2c0,0.1-0.1,0.1-0.2,0.2c0,0-0.1,0-0.1,0
		c-0.2,0-0.4,0-0.6,0c-0.1,0-0.1-0.1-0.1-0.1c0-0.1,0-0.2,0-0.2c0-0.4,0-0.8,0-1.1c0-0.1,0-0.3,0-0.4c0-0.2,0-0.4-0.1-0.6
		c0-0.2-0.2-0.3-0.4-0.3c-0.1,0-0.1,0-0.2,0c-0.3,0-0.5,0.2-0.6,0.4c0,0.1,0,0.1,0,0.2c0,0.2,0,0.4,0,0.7c0,0.4,0,0.8,0,1.2
		c0,0.1,0,0.2,0,0.3c0,0.1-0.1,0.2-0.1,0.2c-0.2,0-0.4,0-0.7,0c-0.1,0-0.1-0.1-0.2-0.2c0,0,0-0.1,0-0.1c0-0.1,0-0.2,0-0.3
		C73.3,28.5,73.3,28.1,73.3,27.6L73.3,27.6z"/>
	<path class="st7" d="M86.9,36.1c-0.3,0-0.6,0-0.8,0c-0.1,0-0.1,0-0.2,0c0,0-0.1,0.1-0.1,0.1c0,0.1,0,0.2,0.1,0.4
		c0.1,0.1,0.2,0.2,0.3,0.3c0,0,0.1,0,0.1,0c0.2,0.1,0.3,0.1,0.5,0c0.1,0,0.1-0.1,0.2-0.1c0.1-0.1,0.1-0.2,0.2-0.2
		c0,0,0.1-0.1,0.1-0.1c0.2,0,0.4,0.1,0.6,0.1c0,0,0.1,0,0.1,0c0,0,0.1,0.1,0.1,0.1c0,0,0,0.1,0,0.1c-0.2,0.4-0.4,0.6-0.8,0.8
		c-0.2,0.1-0.3,0.1-0.5,0.1c-0.1,0-0.2,0-0.3,0c-0.3,0-0.6-0.1-0.8-0.3c-0.2-0.1-0.3-0.3-0.4-0.4c-0.1-0.2-0.2-0.4-0.2-0.6
		c0-0.2-0.1-0.4-0.1-0.6c0-0.2,0-0.5,0.1-0.7c0.1-0.4,0.3-0.7,0.6-0.9c0.2-0.2,0.5-0.3,0.8-0.3c0.1,0,0.2,0,0.3,0
		c0.2,0,0.3,0,0.5,0.1c0.4,0.1,0.6,0.4,0.8,0.7c0.1,0.3,0.2,0.5,0.2,0.8c0,0.1,0,0.3,0,0.4c0,0,0,0.1-0.1,0.1c0,0-0.1,0-0.1,0
		C87.6,36.1,87.2,36.1,86.9,36.1C86.9,36.1,86.9,36.1,86.9,36.1z M86.4,35.5L86.4,35.5c0.1,0,0.2,0,0.2,0c0.1,0,0.2,0,0.4,0
		c0,0,0.1-0.1,0.1-0.1c0-0.1,0-0.1,0-0.2c-0.1-0.3-0.2-0.4-0.5-0.5c-0.1,0-0.2,0-0.3,0c0,0-0.1,0-0.1,0c-0.1,0-0.1,0.1-0.2,0.1
		c-0.1,0.1-0.2,0.2-0.2,0.4c0,0,0,0.1,0,0.1c0,0,0,0.1,0,0.1c0,0,0.1,0,0.1,0C86.1,35.5,86.3,35.5,86.4,35.5z"/>
	<path class="st3" d="M124.4,6.1c0-0.6,0-1.3,0-1.9c0-0.1,0-0.2,0-0.3c0-0.2,0-0.3,0.2-0.3c0.2,0,0.4,0,0.7,0c0,0,0.1,0,0.1,0
		c0,0,0.1,0.1,0.1,0.1c0,0.1,0,0.1,0,0.2c0,0,0,0,0,0c0,0,0.1,0,0.1,0c0.1-0.1,0.1-0.1,0.2-0.2c0.1-0.1,0.3-0.2,0.5-0.2
		c0.1,0,0.2,0,0.3,0c0,0,0.1,0,0.1,0c0,0,0,0,0,0c0,0.3,0,0.7,0,1c0,0,0,0.1-0.1,0.1c-0.1,0-0.2,0-0.3,0.1c-0.3,0.1-0.5,0.3-0.6,0.5
		c0,0.1-0.1,0.1-0.1,0.2c0,0.2,0,0.4,0,0.6c0,0.7,0,1.5,0,2.2c0,0.1,0,0.2,0,0.3c0,0-0.1,0.1-0.1,0.1c-0.3,0-0.5,0-0.8,0
		c-0.1,0-0.2,0-0.2,0c0,0-0.1,0-0.1-0.1c0-0.1,0-0.2,0-0.2C124.4,7.5,124.4,6.8,124.4,6.1z"/>
	<path class="st4" d="M130.8,27.7c0,0.4,0,0.9,0,1.3c0,0.1,0,0.2,0,0.3c0,0-0.1,0.1-0.1,0.1c0,0-0.1,0-0.1,0c-0.2,0-0.3,0-0.5,0
		c-0.1,0-0.1-0.1-0.1-0.1c0-0.1,0-0.1-0.1-0.2c0,0-0.1-0.1-0.1,0c0,0-0.1,0-0.1,0.1c0,0-0.1,0.1-0.2,0.1c-0.2,0.1-0.4,0.2-0.7,0.2
		c-0.1,0-0.2,0-0.3,0c-0.3,0-0.6-0.2-0.8-0.4c-0.1-0.1-0.2-0.3-0.2-0.4c0-0.1,0-0.2,0-0.3c0-0.7,0-1.4,0-2.2c0,0,0-0.1,0-0.1
		c0,0,0,0,0.1-0.1c0,0,0,0,0,0c0.2,0,0.4,0,0.7,0c0.1,0,0.1,0.1,0.1,0.2c0,0,0,0.1,0,0.1c0,0.1,0,0.3,0,0.4c0,0.4,0,0.8,0,1.2
		c0,0.2,0,0.3,0,0.5c0,0.1,0.1,0.2,0.1,0.3c0,0,0.1,0.1,0.1,0.1c0.1,0,0.2,0.1,0.3,0.1c0,0,0.1,0,0.1,0c0,0,0.1,0,0.1,0
		c0.2,0,0.3-0.2,0.4-0.3c0,0,0-0.1,0-0.1c0-0.2,0.1-0.4,0.1-0.6c0-0.5,0-1,0-1.5c0-0.1,0-0.2,0-0.3c0,0,0.1-0.1,0.1-0.1c0,0,0,0,0,0
		c0.2,0,0.4,0,0.7,0c0.1,0,0.1,0.1,0.1,0.1c0,0.1,0,0.2,0,0.3C130.8,26.7,130.8,27.2,130.8,27.7z"/>
	<path class="st6" d="M49,35.6c0-0.6,0-1.2,0-1.7c0-0.1,0-0.1,0-0.2c0,0,0-0.1-0.1-0.1c0,0-0.1,0-0.1,0c-0.2,0-0.4,0-0.7,0
		c-0.1,0-0.3,0-0.4,0c-0.1,0-0.2-0.1-0.2-0.1c0-0.2,0-0.4,0-0.6c0-0.1,0.1-0.1,0.1-0.1c0.1,0,0.1,0,0.2,0c1.1,0,2.1,0,3.2,0
		c0.1,0,0.2,0,0.2,0c0,0,0.1,0.1,0.1,0.1c0,0,0,0.1,0,0.1c0,0.2,0,0.3,0,0.5c0,0-0.1,0.1-0.1,0.1c-0.1,0-0.1,0-0.2,0
		c-0.3,0-0.5,0-0.8,0c-0.1,0-0.2,0-0.2,0c-0.1,0-0.1,0.1-0.1,0.2c0,0.1,0,0.3,0,0.4c0,1,0,1.9,0,2.9c0,0.1,0,0.3,0,0.4
		c0,0,0,0.1,0,0.1c0,0,0,0.1-0.1,0.1c-0.2,0-0.6,0-0.8,0c0,0-0.1-0.1-0.1-0.1c0,0,0-0.1,0-0.1c0-0.1,0-0.3,0-0.4
		C49,36.5,49,36,49,35.6L49,35.6z"/>
	<path class="st8" d="M154.5,5.3c0-1,0-1.9,0-2.9c0-0.1,0-0.2,0-0.3c0,0,0,0,0,0c0,0,0,0,0,0c0.3,0,0.7,0,1,0c0,0,0,0,0.1,0.1
		c0,0,0,0,0,0c0,0.1,0,0.2,0,0.3c0,1.9,0,3.9,0,5.9c0,0.1,0,0.2,0,0.3c0,0,0,0,0,0c0,0,0,0,0,0c-0.3,0-0.7,0-1,0c0,0-0.1,0-0.1-0.1
		c0-0.1,0-0.2,0-0.3c0-0.9,0-1.7,0-2.6C154.5,5.5,154.5,5.4,154.5,5.3z"/>
	<path class="st7" d="M49,27.3c0-0.5,0-1,0-1.6c0-0.1,0-0.2,0-0.3c0-0.1-0.1-0.1-0.1-0.1c-0.1,0-0.1,0-0.2,0c-0.2,0-0.5,0-0.7,0
		c-0.1,0-0.2,0-0.3,0c0,0-0.1-0.1-0.1-0.1c0-0.2,0-0.4,0-0.6c0,0,0-0.1,0.1-0.1c0,0,0.1,0,0.1,0c0.1,0,0.2,0,0.2,0c1,0,2,0,3.1,0
		c0.1,0,0.1,0,0.2,0c0.1,0,0.2,0,0.2,0.2c0,0.2,0,0.3,0,0.5c0,0-0.1,0.1-0.1,0.1c-0.1,0-0.1,0-0.2,0c-0.3,0-0.6,0-0.8,0
		c-0.1,0-0.1,0-0.2,0c0,0-0.1,0.1-0.1,0.1c0,0.1,0,0.2,0,0.3c0,0.7,0,1.4,0,2.1c0,0.4,0,0.8,0,1.2c0,0.1,0,0.1,0,0.2
		c0,0,0,0.1-0.1,0.1c0,0-0.1,0-0.1,0c-0.2,0-0.4,0-0.7,0c0,0,0,0,0,0c-0.1,0-0.1-0.1-0.1-0.1c0-0.1,0-0.2,0-0.3
		C49,28.4,49,27.9,49,27.3L49,27.3z"/>
	<path class="st4" d="M53.9,27.6c0-0.4,0-0.9,0-1.3c0-0.1,0-0.2,0-0.3c0-0.1,0.1-0.1,0.1-0.1c0.2,0,0.4,0,0.6,0
		c0.1,0,0.1,0.1,0.1,0.1c0,0.1,0,0.1,0,0.2c0,0,0,0,0.1,0c0,0,0.1,0,0.1,0c0.1-0.1,0.1-0.1,0.2-0.2c0.3-0.2,0.6-0.3,1-0.2
		c0.2,0,0.3,0.1,0.4,0.1c0.2,0.1,0.3,0.2,0.4,0.4c0.1,0.2,0.1,0.3,0.1,0.5c0,0.1,0,0.2,0,0.3c0,0.6,0,1.3,0,1.9c0,0.1,0,0.2,0,0.2
		c0,0,0,0-0.1,0.1c0,0,0,0,0,0c-0.2,0-0.5,0-0.7,0c0,0-0.1-0.1-0.1-0.1c0,0,0-0.1,0-0.1c0-0.1,0-0.3,0-0.4c0-0.4,0-0.8,0-1.3
		c0-0.1,0-0.3,0-0.4c0-0.1,0-0.2-0.1-0.3c-0.1-0.2-0.2-0.3-0.4-0.3c0,0-0.1,0-0.1,0c-0.4,0-0.7,0.3-0.7,0.7c0,0.2,0,0.3,0,0.5
		c0,0.4,0,0.8,0,1.3c0,0.1,0,0.2,0,0.3c0,0-0.1,0.1-0.1,0.1c-0.2,0-0.4,0-0.7,0c-0.1,0-0.1-0.1-0.1-0.1c0,0,0-0.1,0-0.1
		c0-0.1,0-0.2,0-0.3C53.9,28.4,53.9,28,53.9,27.6z"/>
	<path class="st2" d="M154.5,27.3c0-0.5,0-1.1,0-1.6c0-0.1,0-0.2,0-0.2c0-0.1-0.1-0.2-0.2-0.2c-0.1,0-0.2,0-0.2,0
		c-0.3,0-0.5,0-0.8,0c-0.1,0-0.1,0-0.2,0c-0.1,0-0.1-0.1-0.1-0.1c0-0.2,0-0.3,0-0.5c0-0.1,0.1-0.1,0.1-0.1c0.1,0,0.1,0,0.2,0
		c1.1,0,2.2,0,3.3,0c0.1,0,0.2,0,0.2,0c0,0,0,0,0.1,0.1c0,0,0,0.1,0,0.1c0,0.2,0,0.3,0,0.5c0,0,0,0.1-0.1,0.1c0,0-0.1,0-0.1,0
		c-0.3,0-0.6,0-0.8,0c-0.1,0-0.2,0-0.2,0c-0.1,0-0.1,0.1-0.1,0.1c0,0.1,0,0.2,0,0.4c0,1,0,2,0,3c0,0.1,0,0.3,0,0.4
		c0,0.1-0.1,0.1-0.2,0.1c-0.2,0-0.4,0-0.7,0c-0.1,0-0.1-0.1-0.1-0.2c0,0,0-0.1,0-0.1c0-0.1,0-0.2,0-0.3
		C154.5,28.3,154.5,27.8,154.5,27.3z"/>
	<path class="st5" d="M81,6.1c0-0.8,0-1.5,0-2.3c0-0.1,0-0.1,0-0.2c0,0,0,0,0.1-0.1c0,0,0,0,0,0c0.3,0,0.6,0,0.9,0
		c0.1,0,0.1,0.1,0.1,0.1c0,0,0,0.1,0,0.1c0,0.1,0,0.2,0,0.3c0,1.3,0,2.6,0,3.9c0,0.1,0,0.3,0,0.4c0,0,0,0.1-0.1,0.1
		c-0.3,0-0.7,0-1,0c0,0-0.1,0-0.1-0.1s0-0.1,0-0.1c0-0.1,0-0.3,0-0.4C81,7.4,81,6.8,81,6.1L81,6.1z"/>
	<path class="st7" d="M94.2,27.6c0,0.1,0,0.3,0,0.4c0,0.1,0.1,0.2,0.1,0.4c0.1,0.2,0.3,0.3,0.5,0.3c0,0,0.1,0,0.1,0
		c0.2,0,0.4-0.1,0.5-0.3c0-0.1,0.1-0.2,0.1-0.3c0,0,0.1-0.1,0.1-0.1c0.2,0,0.4,0.1,0.6,0.1c0,0,0.1,0.1,0.1,0.1c0,0,0,0.1,0,0.1
		c-0.1,0.4-0.3,0.6-0.7,0.8c-0.2,0.1-0.3,0.2-0.5,0.2c-0.2,0-0.4,0-0.6,0c-0.3,0-0.6-0.1-0.8-0.3c-0.2-0.2-0.4-0.4-0.5-0.6
		c-0.1-0.2-0.2-0.6-0.2-0.9c0-0.3,0-0.5,0.1-0.7c0.1-0.4,0.4-0.8,0.8-1c0.2-0.1,0.4-0.2,0.7-0.2c0.1,0,0.2,0,0.3,0
		c0.2,0,0.4,0,0.6,0.1c0.3,0.1,0.5,0.3,0.6,0.5c0.1,0.1,0.1,0.2,0.2,0.4c0,0,0,0.1,0,0.1c-0.1,0-0.2,0.1-0.3,0.1
		c-0.2,0-0.3,0-0.5,0.1c0,0-0.1,0-0.1-0.1c0,0,0-0.1-0.1-0.1c-0.1-0.2-0.3-0.3-0.5-0.3c-0.1,0-0.2,0-0.3,0c-0.3,0.1-0.4,0.3-0.5,0.6
		C94.2,27.3,94.2,27.5,94.2,27.6z"/>
	<path class="st5" d="M157.9,6.1c0,0.7,0,1.4,0,2.1c0,0.1,0,0.2,0,0.3c0,0,0,0-0.1,0.1c0,0,0,0,0,0c-0.3,0-0.6,0-0.9,0
		c-0.1,0-0.1-0.1-0.1-0.1c0-0.1,0-0.2,0-0.2c0-1.5,0-2.9,0-4.3c0-0.1,0-0.2,0-0.2c0,0,0,0,0.1-0.1c0,0,0,0,0,0c0.3,0,0.7,0,1,0
		c0,0,0,0,0.1,0.1c0,0.1,0,0.2,0,0.2C157.9,4.6,157.9,5.4,157.9,6.1z"/>
	<path class="st5" d="M92.3,6.1c0,0.7,0,1.5,0,2.2c0,0.1,0,0.2,0,0.2c0,0.1-0.1,0.1-0.1,0.1c-0.3,0-0.7,0-1,0c0,0-0.1-0.1-0.1-0.1
		c0,0,0-0.1,0-0.1c0-0.1,0-0.2,0-0.2c0-1.4,0-2.8,0-4.2c0-0.1,0-0.2,0-0.3c0,0,0,0,0.1-0.1c0,0,0,0,0,0c0.3,0,0.6,0,0.9,0
		c0.1,0,0.1,0.1,0.1,0.1c0,0,0,0.1,0,0.1c0,0.1,0,0.2,0,0.3C92.3,4.8,92.3,5.4,92.3,6.1z"/>
	<path class="st5" d="M106.4,6.1c0-0.7,0-1.5,0-2.2c0-0.1,0-0.1,0-0.2c0,0,0,0,0.1-0.1c0,0,0,0,0,0c0.3,0,0.6,0,0.9,0
		c0.1,0,0.1,0.1,0.1,0.1c0,0,0,0.1,0,0.1c0,0.1,0,0.1,0,0.2c0,1.4,0,2.8,0,4.2c0,0.1,0,0.1,0,0.2c0,0.1,0,0.2-0.2,0.2
		c-0.1,0-0.3,0-0.4,0c-0.2,0-0.3,0-0.5,0c0,0-0.1,0-0.1,0c0,0,0-0.1,0-0.1c0-0.1,0-0.2,0-0.3C106.4,7.5,106.4,6.8,106.4,6.1
		L106.4,6.1z"/>
	<path class="st5" d="M170.1,6.1c0-0.7,0-1.4,0-2.1c0-0.1,0-0.2,0-0.2c0-0.1,0.1-0.1,0.1-0.1c0.3,0,0.6,0,0.9,0
		c0.1,0,0.1,0.1,0.1,0.1c0,0,0,0.1,0,0.1c0,0.1,0,0.1,0,0.2c0,1.4,0,2.8,0,4.2c0,0.1,0,0.2,0,0.3c0,0,0,0.1-0.1,0.1
		c-0.1,0-0.2,0-0.2,0c-0.3,0-0.5,0-0.8,0c-0.1,0-0.1,0-0.1-0.1c0-0.1,0-0.2,0-0.2C170.1,7.5,170.1,6.8,170.1,6.1z"/>
	<path class="st9" d="M106.1,18.2c-0.2,0-0.4,0-0.7,0c0,0-0.1-0.1-0.1-0.1c0-0.1,0-0.2,0-0.3c0.1-0.3,0.1-0.5,0.2-0.8
		c0.1-0.2,0.1-0.5,0.1-0.7c0.1-0.4,0.2-0.9,0.2-1.3c0.1-0.3,0.1-0.5,0.1-0.8c0-0.1,0-0.2,0.1-0.3c0,0,0,0,0.1,0c0,0,0.1,0,0.1,0
		c0.3,0,0.7,0,1,0c0.2,0,0.4,0,0.6,0.1c0.2,0.1,0.4,0.2,0.5,0.5c0,0,0,0.1,0,0.1c0,0.2,0,0.4,0,0.6c0,0.2-0.1,0.3-0.2,0.4
		c-0.1,0.1-0.2,0.2-0.2,0.2c0,0-0.1,0.1,0,0.1c0,0,0.1,0.1,0.1,0.1c0.1,0.1,0.2,0.2,0.2,0.3c0,0,0,0.1,0,0.1c0.1,0.3,0,0.7-0.2,1
		c-0.2,0.4-0.6,0.6-1,0.7c-0.2,0-0.4,0.1-0.6,0.1C106.4,18.2,106.3,18.2,106.1,18.2L106.1,18.2z M106.4,17.7
		C106.4,17.7,106.4,17.7,106.4,17.7c0.1,0,0.3,0,0.4,0c0.2,0,0.3,0,0.5-0.1c0.1,0,0.2-0.1,0.3-0.2c0.1-0.1,0.2-0.2,0.2-0.4
		c0.1-0.2,0.1-0.3,0-0.5c0,0,0,0,0,0c-0.1-0.1-0.2-0.2-0.3-0.3c-0.2,0-0.3-0.1-0.5-0.1c-0.2,0-0.4,0-0.7,0c0,0-0.1,0-0.1,0
		c0,0-0.1,0-0.1,0.1c0,0.1,0,0.2,0,0.2c-0.1,0.3-0.1,0.5-0.2,0.8c0,0.1,0,0.3-0.1,0.4c0,0,0,0,0,0c0,0,0.1,0,0.1,0
		C106.1,17.7,106.3,17.7,106.4,17.7z M107,14.3c-0.2,0-0.3,0-0.4,0c0,0-0.1,0-0.1,0.1c0,0.1-0.1,0.1-0.1,0.2c0,0.3-0.1,0.5-0.1,0.8
		c0,0.1,0,0.1,0,0.2c0,0.1,0,0.1,0.1,0.1c0.1,0,0.2,0,0.4,0c0.2,0,0.4,0,0.6-0.1c0.1,0,0.1,0,0.2-0.1c0.1-0.1,0.3-0.2,0.3-0.3
		c0.1-0.2,0.1-0.4,0.1-0.6c0,0,0-0.1-0.1-0.1c-0.1-0.1-0.2-0.2-0.4-0.2C107.3,14.3,107.2,14.3,107,14.3z"/>
	<path class="st10" d="M91.4,13.9c0.1,0,0.3,0,0.4,0c0.3,0,0.6,0,0.8,0.1c0.5,0.1,0.9,0.4,1.1,1c0.1,0.3,0.2,0.6,0.1,0.9
		c0,0.4-0.2,0.8-0.4,1.1c-0.3,0.4-0.7,0.8-1.2,1c-0.2,0.1-0.4,0.1-0.6,0.2c-0.3,0-0.6,0.1-0.9,0.1c-0.3,0-0.6,0-0.8,0
		c0,0-0.1-0.1-0.1-0.1c0-0.1,0-0.3,0-0.4c0-0.2,0-0.3,0.1-0.5c0-0.1,0.1-0.3,0.1-0.4c0-0.2,0.1-0.4,0.1-0.6c0.1-0.4,0.2-0.9,0.2-1.3
		c0.1-0.3,0.1-0.5,0.1-0.8c0,0,0-0.1,0.1-0.1c0,0,0,0,0.1-0.1c0,0,0.1,0,0.1,0C91,13.9,91.2,13.9,91.4,13.9L91.4,13.9z M90.7,16.1
		C90.7,16.1,90.7,16.1,90.7,16.1c0,0.1,0,0.2,0,0.2c0,0.2-0.1,0.5-0.1,0.7c0,0.2-0.1,0.4-0.1,0.6c0,0,0,0.1,0.1,0.1c0.3,0,0.7,0,1,0
		c0.3,0,0.5-0.1,0.8-0.2c0.1,0,0.1-0.1,0.2-0.1c0.2-0.2,0.4-0.4,0.6-0.6c0.2-0.3,0.3-0.5,0.3-0.8c0-0.1,0-0.1,0-0.2
		c0-0.1,0-0.1,0-0.2c0-0.1,0-0.1,0-0.2c0-0.2-0.1-0.4-0.3-0.6c0-0.1-0.1-0.1-0.2-0.2c-0.2-0.2-0.5-0.3-0.7-0.3c-0.4,0-0.7,0-1.1,0
		c0,0-0.1,0.1-0.1,0.1c0,0.1,0,0.1-0.1,0.2c0,0.2-0.1,0.5-0.1,0.7C90.8,15.6,90.7,15.8,90.7,16.1z"/>
	<path class="st8" d="M127.2,6.1c0-0.8,0-1.5,0-2.3c0-0.1,0-0.1,0-0.2c0,0,0-0.1,0.1-0.1c0,0,0,0,0,0c0.3,0,0.6,0,0.9,0
		c0,0,0.1,0.1,0.1,0.1c0,0.1,0,0.2,0,0.3c0,1.4,0,2.8,0,4.2c0,0.1,0,0.2,0,0.2c0,0,0,0.1,0,0.1c0,0,0,0.1-0.1,0.1c-0.2,0-0.8,0-1,0
		c0,0-0.1-0.1-0.1-0.1c0,0,0-0.1,0-0.1c0-0.2,0-0.4,0-0.6C127.2,7.2,127.2,6.6,127.2,6.1L127.2,6.1z"/>
	<path class="st8" d="M57.6,6.1c0,0.7,0,1.4,0,2.1c0,0.1,0,0.2,0,0.3c0,0,0,0-0.1,0.1c0,0,0,0,0,0c-0.3,0-0.7,0-1,0
		c0,0-0.1,0-0.1-0.1c0-0.1,0-0.2,0-0.2c0-0.6,0-1.1,0-1.7c0-0.9,0-1.8,0-2.7c0-0.1,0-0.1,0-0.2c0,0,0,0,0.1-0.1c0,0,0.1,0,0.1,0
		c0.3,0,0.6,0,0.8,0c0.1,0,0.1,0.1,0.2,0.1c0,0.1,0,0.2,0,0.3C57.6,4.8,57.6,5.4,57.6,6.1z"/>
	<path class="st8" d="M153.5,6.1c0,0.8,0,1.6,0,2.4c0,0,0,0.1,0,0.1c0,0,0,0,0,0c0,0-0.1,0-0.1,0c-0.3,0-0.6,0-0.9,0
		c-0.1,0-0.1,0-0.1-0.1c0-0.1,0-0.2,0-0.2c0-1.5,0-2.9,0-4.3c0-0.1,0-0.2,0-0.2c0,0,0,0,0.1-0.1c0,0,0,0,0,0c0.3,0,0.6,0,0.9,0
		c0,0,0.1,0.1,0.1,0.1c0,0.1,0,0.1,0,0.2C153.5,4.6,153.5,5.3,153.5,6.1C153.5,6.1,153.5,6.1,153.5,6.1z"/>
	<path class="st7" d="M90.5,34.5c0,0.1,0,0.1,0,0.2s-0.1,0.1-0.2,0.2c-0.1,0-0.3,0-0.4,0c0,0-0.1,0.1-0.1,0.1c0,0,0,0,0,0
		c0,0,0,0.1,0,0.1c0,0.5,0,0.9,0,1.4c0,0.1,0,0.1,0,0.2c0,0.1,0.2,0.2,0.3,0.2c0.1,0,0.2-0.1,0.3,0c0,0,0.1,0,0.1,0.1c0,0,0,0,0,0
		c0,0.2,0,0.3,0,0.5c0,0.1-0.1,0.1-0.1,0.2c-0.1,0-0.1,0-0.2,0.1c-0.2,0-0.4,0-0.7,0c-0.1,0-0.3-0.1-0.4-0.2c-0.1,0-0.1-0.1-0.2-0.2
		c-0.1-0.1-0.1-0.2-0.1-0.4c0-0.2,0-0.3,0-0.5c0-0.4,0-0.9,0-1.3c0-0.1,0-0.2,0-0.2c0,0-0.1-0.1-0.1-0.1c-0.1,0-0.2,0-0.2,0
		c0,0-0.1,0-0.1-0.1c0-0.2,0-0.3,0-0.5c0-0.1,0.1-0.1,0.1-0.1c0,0,0.1,0,0.1,0c0.2,0,0.2-0.1,0.2-0.3c0-0.1,0-0.2,0-0.4
		c0,0,0-0.1,0-0.1c0,0,0,0,0.1-0.1c0,0,0.1-0.1,0.1-0.1c0.2-0.1,0.3-0.2,0.5-0.3c0.1-0.1,0.2,0,0.2,0.1c0,0.1,0,0.2,0,0.3
		c0,0.2,0,0.3,0,0.5c0,0,0,0.1,0,0.1c0,0,0,0.1,0.1,0.1c0,0,0.1,0,0.1,0c0.1,0,0.2,0,0.3,0c0,0,0.1,0.1,0.1,0.1
		C90.5,34.3,90.5,34.4,90.5,34.5z"/>
	<path class="st10" d="M81.4,16.8c0-0.3,0.1-0.6,0.2-0.9c0.2-0.4,0.6-0.8,1.1-0.9c0.3-0.1,0.6-0.2,0.9-0.1c0.2,0,0.5,0.1,0.7,0.3
		c0,0,0.1,0.1,0.1,0.1c0,0,0.1,0,0.1,0c0,0,0-0.1,0-0.1c0-0.1,0-0.2,0-0.3c0.1-0.3,0.1-0.6,0.2-1c0,0,0.1-0.1,0.1-0.1
		c0.1,0,0.2,0,0.2,0c0.1,0,0.1,0.1,0.1,0.1c0,0.2-0.1,0.4-0.1,0.6c-0.1,0.4-0.1,0.8-0.2,1.3c-0.1,0.4-0.2,0.9-0.2,1.3
		c-0.1,0.3-0.1,0.6-0.2,0.9c0,0.1-0.1,0.1-0.2,0.2c0,0-0.1,0-0.1,0c-0.1,0-0.1-0.1-0.1-0.1c0-0.1,0-0.1,0-0.2c0,0,0,0-0.1,0
		c0,0-0.1,0-0.1,0c-0.1,0.1-0.2,0.1-0.3,0.2c-0.3,0.2-0.6,0.2-1,0.2c0,0-0.1,0-0.1,0c-0.5-0.1-0.9-0.4-1-0.8
		c-0.1-0.1-0.1-0.3-0.1-0.4C81.4,17,81.4,16.9,81.4,16.8z M82.9,17.8c0.3,0,0.4,0,0.6-0.1c0.5-0.2,0.8-0.6,0.9-1.1
		c0-0.2,0-0.3,0-0.5c0-0.1,0-0.2-0.1-0.2c-0.1-0.3-0.3-0.5-0.6-0.5c-0.1,0-0.1,0-0.2,0c-0.1,0-0.1,0-0.2,0c-0.3,0-0.5,0.1-0.8,0.2
		c-0.4,0.2-0.6,0.6-0.7,1c0,0.2,0,0.4,0,0.6c0,0.1,0,0.1,0.1,0.2c0.2,0.3,0.4,0.5,0.8,0.5C82.8,17.8,82.9,17.8,82.9,17.8z"/>
	<path class="st11" d="M76.8,16.8c-0.4,0-0.7,0-1.1,0c-0.1,0-0.2,0-0.2,0c-0.1,0-0.1,0.1-0.1,0.1c0,0.2,0.1,0.5,0.2,0.6
		c0.1,0.1,0.3,0.2,0.4,0.3c0,0,0,0,0,0c0.2,0,0.4,0,0.7,0c0.3-0.1,0.5-0.2,0.7-0.5c0.1-0.1,0.1-0.1,0.2-0.2c0,0,0.1,0,0.1,0
		c0.1,0,0.2,0,0.3,0c0,0,0.1,0.1,0.1,0.1c-0.1,0.2-0.2,0.3-0.3,0.4c-0.2,0.2-0.5,0.4-0.8,0.5c-0.2,0.1-0.4,0.1-0.6,0.1
		c-0.1,0-0.1,0-0.2,0c-0.5-0.1-0.8-0.3-1-0.7c-0.1-0.2-0.1-0.4-0.1-0.5c0,0,0-0.1,0-0.1c0-0.3,0.1-0.6,0.3-0.9
		c0.3-0.4,0.6-0.7,1.1-0.9c0.3-0.1,0.6-0.2,0.9-0.1c0.2,0,0.4,0.1,0.6,0.3c0.4,0.3,0.7,1,0.5,1.5c0,0-0.1,0.1-0.1,0.1
		c0,0-0.1,0-0.1,0c-0.1,0-0.2,0-0.3,0C77.4,16.8,77.1,16.8,76.8,16.8z M76.7,16.3C76.7,16.3,76.7,16.3,76.7,16.3c0.2,0,0.5,0,0.7,0
		c0.1,0,0.3,0,0.4,0c0,0,0.1-0.1,0.1-0.1c0,0,0-0.1,0-0.1c0-0.2-0.1-0.3-0.2-0.5c-0.1-0.2-0.3-0.3-0.5-0.3c-0.1,0-0.1,0-0.2,0
		c0,0-0.1,0-0.1,0c-0.2,0-0.3,0-0.5,0.1c-0.4,0.2-0.6,0.4-0.8,0.8c0,0.1,0,0.1,0.1,0.1C76,16.3,76.3,16.3,76.7,16.3z"/>
	<path class="st11" d="M59.3,16.8c-0.4,0-0.8,0-1.2,0c0,0-0.1,0-0.1,0c0,0-0.1,0.1-0.1,0.1c0,0.1,0,0.2,0.1,0.4
		c0.1,0.2,0.2,0.3,0.4,0.4c0.1,0.1,0.3,0.1,0.4,0.1c0,0,0.1,0,0.1,0c0.4,0,0.7-0.2,1-0.4c0.1-0.1,0.1-0.1,0.2-0.2
		c0.1-0.1,0.2-0.1,0.2-0.1c0.1,0,0.1,0,0.2,0c0,0,0,0,0,0.1c0,0,0,0,0,0c-0.3,0.4-0.7,0.8-1.2,0.9c0,0-0.1,0-0.1,0
		c-0.2,0-0.5,0.1-0.7,0c-0.4-0.1-0.7-0.3-0.9-0.7c-0.1-0.2-0.2-0.5-0.2-0.7c0-0.1,0-0.2,0-0.3c0-0.2,0.1-0.3,0.2-0.4
		c0.3-0.5,0.7-0.8,1.2-1c0.3-0.1,0.5-0.2,0.8-0.1c0.2,0,0.3,0.1,0.5,0.2c0.3,0.2,0.5,0.4,0.6,0.8c0.1,0.3,0.1,0.5,0,0.8
		c0,0-0.1,0.1-0.1,0.1c-0.1,0-0.2,0-0.2,0C60,16.8,59.7,16.8,59.3,16.8L59.3,16.8z M59.2,16.3C59.2,16.3,59.2,16.3,59.2,16.3
		c0.3,0,0.6,0,0.9,0c0.1,0,0.1,0,0.2,0c0,0,0.1-0.1,0.1-0.1c0-0.1,0-0.2-0.1-0.3c-0.1-0.3-0.3-0.5-0.6-0.6c-0.1,0-0.1,0-0.2,0
		c0,0-0.1,0-0.1,0c-0.1,0-0.4,0.1-0.5,0.1c-0.3,0.1-0.6,0.4-0.8,0.7c0,0,0,0,0,0c-0.1,0.1,0,0.2,0.1,0.2
		C58.5,16.3,58.8,16.3,59.2,16.3z"/>
	<path class="st9" d="M54.8,15.5c0,0.2-0.1,0.5-0.1,0.8c-0.1,0.2-0.1,0.5-0.1,0.7c-0.1,0.4-0.1,0.7-0.2,1.1c0,0-0.1,0.1-0.1,0.1
		c0,0,0,0,0,0c-0.1,0-0.1,0-0.2,0c-0.1,0-0.1-0.1-0.1-0.1c0,0,0-0.1,0-0.1c0,0,0-0.1,0-0.1c0,0-0.1,0-0.1,0c-0.1,0-0.1,0.1-0.2,0.1
		c-0.1,0-0.1,0.1-0.2,0.1c-0.3,0.2-0.6,0.2-1,0.2c-0.1,0-0.1,0-0.2,0c-0.5-0.1-0.8-0.4-1-0.8c0-0.1-0.1-0.2-0.1-0.4
		c0-0.1,0-0.2,0-0.3c0-0.2,0.1-0.5,0.2-0.7c0.2-0.5,0.6-0.9,1.1-1.1c0.3-0.1,0.6-0.2,0.9-0.1c0.3,0,0.5,0.1,0.7,0.3
		c0,0,0.1,0.1,0.1,0.1c0,0,0.1,0,0.1,0c0-0.1,0-0.2,0.1-0.2c0,0,0.1-0.1,0.1-0.1c0.1,0,0.2,0,0.3,0c0,0,0,0,0.1,0.1
		C54.8,15.2,54.8,15.3,54.8,15.5z M52.7,17.8c0.3,0,0.5,0,0.7-0.2c0.4-0.2,0.7-0.6,0.8-1.1c0,0,0-0.1,0-0.1c0-0.1,0-0.2,0-0.2
		c0,0,0-0.1,0-0.1c0-0.2-0.1-0.3-0.2-0.4c-0.1-0.1-0.3-0.3-0.5-0.3c-0.1,0-0.1,0-0.2,0c0,0-0.1,0-0.1,0c-0.2,0-0.4,0-0.6,0.1
		c-0.4,0.1-0.6,0.4-0.8,0.7c-0.1,0.2-0.2,0.5-0.2,0.7c0,0.1,0,0.3,0.1,0.4c0,0,0,0,0,0c0.2,0.3,0.4,0.5,0.8,0.5
		C52.6,17.8,52.6,17.8,52.7,17.8z"/>
	<path class="st9" d="M47.8,16.9c0.1,0,0.1,0,0.1,0c0,0,0,0,0,0c0,0,0,0.1,0,0.1c0,0.1,0,0.2,0,0.3c0.1,0.3,0.3,0.4,0.5,0.4
		c0.5,0.1,0.9-0.2,1.1-0.6c0.1-0.1,0.1-0.3,0.1-0.4c0-0.1,0-0.2-0.1-0.3c-0.1-0.1-0.2-0.2-0.3-0.2c-0.1,0-0.2-0.1-0.3-0.1
		c-0.1,0-0.2-0.1-0.3-0.1c-0.1,0-0.2-0.1-0.3-0.2c-0.2-0.2-0.3-0.4-0.4-0.6c0,0,0-0.1,0-0.1c0-0.1,0-0.1,0-0.2
		c0.1-0.4,0.3-0.6,0.6-0.8c0.2-0.1,0.4-0.2,0.6-0.2c0,0,0.1,0,0.1,0c0.1,0,0.2,0,0.3,0c0.1,0,0.2,0,0.2,0.1c0.3,0.1,0.5,0.3,0.6,0.6
		c0,0.1,0.1,0.3,0,0.5c0,0-0.1,0.1-0.1,0.1c-0.1,0-0.2,0-0.3,0c0,0-0.1,0-0.1-0.1c0-0.1,0-0.2,0-0.2c0-0.1-0.1-0.2-0.2-0.3
		c-0.1-0.1-0.2-0.2-0.4-0.2c0,0-0.1,0-0.1,0c-0.2,0-0.4,0.1-0.6,0.3c-0.2,0.2-0.3,0.4-0.3,0.6c0,0.1,0,0.2,0.1,0.3
		c0.1,0.1,0.2,0.1,0.2,0.2c0.2,0.1,0.4,0.1,0.5,0.2c0.1,0,0.2,0.1,0.3,0.1c0.1,0.1,0.3,0.2,0.4,0.3c0.1,0.1,0.1,0.2,0.1,0.2
		c0,0,0,0.1,0,0.1c0.1,0.2,0,0.3,0,0.5c-0.1,0.3-0.2,0.6-0.5,0.8c-0.2,0.2-0.4,0.3-0.6,0.4c-0.2,0.1-0.3,0.1-0.5,0.1
		c-0.1,0-0.3,0-0.4-0.1c-0.3-0.1-0.5-0.2-0.6-0.5c-0.1-0.2-0.2-0.4-0.1-0.6c0,0,0.1-0.1,0.1-0.1C47.7,17,47.8,16.9,47.8,16.9z"/>
	<path class="st9" d="M66.3,16.8c0-0.3,0.1-0.5,0.2-0.8c0.2-0.5,0.6-0.8,1.2-1.1c0.3-0.1,0.6-0.2,0.9-0.1c0.2,0,0.5,0.1,0.6,0.3
		c0.1,0.1,0.1,0.1,0.2,0.2c0,0,0.1,0,0.1,0c0-0.1,0-0.1,0.1-0.2c0-0.1,0.1-0.1,0.1-0.1c0.1,0,0.2,0,0.2,0c0,0,0.1,0.1,0.1,0.1
		c0,0.1,0,0.2-0.1,0.4c0,0.1,0,0.2-0.1,0.3c0,0.2-0.1,0.5-0.1,0.7c0,0.3-0.1,0.6-0.2,0.8c0,0.2-0.1,0.4-0.1,0.6c0,0,0,0.1,0,0.1
		c0,0,0,0.1-0.1,0.1c-0.1,0-0.2,0-0.2,0c-0.1,0-0.1-0.1-0.1-0.1c0-0.1,0-0.1,0-0.2c0,0,0-0.1-0.1,0c-0.1,0-0.1,0.1-0.2,0.1
		c-0.1,0.1-0.3,0.2-0.5,0.2c0,0-0.1,0-0.1,0c-0.3,0.1-0.6,0.1-0.9,0c-0.4-0.1-0.7-0.4-0.9-0.7C66.3,17.3,66.3,17.1,66.3,16.8z
		 M67.9,17.8c0,0,0.1,0,0.2,0c0.5-0.1,0.8-0.4,1-0.9c0.1-0.1,0.1-0.3,0.1-0.4c0-0.1,0-0.2,0-0.3c0-0.1,0-0.2-0.1-0.2
		c-0.1-0.3-0.3-0.5-0.6-0.6c-0.1,0-0.2,0-0.2-0.1c-0.1,0-0.1,0-0.2,0c-0.2,0-0.3,0-0.5,0.1c-0.4,0.2-0.7,0.4-0.9,0.9
		c0,0.1-0.1,0.1-0.1,0.2c0,0.2,0,0.4,0,0.6c0,0.2,0.1,0.3,0.2,0.4c0.2,0.2,0.4,0.3,0.7,0.3C67.7,17.8,67.8,17.8,67.9,17.8z"/>
	<path class="st4" d="M108.6,27.6c0-0.5,0-0.9,0-1.4c0-0.1,0-0.2,0-0.2c0,0,0,0,0.1-0.1c0,0,0,0,0,0c0.2,0,0.4,0,0.6,0
		c0.1,0,0.1,0,0.1,0.1c0,0.1,0,0.1,0,0.2c0,0,0,0,0,0c0,0,0.1,0,0.1,0c0.1-0.1,0.1-0.1,0.2-0.2c0.1-0.1,0.2-0.1,0.2-0.1
		c0.2,0,0.3,0,0.5,0c0.1,0,0.2,0.1,0.3,0.1c0,0,0.1,0.1,0.1,0.1c-0.1,0.2-0.1,0.4-0.2,0.6c0,0.1-0.1,0.1-0.2,0.1c0,0-0.1,0-0.1,0
		c-0.1,0-0.1,0-0.2,0c-0.2,0-0.4,0.1-0.5,0.3c-0.1,0.2-0.1,0.3-0.1,0.5c0,0.2,0,0.4,0,0.7c0,0.3,0,0.7,0,1c0,0.1,0,0.1,0,0.2
		c0,0.1-0.1,0.1-0.1,0.1c0,0,0,0,0,0c-0.2,0-0.4,0-0.6,0c-0.1,0-0.1-0.1-0.2-0.2c0,0,0-0.1,0-0.1c0-0.1,0-0.2,0-0.3
		C108.6,28.4,108.6,28,108.6,27.6C108.6,27.6,108.6,27.6,108.6,27.6z"/>
	<path class="st10" d="M124.2,16.3c0,0.4-0.1,0.7-0.3,1c-0.3,0.4-0.7,0.7-1.1,0.9c-0.2,0.1-0.4,0.1-0.6,0.1c-0.1,0-0.2,0-0.4,0
		c-0.1,0-0.1-0.1-0.2-0.1c-0.3-0.1-0.5-0.3-0.6-0.6c-0.1-0.3-0.2-0.6-0.1-0.9c0.1-0.3,0.2-0.7,0.5-0.9c0.2-0.3,0.5-0.5,0.8-0.6
		c0.3-0.1,0.6-0.2,0.9-0.1c0.5,0.1,0.9,0.4,1.1,0.9C124.2,16,124.2,16.1,124.2,16.3z M122.3,17.8c0.2,0,0.3,0,0.5-0.1
		c0.4-0.2,0.7-0.4,0.9-0.8c0-0.1,0.1-0.1,0.1-0.2c0-0.2,0.1-0.4,0-0.7c0,0,0-0.1,0-0.1c-0.1-0.1-0.1-0.2-0.2-0.3
		c-0.2-0.2-0.4-0.3-0.7-0.3c0,0-0.1,0-0.1,0c-0.2,0-0.4,0.1-0.5,0.2c-0.5,0.3-0.9,0.8-0.9,1.5c0,0.1,0,0.2,0.1,0.4
		C121.5,17.6,121.8,17.8,122.3,17.8C122.2,17.8,122.2,17.8,122.3,17.8z"/>
	<path class="st9" d="M111.3,14.9c0.4,0,0.8,0.2,1.1,0.5c0.1,0.2,0.2,0.4,0.3,0.6c0,0.2,0,0.4,0,0.7c0,0.1-0.1,0.3-0.1,0.4
		c-0.2,0.5-0.6,0.8-1.1,1c-0.3,0.1-0.6,0.2-0.9,0.1c-0.5,0-0.9-0.4-1.1-0.8c0-0.1-0.1-0.2-0.1-0.3c0-0.2,0-0.5,0-0.7
		c0-0.2,0.1-0.3,0.2-0.5c0.3-0.4,0.6-0.8,1.1-0.9C110.8,15,111.1,14.9,111.3,14.9z M110.8,17.8C110.8,17.8,110.8,17.8,110.8,17.8
		c0,0,0.1,0,0.1,0c0,0,0.1,0,0.1,0c0,0,0.1,0,0.1,0c0.5-0.2,0.8-0.4,1-0.9c0,0,0-0.1,0.1-0.1c0-0.1,0.1-0.2,0.1-0.3
		c0.1-0.3,0-0.5-0.1-0.7c-0.2-0.3-0.5-0.4-0.9-0.5c0,0,0,0,0,0c-0.2,0-0.3,0-0.5,0.1c-0.6,0.3-0.9,0.7-1,1.4c0,0.1,0,0.2,0,0.2
		c0,0,0,0.1,0,0.1C109.9,17.5,110.3,17.8,110.8,17.8C110.7,17.8,110.7,17.8,110.8,17.8z"/>
	<path class="st9" d="M94.8,16.8c0-0.2,0.1-0.5,0.2-0.7c0.2-0.5,0.6-0.8,1-1c0.3-0.1,0.5-0.2,0.8-0.2c0.5,0,1,0.3,1.2,0.8
		c0.1,0.3,0.2,0.6,0.1,0.9c-0.1,0.4-0.3,0.7-0.5,1c-0.3,0.3-0.6,0.5-0.9,0.6c-0.2,0.1-0.4,0.1-0.6,0.1c0,0-0.1,0-0.1,0
		c-0.4,0-0.9-0.3-1.1-0.8C94.8,17.2,94.8,17.1,94.8,16.8z M97.7,16.3c0,0,0-0.1,0-0.2c0-0.2-0.1-0.3-0.2-0.4
		c-0.2-0.2-0.5-0.3-0.8-0.3c0,0,0,0,0,0c-0.2,0-0.4,0.1-0.6,0.2c-0.5,0.3-0.8,0.7-0.9,1.3c0,0.2,0,0.3,0.1,0.5
		c0.2,0.4,0.5,0.6,0.9,0.6c0.1,0,0.1,0,0.2,0c0.1,0,0.2,0,0.3-0.1c0.4-0.1,0.6-0.4,0.8-0.7C97.6,16.8,97.7,16.6,97.7,16.3z"/>
	<path class="st10" d="M70.8,17.9c0-0.3,0.1-0.5,0.1-0.8c0-0.2,0-0.3,0.1-0.5c0-0.1,0.1-0.3,0.1-0.4c0.1-0.3,0.1-0.5,0.1-0.8
		c0-0.1,0-0.2,0.1-0.3c0-0.1,0.1-0.1,0.1-0.1c0,0,0.1,0,0.1,0c0.1,0,0.1,0,0.2,0.2c0,0,0,0,0,0c0,0,0.1,0,0.1,0c0,0,0.1,0,0.1,0
		c0.1-0.1,0.2-0.1,0.3-0.2c0.2-0.1,0.5-0.1,0.7-0.1c0.3,0,0.6,0.2,0.8,0.4c0.1,0.2,0.2,0.3,0.2,0.5c0,0.2,0,0.3,0,0.5
		c-0.1,0.3-0.1,0.6-0.2,0.9c0,0.2-0.1,0.4-0.1,0.6c0,0.1,0,0.1-0.1,0.2c0,0-0.1,0.1-0.1,0.1c-0.1,0-0.2,0-0.2,0c0,0,0,0-0.1-0.1
		c0,0,0,0,0,0c0-0.1,0-0.3,0-0.4c0-0.2,0-0.3,0.1-0.5s0.1-0.3,0.1-0.5c0-0.1,0-0.2,0-0.2c0-0.2,0.1-0.4,0-0.6c0-0.2-0.1-0.4-0.3-0.5
		c0,0-0.1-0.1-0.1-0.1c-0.1,0-0.2,0-0.3-0.1c0,0-0.1,0-0.1,0c-0.1,0-0.2,0-0.3,0.1c-0.1,0-0.2,0.1-0.3,0.2c-0.2,0.2-0.4,0.4-0.4,0.7
		c0,0.2-0.1,0.3-0.1,0.5c0,0.3-0.1,0.5-0.1,0.8c0,0.1,0,0.2,0,0.3c0,0.1,0,0.2-0.1,0.4c0,0.1-0.1,0.1-0.1,0.1c-0.1,0-0.2,0-0.2,0
		c0,0-0.1-0.1-0.1-0.1C70.8,18,70.8,17.9,70.8,17.9z"/>
	<path class="st10" d="M102.2,16.1c0,0.2,0,0.3-0.1,0.5c-0.1,0.2-0.1,0.4-0.1,0.6c0,0.3-0.1,0.5-0.1,0.8c0,0,0,0.1,0,0.1
		c0,0-0.1,0.1-0.1,0.1c-0.1,0-0.2,0-0.2,0c0,0-0.1-0.1-0.1-0.1c0-0.1,0-0.2,0-0.2c0.1-0.3,0.1-0.6,0.2-0.8c0-0.1,0-0.2,0.1-0.3
		c0-0.2,0-0.3,0.1-0.5c0-0.1,0-0.2,0-0.3c-0.1-0.2-0.2-0.4-0.4-0.5c-0.1,0-0.1,0-0.2,0c-0.1,0-0.2,0-0.3,0c0,0-0.1,0-0.1,0
		c-0.2,0-0.4,0.1-0.5,0.3c-0.2,0.2-0.3,0.4-0.4,0.6c0,0.2-0.1,0.4-0.1,0.6c0,0.1,0,0.2-0.1,0.4c0,0.1,0,0.2-0.1,0.4
		c0,0.1,0,0.3-0.1,0.4c0,0,0,0.1-0.1,0.1c0,0,0,0-0.1,0.1c-0.1,0-0.2,0-0.2,0c0,0-0.1-0.1-0.1-0.1c0-0.1,0-0.2,0-0.2
		c0.1-0.5,0.2-1.1,0.3-1.6c0.1-0.2,0.1-0.4,0.1-0.6c0-0.2,0.1-0.3,0.1-0.5c0,0,0-0.1,0-0.1c0-0.1,0.1-0.1,0.1-0.1c0.1,0,0.1,0,0.2,0
		c0.1,0,0.1,0,0.1,0.1c0,0,0,0.1,0,0.1c0,0,0,0,0.1,0c0.1-0.1,0.2-0.1,0.3-0.2c0.1-0.1,0.3-0.1,0.4-0.1c0.2,0,0.5,0,0.7,0
		c0.2,0.1,0.3,0.2,0.5,0.3c0.2,0.2,0.2,0.4,0.2,0.6C102.2,15.9,102.2,16,102.2,16.1z"/>
	<path class="st9" d="M118,17.8C118,17.8,118.1,17.8,118,17.8c0.3,0,0.6-0.1,0.8-0.2c0.2-0.1,0.3-0.2,0.4-0.3
		c0.1-0.1,0.1-0.1,0.2-0.1c0.1,0,0.1,0,0.2,0c0,0,0.1,0.1,0.1,0.1c-0.3,0.4-0.6,0.7-1.1,0.8c-0.1,0-0.2,0.1-0.3,0.1
		c-0.2,0-0.4,0-0.7,0c-0.5-0.1-0.9-0.4-1.1-0.8c-0.1-0.2-0.1-0.5-0.1-0.7c0.1-0.6,0.4-1,0.9-1.4c0.2-0.2,0.5-0.3,0.8-0.3
		c0.2,0,0.5,0,0.7,0c0.1,0,0.2,0.1,0.3,0.1c0.3,0.2,0.6,0.4,0.7,0.8c0,0,0,0.1-0.1,0.1c-0.1,0-0.2,0-0.3,0c-0.1,0-0.1,0-0.1-0.1
		c0,0,0-0.1-0.1-0.1c-0.1-0.1-0.2-0.2-0.3-0.3c-0.1-0.1-0.2-0.1-0.3-0.1c-0.1,0-0.1,0-0.2,0c-0.1,0-0.1,0-0.2,0
		c-0.6,0.1-1.1,0.3-1.3,0.9c-0.1,0.2-0.1,0.4-0.2,0.5c0,0.1,0,0.2,0,0.3c0,0,0,0.1,0,0.1c0.1,0.2,0.2,0.4,0.4,0.5
		c0.1,0.1,0.3,0.1,0.4,0.1C117.9,17.8,118,17.8,118,17.8C118,17.8,118,17.8,118,17.8z"/>
	<path class="st10" d="M63.6,17.1c0,0.3-0.1,0.5-0.3,0.8c-0.2,0.2-0.4,0.3-0.7,0.4c-0.2,0-0.3,0-0.5,0c-0.2,0-0.3-0.1-0.5-0.3
		c0,0,0,0,0,0c-0.1-0.1-0.1-0.3-0.1-0.5c0,0,0-0.1,0-0.1c0,0,0.1-0.1,0.1-0.1c0.1,0,0.2,0,0.2,0c0,0,0.1,0,0.1,0.1
		c0,0.1,0,0.1,0,0.2c0,0.1,0,0.2,0.1,0.2c0,0.1,0.1,0.1,0.2,0.1c0.1,0,0.3,0,0.4,0c0.1,0,0.2-0.1,0.3-0.2c0.1-0.1,0.1-0.2,0.2-0.4
		c0-0.2-0.1-0.3-0.2-0.4c-0.1,0-0.2-0.1-0.3-0.1c-0.1,0-0.2-0.1-0.3-0.1c-0.1,0-0.2-0.1-0.3-0.2c-0.2-0.2-0.2-0.4-0.2-0.6
		c0-0.1,0.1-0.2,0.1-0.4c0.2-0.3,0.4-0.4,0.7-0.5c0.2,0,0.4,0,0.6,0.1c0.2,0.1,0.3,0.2,0.3,0.4c0,0.1,0,0.1,0,0.2c0,0,0,0.1,0,0.1
		c0,0.1-0.1,0.2-0.1,0.2c-0.1,0-0.1,0-0.2,0c0,0-0.1,0-0.1-0.1c0,0,0-0.1,0-0.1c0-0.2-0.1-0.2-0.3-0.3c0,0-0.1,0-0.1,0
		c-0.1,0-0.2,0-0.3,0.1c-0.1,0-0.1,0.1-0.2,0.2c0,0,0,0.1-0.1,0.1c-0.1,0.1,0,0.3,0.1,0.4c0,0,0.1,0.1,0.2,0.1
		c0.1,0,0.2,0.1,0.3,0.1c0.1,0,0.2,0.1,0.3,0.1c0.1,0,0.2,0.1,0.2,0.2C63.6,16.8,63.6,16.9,63.6,17.1z"/>
	<path class="st10" d="M114.9,14.9c0.2,0,0.3,0.1,0.5,0.2c0.1,0.1,0.2,0.2,0.2,0.3c0,0.1,0.1,0.2,0.1,0.3c0,0.1-0.1,0.2-0.2,0.2
		c0,0,0,0,0,0c0,0-0.1,0-0.1,0c-0.1,0-0.1,0-0.1-0.1c0-0.1,0-0.2-0.1-0.2c0-0.1-0.1-0.1-0.1-0.1c0,0-0.1,0-0.1,0c0,0-0.1,0-0.1,0
		c-0.1,0-0.2,0-0.3,0.1c-0.1,0.1-0.2,0.2-0.2,0.3c0,0.1,0,0.2,0.1,0.3c0.1,0.1,0.1,0.1,0.2,0.1c0.1,0,0.2,0.1,0.3,0.1
		c0.1,0,0.1,0.1,0.2,0.1c0.2,0.1,0.3,0.2,0.4,0.4c0,0,0,0.1,0,0.1c0,0.3,0,0.5-0.2,0.8c-0.2,0.3-0.4,0.4-0.8,0.5c-0.2,0-0.3,0-0.5,0
		c-0.2,0-0.3-0.2-0.4-0.3c0,0,0,0,0,0c0-0.1-0.1-0.2-0.1-0.4c0,0,0-0.1,0-0.1c0-0.1,0.1-0.1,0.2-0.1c0.1,0,0.1,0,0.2,0
		c0,0,0.1,0.1,0.1,0.1c0,0,0,0.1,0,0.1c0,0.1,0,0.2,0.1,0.3c0,0.1,0.1,0.1,0.2,0.1c0.1,0,0.3,0,0.4,0c0.1,0,0.2-0.1,0.3-0.2
		c0.1-0.1,0.2-0.3,0.2-0.4c0-0.2-0.1-0.3-0.2-0.4c0,0-0.1-0.1-0.2-0.1c-0.1-0.1-0.3-0.1-0.4-0.2c-0.1,0-0.2-0.1-0.2-0.2
		c-0.1-0.1-0.2-0.2-0.2-0.4c0-0.1,0-0.2,0-0.2c0-0.2,0.1-0.5,0.3-0.6C114.3,15,114.6,14.9,114.9,14.9z"/>
	<path class="st4" d="M112.2,27.7c0,0.5,0,0.9,0,1.4c0,0.1,0,0.2,0,0.2c0,0-0.1,0.1-0.1,0.1c0,0,0,0,0,0c-0.2,0-0.4,0-0.7,0
		c-0.1,0-0.1-0.1-0.1-0.2c0,0,0-0.1,0-0.1c0,0,0-0.1,0-0.1c0-1,0-1.9,0-2.9c0-0.1,0-0.2,0-0.2c0,0,0,0,0.1-0.1c0,0,0,0,0,0
		c0.2,0,0.5,0,0.7,0c0,0,0.1,0.1,0.1,0.1c0,0,0,0.1,0,0.1c0,0.1,0,0.2,0,0.3C112.2,26.8,112.2,27.2,112.2,27.7L112.2,27.7z"/>
	<path class="st4" d="M53,27.6c0,0.5,0,0.9,0,1.4c0,0.1,0,0.2,0,0.2c0,0-0.1,0.1-0.1,0.1c-0.2,0-0.4,0-0.7,0c-0.1,0-0.1-0.1-0.1-0.1
		c0,0,0,0,0,0c0,0,0-0.1,0-0.1c0-1,0-2,0-3c0,0,0-0.1,0-0.1c0,0,0.1-0.1,0.1-0.1c0.2,0,0.5,0,0.7,0c0.1,0,0.1,0.1,0.1,0.1
		c0,0.1,0,0.2,0,0.3C53,26.7,53,27.2,53,27.6L53,27.6z"/>
	<path class="st4" d="M84.1,35.9c0,0.5,0,0.9,0,1.4c0,0.1,0,0.2,0,0.2c0,0-0.1,0.1-0.1,0.1c-0.1,0-0.2,0-0.2,0c-0.2,0-0.3,0-0.5,0
		c-0.1,0-0.1-0.1-0.1-0.1c0-0.1,0-0.1,0-0.2c0-0.2,0-0.3,0-0.5c0-0.7,0-1.5,0-2.2c0-0.1,0-0.2,0-0.3c0-0.1,0.1-0.1,0.1-0.1
		c0.2,0,0.4,0,0.7,0c0.1,0,0.1,0.1,0.1,0.2c0,0,0,0.1,0,0.1c0,0.1,0,0.2,0,0.3C84.1,35.1,84.1,35.5,84.1,35.9L84.1,35.9z"/>
	<path class="st10" d="M55.8,18.2c0,0-0.1,0-0.1,0c0,0-0.1-0.1-0.1-0.1c0,0,0,0,0,0c0.1-0.4,0.1-0.8,0.2-1.2c0-0.3,0.1-0.5,0.1-0.7
		c0-0.2,0.1-0.4,0.1-0.6c0.1-0.5,0.2-1,0.3-1.5c0-0.1,0.1-0.1,0.2-0.1c0,0,0.1,0,0.1,0c0,0,0,0,0,0c0.1,0,0.1,0.1,0.1,0.1
		c0,0,0,0.1,0,0.1c-0.1,0.3-0.1,0.6-0.2,0.9c0,0.2-0.1,0.5-0.1,0.7c0,0.2-0.1,0.5-0.1,0.7c-0.1,0.4-0.2,0.8-0.2,1.3
		c0,0.1,0,0.2-0.1,0.3c0,0.1-0.1,0.1-0.1,0.1C55.9,18.2,55.8,18.2,55.8,18.2z"/>
	<path class="st6" d="M145.5,28.1c-0.2,0-0.4,0-0.6,0c-0.1,0-0.1,0-0.2,0c-0.1,0-0.2-0.1-0.2-0.1c0-0.2,0-0.5,0-0.7
		c0,0,0.1-0.1,0.1-0.1c0,0,0,0,0,0c0,0,0.1,0,0.1,0c0.5,0,0.9,0,1.4,0c0,0,0.1,0,0.1,0c0,0,0.1,0.1,0.1,0.1c0,0,0,0,0,0
		c0,0.2,0,0.4,0,0.7c0,0.1-0.1,0.2-0.1,0.2c-0.1,0-0.2,0-0.2,0C145.8,28.1,145.6,28.1,145.5,28.1z"/>
	<path class="st7" d="M75.2,36.3c-0.2,0-0.4,0-0.7,0c0,0-0.1,0-0.1,0c-0.1,0-0.2-0.1-0.2-0.1c0-0.2,0-0.4,0-0.7c0,0,0-0.1,0-0.1
		c0,0,0,0,0.1-0.1c0,0,0.1,0,0.1,0c0.5,0,1,0,1.5,0c0,0,0,0,0,0c0.1,0,0.1,0.1,0.1,0.1c0,0.2,0,0.5,0,0.7c0,0-0.1,0.1-0.1,0.1
		c-0.1,0-0.2,0-0.2,0C75.6,36.3,75.4,36.3,75.2,36.3L75.2,36.3z"/>
	<path class="st11" d="M65.2,16.7c0,0.2-0.1,0.4-0.1,0.7c0,0.2-0.1,0.4-0.1,0.6c0,0,0,0.1,0,0.1c0,0,0,0.1-0.1,0.1
		c-0.1,0-0.2,0-0.3,0c0,0-0.1-0.1-0.1-0.1c0-0.2,0-0.4,0.1-0.6c0.1-0.2,0.1-0.4,0.1-0.6c0-0.2,0.1-0.4,0.1-0.6
		c0.1-0.4,0.1-0.8,0.2-1.2c0,0,0.1-0.1,0.1-0.1c0.1,0,0.2,0,0.3,0c0,0,0.1,0.1,0.1,0.1c0,0.1,0,0.2-0.1,0.3s0,0.2-0.1,0.3
		C65.3,16,65.2,16.3,65.2,16.7z"/>
	<path class="st5" d="M157.3,3c-0.2,0-0.3,0-0.5,0c0,0-0.1-0.1-0.1-0.1c0-0.3,0-0.6,0-0.9c0,0,0.1-0.1,0.1-0.1c0.3,0,0.7,0,1,0
		c0,0,0.1,0,0.1,0.1c0,0.3,0,0.6,0,0.9c0,0,0,0.1-0.1,0.1C157.6,3,157.4,3,157.3,3z"/>
	<path class="st11" d="M86,18.2C86,18.2,86,18.2,86,18.2c-0.1,0-0.1-0.1-0.1-0.1c0-0.1,0-0.2,0-0.3c0.1-0.3,0.1-0.6,0.2-0.9
		c0-0.2,0.1-0.4,0.1-0.6c0.1-0.2,0.1-0.4,0.1-0.6c0-0.2,0.1-0.3,0.1-0.5c0,0,0-0.1,0-0.1c0,0,0.1-0.1,0.1-0.1c0.1,0,0.2,0,0.2,0
		c0,0,0.1,0.1,0.1,0.1c0,0.1,0,0.2,0,0.3c0,0.1-0.1,0.3-0.1,0.4c0,0.1-0.1,0.3-0.1,0.4c0,0.2-0.1,0.5-0.1,0.7c0,0.2,0,0.3-0.1,0.5
		c0,0.2-0.1,0.3-0.1,0.5c0,0,0,0.1,0,0.1c0,0.1-0.1,0.1-0.2,0.1C86.1,18.2,86.1,18.2,86,18.2z"/>
	<path class="st5" d="M107,3c-0.2,0-0.3,0-0.5,0c0,0-0.1-0.1-0.1-0.1c0-0.3,0-0.6,0-0.9c0,0,0-0.1,0.1-0.1c0.2,0,0.5,0,0.7,0
		c0.1,0,0.2,0,0.3,0c0,0,0,0,0.1,0.1c0,0,0,0,0,0c0,0.3,0,0.6,0,0.8c0,0.1-0.1,0.1-0.1,0.1c0,0-0.1,0-0.1,0C107.2,3,107.1,3,107,3
		L107,3z"/>
	<path class="st3" d="M91.7,3c-0.2,0-0.3,0-0.5,0c0,0-0.1,0-0.1-0.1c0-0.1,0-0.2,0-0.3c0-0.2,0-0.4,0-0.6c0,0,0-0.1,0.1-0.1
		c0,0,0.1,0,0.1,0c0.3,0,0.5,0,0.8,0c0.1,0,0.2,0,0.2,0.2c0,0.3,0,0.6,0,0.8c0,0,0,0.1-0.1,0.1c0,0-0.1,0-0.1,0C92,3,91.8,3,91.7,3
		C91.7,3,91.7,3,91.7,3z"/>
	<path class="st5" d="M81.7,1.9c0.1,0,0.3,0,0.5,0c0,0,0.1,0.1,0.1,0.1c0,0.3,0,0.6,0,0.8c0,0.1-0.1,0.1-0.1,0.1c-0.3,0-0.7,0-1,0
		c0,0-0.1-0.1-0.1-0.1c0-0.3,0-0.5,0-0.8c0-0.1,0-0.2,0.2-0.2C81.3,1.9,81.5,1.9,81.7,1.9z"/>
	<path class="st3" d="M170.7,3c-0.2,0-0.3,0-0.5,0c-0.1,0-0.1-0.1-0.1-0.1c0-0.2,0-0.3,0-0.5c0-0.1,0-0.2,0-0.4c0,0,0-0.1,0.1-0.1
		c0.3,0,0.7,0,1,0c0,0,0.1,0.1,0.1,0.1c0,0,0,0,0,0c0,0.3,0,0.5,0,0.8c0,0.1-0.1,0.1-0.2,0.1c0,0-0.1,0-0.1,0C171,3,170.8,3,170.7,3
		C170.7,3,170.7,3,170.7,3z"/>
	<path class="st6" d="M86.5,32.6c0.1,0,0.2,0,0.2,0c0.1,0,0.2,0,0.3,0.1c0.2,0.2,0.4,0.5,0.5,0.7c0,0,0,0.1,0,0.1
		c-0.2,0-0.4,0-0.6,0c0,0-0.1,0-0.1,0c-0.1-0.1-0.2-0.2-0.3-0.3c0,0-0.1,0-0.1,0c0,0,0,0,0,0c0,0,0,0,0,0c-0.3,0.4-0.2,0.3-0.7,0.3
		c0,0-0.1,0-0.1,0c-0.1,0-0.1-0.1-0.1-0.2c0,0,0,0,0,0c0.2-0.2,0.3-0.5,0.5-0.7c0-0.1,0.1-0.1,0.2-0.1
		C86.2,32.6,86.4,32.6,86.5,32.6C86.5,32.6,86.5,32.6,86.5,32.6z"/>
	<path class="st6" d="M140.2,24.4c0.1,0,0.2,0,0.4,0c0,0,0.1,0,0.1,0.1c0.2,0.2,0.4,0.5,0.5,0.8c0,0,0,0.1-0.1,0.1c0,0-0.1,0-0.1,0
		c-0.1,0-0.2,0-0.2,0c-0.3,0-0.3,0-0.4-0.2c-0.1-0.1-0.1-0.1-0.2-0.2c0,0-0.1,0-0.1,0c-0.1,0.1-0.2,0.2-0.2,0.3c0,0-0.1,0.1-0.1,0.1
		c-0.2,0-0.3,0-0.5,0c0,0-0.1-0.1-0.1-0.1c0,0,0,0,0,0c0.2-0.2,0.3-0.5,0.5-0.7c0.1-0.1,0.1-0.1,0.2-0.1
		C140,24.4,140.1,24.4,140.2,24.4C140.2,24.4,140.2,24.4,140.2,24.4z"/>
	<path class="st8" d="M152.9,1.9c0.2,0,0.3,0,0.5,0c0,0,0,0,0.1,0.1c0,0.2,0,0.5,0,0.8c0,0.1,0,0.1,0,0.2c0,0,0,0-0.1,0.1
		c-0.2,0-0.5,0-0.8,0c-0.1,0-0.2,0-0.3,0c0,0,0,0-0.1-0.1c0-0.3,0-0.6,0-0.8c0,0,0-0.1,0-0.1c0,0,0-0.1,0.1-0.1
		C152.6,1.9,152.8,1.9,152.9,1.9z"/>
	<path class="st8" d="M127.7,3c-0.2,0-0.3,0-0.5,0c0,0,0,0,0,0c0,0,0,0,0,0c0-0.3,0-0.6,0-0.9c0,0,0,0,0,0c0,0,0,0,0,0
		c0.3,0,0.7,0,1,0c0,0,0,0,0,0c0,0,0,0,0,0c0,0.3,0,0.6,0,0.9c0,0,0,0-0.1,0.1C128.1,3,127.9,3,127.7,3z"/>
	<path class="st8" d="M57,1.9c0.2,0,0.3,0,0.5,0c0,0,0,0,0.1,0.1c0,0.3,0,0.6,0,0.9c0,0,0,0,0,0c0,0,0,0-0.1,0c-0.2,0-0.5,0-0.7,0
		c-0.1,0-0.2,0-0.3,0c0,0,0,0-0.1-0.1c0-0.3,0-0.6,0-0.9c0,0,0,0,0,0c0,0,0,0,0,0C56.6,1.9,56.8,1.9,57,1.9z"/>
	<path class="st6" d="M140.6,30.3c0,0.1,0,0.2,0,0.3c0,0-0.1,0.1-0.1,0.1c0,0,0,0,0,0c-0.2,0-0.4,0-0.7,0c-0.1,0-0.1-0.1-0.1-0.1
		c0-0.2,0-0.5,0-0.7c0,0,0-0.1,0.1-0.1c0,0,0,0,0,0c0.2,0,0.5,0,0.7,0c0,0,0.1,0.1,0.1,0.1c0,0,0,0.1,0,0.1
		C140.6,30.1,140.6,30.2,140.6,30.3z"/>
	<path class="st6" d="M86.9,38.5c0,0.1,0,0.2,0,0.3c0,0.1-0.1,0.1-0.1,0.1c-0.2,0-0.4,0-0.7,0c-0.1,0-0.2-0.1-0.2-0.1
		c0-0.2,0-0.4,0-0.7c0-0.1,0.1-0.1,0.2-0.1c0.2,0,0.4,0,0.7,0c0.1,0,0.1,0.1,0.1,0.1C86.9,38.2,86.9,38.4,86.9,38.5z"/>
	<path class="st6" d="M52.2,24.3c0.3,0,0.5,0,0.7,0.1c0.2,0,0.3,0.1,0.4,0.2c0.1,0.1,0.1,0.3,0,0.4c0,0,0,0-0.1,0.1
		c-0.1,0.1-0.2,0.1-0.2,0.1c-0.1,0-0.2,0.1-0.3,0.2c-0.1,0.1-0.2,0.1-0.3,0c0,0,0,0-0.1-0.1c0-0.1,0-0.2,0-0.2c0,0,0-0.1,0.1-0.1
		c0.1,0,0.1,0,0.2-0.1c0,0,0.1,0,0.1-0.1c0,0,0-0.1,0-0.1c0,0,0-0.1-0.1-0.1c-0.1-0.1-0.3-0.1-0.5-0.1c-0.1,0-0.1,0-0.2,0
		c0,0-0.1,0-0.1-0.1c0,0,0-0.1,0-0.1c0-0.1,0.1-0.1,0.1-0.1C52.1,24.3,52.1,24.3,52.2,24.3z"/>
	<path class="st6" d="M71.1,25.4c-0.1,0-0.1,0-0.2,0c-0.1,0-0.2,0-0.3-0.1c-0.2-0.2-0.5-0.5-0.7-0.8c0,0,0-0.1,0-0.1c0,0,0,0,0.1,0
		s0.1,0,0.1,0c0.2,0,0.3,0,0.5,0c0.2,0,0.3,0.1,0.3,0.2c0.1,0.2,0.2,0.4,0.3,0.7c0,0,0,0.1-0.1,0.1c0,0,0,0,0,0
		C71.1,25.4,71.1,25.4,71.1,25.4z"/>
	<path class="st6" d="M128.8,24.4c0.1,0,0.2,0,0.4,0c0,0,0.1,0,0.1,0.1c0,0,0,0,0.1,0.1c0.2,0.5,0.3,0.6,0.3,0.8c0,0,0,0.1,0,0.1
		c0,0,0,0,0,0c-0.1,0-0.2,0-0.4,0c0,0-0.1,0-0.1-0.1c0,0-0.1-0.1-0.1-0.1c-0.2-0.2-0.4-0.4-0.6-0.7c0,0,0-0.1,0-0.1
		c0,0,0-0.1,0.1-0.1c0,0,0.1,0,0.1,0C128.6,24.4,128.7,24.4,128.8,24.4C128.8,24.4,128.8,24.4,128.8,24.4z"/>
	<path class="st6" d="M69.8,32.6c0.1,0,0.3,0,0.4,0c0,0,0.1,0,0.1,0c0,0,0,0,0,0c0.1,0.2,0.3,0.5,0.4,0.8c0,0,0,0,0,0
		c0,0,0,0.1-0.1,0.1c-0.1,0-0.2,0-0.4,0c0,0-0.1,0-0.1-0.1c-0.3-0.3-0.5-0.5-0.8-0.8c0,0,0-0.1,0-0.1c0,0,0,0,0.1,0
		C69.5,32.6,69.6,32.6,69.8,32.6C69.8,32.6,69.8,32.6,69.8,32.6z"/>
	<path class="st6" d="M83.8,32.7c0,0,0.1,0,0.2,0c0,0,0.1,0.1,0.1,0.1c0,0.1,0,0.2,0,0.3c0,0.1,0,0.2,0,0.4c0,0.1-0.1,0.1-0.1,0.1
		c-0.2,0-0.5,0-0.7,0c0,0-0.1-0.1-0.1-0.1c0,0,0,0,0,0c0-0.2,0-0.4,0-0.6c0-0.1,0.1-0.1,0.1-0.1c0,0,0.1,0,0.1,0
		C83.5,32.7,83.6,32.7,83.8,32.7z"/>
	<path class="st6" d="M111.2,24.9c0-0.1,0-0.2,0-0.3c0,0,0.1-0.1,0.1-0.1c0,0,0.1,0,0.1,0c0.2,0,0.4,0,0.6,0c0.1,0,0.1,0.1,0.1,0.2
		c0,0.2,0,0.4,0,0.6c0,0-0.1,0.1-0.1,0.1c0,0,0,0,0,0c-0.2,0-0.4,0-0.7,0c-0.1,0-0.1-0.1-0.1-0.1C111.3,25.1,111.2,25,111.2,24.9z"
		/>
	<path class="st6" d="M90.5,24.4c0.1,0,0.2,0,0.3,0c0,0,0.1,0,0.1,0.1c0,0,0,0.1,0,0.1c-0.2,0.3-0.5,0.5-0.7,0.8
		c-0.1,0.1-0.1,0.1-0.2,0.1c-0.1,0-0.2,0-0.3,0c0,0-0.1,0-0.1,0c0,0,0-0.1,0-0.1c0.1-0.3,0.2-0.5,0.4-0.8c0-0.1,0.1-0.1,0.2-0.1
		C90.3,24.4,90.4,24.4,90.5,24.4z"/>
	<path class="st11" d="M86.8,14.6c-0.1,0-0.1,0-0.1,0c-0.1,0-0.1-0.1-0.1-0.1c0-0.1,0-0.3,0.1-0.4c0-0.1,0-0.1,0.1-0.2
		c0,0,0,0,0.1-0.1c0.1,0,0.2,0,0.2,0c0,0,0.1,0.1,0.1,0.1c0,0.2,0,0.4-0.1,0.6C86.9,14.6,86.9,14.6,86.8,14.6
		C86.8,14.6,86.8,14.6,86.8,14.6z"/>
	<path class="st11" d="M65.2,14.3c0-0.1,0-0.2,0-0.3c0-0.1,0.1-0.1,0.1-0.1c0.1,0,0.2,0,0.2,0c0,0,0.1,0.1,0.1,0.1c0,0,0,0.1,0,0.1
		c0,0.1-0.1,0.3-0.1,0.4c0,0-0.1,0.1-0.1,0.1c-0.1,0-0.2,0-0.3,0c0,0-0.1-0.1-0.1-0.1C65.1,14.4,65.1,14.3,65.2,14.3
		C65.2,14.3,65.2,14.3,65.2,14.3z"/>
</g>
</svg>
