<svg width="284" height="35" viewBox="0 0 284 35" fill="none" xmlns="http://www.w3.org/2000/svg">
<path d="M53.9218 7.64442C52.1281 8.67284 50.6761 10.0726 49.281 11.5296C48.5407 12.3009 47.9713 13.1294 47.6011 14.1292C47.4303 14.5577 47.4303 14.9862 47.7435 15.329C48.1136 15.7576 48.3983 15.2433 48.7115 15.1291C49.8219 14.7006 50.9038 14.0435 52.2989 14.4435C50.733 15.2148 48.9678 15.3576 47.715 16.8145C48.6261 17.1002 49.3948 17.0145 50.0782 16.786C53.6086 15.6719 56.6266 13.7578 58.8474 10.8154C61.2105 7.70155 60.0432 5.10192 56.1141 4.67341C51.6156 4.18776 47.715 5.53043 44.3554 8.55857C43.1881 9.587 42.8749 10.7868 43.7005 12.5009C41.3659 10.644 41.1666 9.15849 42.9888 7.41588C46.8324 3.70212 51.5017 2.38802 56.712 3.27361C60.6126 3.93066 62.3494 7.81582 60.2709 11.2153C57.8509 15.2148 54.235 17.6716 49.6226 18.5857C49.3379 18.6429 49.0532 18.6429 48.7685 18.6143C46.9748 18.4715 46.4338 17.3288 47.4018 15.8433C45.4373 14.9005 45.1526 13.9864 46.5477 12.2723C48.4837 9.98694 50.8754 8.2729 53.9218 7.64442Z" fill="white"/>
<path d="M75.9297 10.3029C77.4102 11.0742 77.4386 11.2171 76.4137 12.4741C75.6734 13.3882 74.8762 14.3024 74.3068 15.3308C73.7089 16.4164 73.2818 17.5019 74.1075 18.7303C72.4277 18.5589 72.1999 18.2447 72.1714 16.0735C72.3992 15.4451 72.627 14.8166 72.8547 14.2167C73.2533 13.6739 73.7373 13.1597 73.8797 12.3312C73.2249 12.5883 72.8263 12.9311 72.4846 13.3882C70.7194 14.788 69.0395 16.3021 67.616 18.0733C67.3028 18.4732 67.075 19.3302 66.3917 18.7874C65.8507 18.3589 65.8507 17.559 66.3063 16.9306C67.5021 15.2451 68.7548 13.5882 69.8937 11.8456C70.0645 11.5885 71.3457 11.16 70.0645 10.56C69.9222 10.4743 70.4062 10.1601 70.6624 10.0173C71.3173 9.58875 71.9721 9.50304 72.5985 10.0458C73.3103 10.6457 72.627 11.1314 72.4846 11.6742C72.1714 12.0741 71.8867 12.4455 71.5735 12.8454C71.4027 13.0168 71.0041 13.1882 71.2318 13.4168C71.4596 13.6739 71.6874 13.3025 71.8582 13.1311C72.2284 12.8169 72.5985 12.4741 72.9686 12.1598C73.9366 11.5885 74.7054 10.56 75.9297 10.3029Z" fill="white"/>
<path d="M67.3973 10.9306C64.6071 10.5021 60.3364 13.7302 60.0232 16.4727C59.9093 17.3868 60.251 17.8725 61.219 17.6439C63.1266 17.2154 65.9168 13.6159 65.8029 11.6162C65.7745 11.0734 66.0307 11.2163 66.2585 11.2163C67.0841 11.2163 67.3973 11.7305 67.4543 12.5018C67.6251 15.1586 62.8988 19.2151 60.3079 18.6152C59.3684 18.3867 58.9698 17.7868 58.8274 16.7869C58.2865 13.416 63.5252 8.61663 66.5147 9.35939C66.5432 9.35939 66.5717 9.30225 66.6001 9.27368L66.5717 9.24512C66.2869 10.0736 67.6251 10.1307 67.3973 10.9306Z" fill="white"/>
<path d="M66.563 9.27338C66.0506 8.47349 65.1395 8.15925 64.5416 7.47363C64.1999 7.10226 63.8867 6.73088 64.3992 6.30237C64.9402 5.84529 65.3103 6.1024 65.6235 6.64518C65.9936 7.30223 66.3922 7.93071 66.8478 8.53062C67.2464 9.01627 66.7623 9.04484 66.563 9.27338Z" fill="white"/>
<path d="M67.3677 10.9592L67.4533 10.9878L67.3962 10.9307L67.3677 10.9592Z" fill="white"/>
<path d="M191.219 11.4456C189.71 13.5881 188.457 15.3593 187.148 17.2448C185.838 15.3879 184.585 13.6453 183.361 11.8741C183.247 11.9027 183.162 11.9312 183.048 11.9598C183.048 13.4167 183.019 14.8451 183.048 16.302C183.076 17.1305 182.877 17.5019 181.966 17.5019C181.026 17.5019 180.884 17.0734 180.884 16.2735C180.912 13.9024 180.884 11.5313 180.912 9.1602C180.912 8.70312 180.628 7.9318 181.311 7.81753C182.08 7.70326 182.991 7.36045 183.646 8.30318C184.756 9.93152 185.923 11.5599 187.148 13.3025C188.258 11.7313 189.397 10.3315 190.279 8.76026C190.934 7.64613 191.817 7.70326 192.813 7.73183C193.297 7.73183 193.468 7.96037 193.468 8.44601C193.468 11.1885 193.44 13.9595 193.468 16.702C193.468 17.6447 192.842 17.4447 192.301 17.4733C191.703 17.5019 191.162 17.559 191.191 16.6449C191.247 15.0165 191.219 13.4167 191.219 11.4456Z" fill="white"/>
<path d="M114.681 17.444C113.741 17.444 112.773 17.5011 111.834 17.444C109.869 17.3012 108.73 16.0728 108.702 14.1016C108.674 13.0446 108.674 12.0162 108.702 10.9592C108.73 9.01663 109.926 7.70252 111.834 7.64539C113.713 7.58826 115.621 7.58826 117.528 7.64539C119.578 7.73109 120.745 8.90236 120.831 10.9592C120.888 11.9876 120.888 13.0446 120.831 14.1016C120.745 16.1013 119.521 17.3583 117.5 17.444C116.589 17.5011 115.621 17.444 114.681 17.444ZM114.71 15.1872C119.151 15.13 118.525 15.8442 118.61 11.2449C118.639 10.2736 118.183 9.87365 117.243 9.87365C115.592 9.90221 113.941 9.90221 112.261 9.87365C111.378 9.87365 110.951 10.2165 110.951 11.1306C111.065 15.8728 110.268 15.13 114.71 15.1872Z" fill="white"/>
<path d="M143.78 7.73183C144.777 7.73183 145.773 7.6747 146.77 7.73183C148.25 7.81754 149.361 8.9031 149.418 10.3886C149.475 11.817 149.503 13.2453 149.418 14.6451C149.332 16.2164 148.108 17.359 146.371 17.4162C144.435 17.4733 142.499 17.4162 140.563 17.4448C139.794 17.4733 139.567 17.1019 139.624 16.4163C139.652 15.845 139.624 15.2736 139.624 14.7023C139.624 14.1595 139.567 13.8167 138.94 13.4739C138.171 13.0454 138.371 11.7313 138.769 11.5599C140.079 11.0742 139.624 10.0744 139.567 9.30304C139.481 7.98894 139.908 7.50329 141.218 7.64613C142.072 7.81754 142.926 7.73183 143.78 7.73183ZM144.407 9.87439C143.78 9.87439 143.182 9.87439 142.556 9.87439C142.072 9.87439 141.73 9.98866 141.73 10.5886C141.702 11.1599 141.873 11.5313 142.499 11.4742C143.239 11.417 143.752 11.5027 143.752 12.5026C143.752 13.3882 143.439 13.7024 142.585 13.6167C142.015 13.5596 141.73 13.7881 141.73 14.4166C141.73 15.1594 142.129 15.2736 142.727 15.2451C143.496 15.2165 144.236 15.2451 145.005 15.2451C147.339 15.2451 147.339 15.2451 147.339 12.8454C147.311 9.87439 147.311 9.87439 144.407 9.87439Z" fill="white"/>
<path d="M216.56 7.64551C217.841 7.67408 219.094 7.70264 220.375 7.73121C222.994 7.75978 224.418 9.9309 223.393 12.3591C223.222 12.7591 222.994 13.1019 222.795 13.4733C222.083 13.9875 221.286 14.1589 220.404 14.1303C218.61 14.1303 216.816 14.2731 215.022 14.1874C213.884 14.1303 213.684 14.6159 213.684 15.5872C213.684 16.1872 214.197 17.0727 213.172 17.387C211.948 17.7298 211.464 17.3584 211.464 16.0443C211.464 13.6447 211.492 11.2164 211.435 8.81677C211.407 7.95975 211.691 7.64551 212.574 7.67408C213.912 7.75978 215.222 7.67408 216.56 7.64551ZM217.499 12.0163C218.411 12.0163 219.293 11.9877 220.204 12.0163C221.001 12.0449 221.429 11.7878 221.429 10.8736C221.429 10.0166 220.973 9.8452 220.261 9.8452C218.467 9.87376 216.674 9.90233 214.852 9.8452C213.969 9.81663 213.713 10.1309 213.713 10.9879C213.713 11.8163 214.026 12.0735 214.795 12.0163C215.706 11.9877 216.588 12.0163 217.499 12.0163Z" fill="white"/>
<path d="M124.05 11.1581C124.05 12.9864 124.022 14.7576 124.079 16.5002C124.107 17.4429 123.595 17.4429 122.911 17.4715C122.199 17.4715 121.744 17.3858 121.772 16.5002C121.829 14.072 121.772 11.6723 121.801 9.24411C121.801 8.7299 121.459 7.95858 122.199 7.75861C122.997 7.53007 123.879 7.44437 124.563 8.21569C126.043 9.90116 127.524 11.5295 129.004 13.215C129.232 13.4721 129.431 13.7292 129.972 13.9006C129.972 12.2437 130.001 10.5868 129.972 8.92987C129.944 8.07285 130.086 7.61577 131.111 7.64434C132.079 7.67291 132.278 8.07285 132.278 8.92987C132.221 11.2438 132.278 13.5864 132.25 15.9003C132.25 16.4145 132.592 17.2144 131.88 17.3858C131.111 17.5858 130.2 17.7286 129.517 16.9287C128.036 15.2147 126.499 13.5292 124.99 11.8152C124.762 11.5581 124.591 11.2438 124.05 11.1581Z" fill="white"/>
<path d="M199.618 17.4436C198.195 17.4436 196.771 17.4151 195.348 17.4436C194.607 17.4722 194.351 17.1865 194.38 16.4438C194.408 13.8442 194.408 11.216 194.38 8.61632C194.38 7.90213 194.607 7.58789 195.348 7.58789C198.195 7.61646 201.042 7.61646 203.861 7.58789C204.743 7.58789 204.829 8.07354 204.829 8.75915C204.829 9.44477 204.772 9.95898 203.861 9.95898C201.839 9.93042 199.789 9.98755 197.768 9.93042C196.914 9.90185 196.572 10.1875 196.629 11.0731C196.686 12.1015 196.686 13.1585 196.629 14.187C196.6 14.9583 196.914 15.1583 197.625 15.1583C199.647 15.1297 201.697 15.1868 203.718 15.1297C204.629 15.1011 204.829 15.4439 204.829 16.2724C204.829 17.1294 204.601 17.4722 203.69 17.4151C202.38 17.4151 200.985 17.4436 199.618 17.4436Z" fill="white"/>
<path d="M103.445 17.4448C102.448 17.4448 101.452 17.4734 100.455 17.4448C98.2343 17.3877 97.067 16.1593 97.0385 13.9596C97.0385 12.9026 97.0101 11.8742 97.0385 10.8172C97.0955 9.10312 98.2059 7.76045 99.8857 7.67475C102.249 7.56048 104.612 7.64618 107.004 7.61762C108.057 7.61762 107.744 8.3318 107.801 8.90315C107.858 9.53163 107.772 9.98871 106.918 9.98871C104.84 9.96014 102.733 10.0173 100.654 9.96014C99.601 9.93157 99.2308 10.3315 99.2593 11.3885C99.3447 15.7879 98.6899 15.1308 103.018 15.188C104.242 15.2165 105.495 15.2451 106.719 15.1594C107.63 15.1023 107.801 15.5022 107.829 16.3021C107.829 17.1591 107.601 17.5019 106.719 17.4448C105.637 17.3877 104.527 17.4448 103.445 17.4448Z" fill="white"/>
<path d="M156.453 17.4445C155.457 17.4445 154.46 17.473 153.464 17.4445C151.642 17.3588 150.56 16.2732 150.531 14.4734C150.503 12.588 150.56 10.674 150.503 8.78854C150.474 7.81724 150.93 7.73154 151.699 7.73154C152.581 7.70298 152.837 8.01722 152.809 8.87424C152.752 10.5883 152.837 12.3023 152.78 14.0164C152.752 14.9591 153.122 15.2733 154.033 15.2448C155.685 15.1876 157.364 15.1876 159.016 15.2448C159.984 15.2733 160.24 14.8448 160.212 13.9592C160.183 12.3023 160.183 10.6454 160.212 8.95994C160.212 8.01722 162.005 6.76025 162.888 7.01736C163.286 7.13163 163.258 7.36017 163.173 7.64584C162.404 9.98837 162.489 12.388 162.432 14.8163C162.404 16.3018 161.151 17.3873 159.585 17.4445C158.532 17.5016 157.478 17.4445 156.453 17.4445Z" fill="white"/>
<path d="M224.386 13.5006C224.415 11.9865 224.472 10.4725 224.443 8.95838C224.443 8.21563 224.5 7.70142 225.468 7.70142C226.379 7.70142 226.579 8.04423 226.579 8.87268C226.607 11.4152 226.635 11.4152 229.141 11.4152C230.422 11.4152 231.703 11.3866 232.985 11.4437C233.867 11.4723 234.209 11.1295 234.123 10.2725C234.095 9.84397 234.152 9.41546 234.123 8.98695C234.038 8.12993 234.237 7.70142 235.262 7.67285C236.23 7.67285 236.458 8.04423 236.458 8.92982C236.401 11.1009 236.43 13.3006 236.43 15.4717C236.43 17.6429 236.23 17.7857 234.067 17.1858C234.152 16.6144 234.18 16.0431 234.01 15.5003C234.266 13.5863 234.237 13.5577 232.415 13.5577C230.849 13.5577 229.312 13.5863 227.746 13.5577C226.664 13.5292 226.379 13.9862 226.721 14.9575C226.692 15.386 226.579 15.8146 226.607 16.2145C226.692 17.1001 226.436 17.5 225.44 17.4715C224.415 17.4715 224.415 16.9287 224.443 16.1859C224.443 15.3003 224.415 14.4148 224.386 13.5006Z" fill="white"/>
<path d="M169.861 7.72983C170.914 7.72983 171.939 7.7584 172.993 7.72983C173.79 7.70127 174.217 7.8441 174.188 8.78683C174.188 9.67242 173.875 9.92952 173.021 9.90095C171.085 9.84382 169.149 9.92952 167.213 9.87239C166.017 9.84382 165.647 10.3295 165.647 11.4722C165.732 15.7858 165.163 15.1574 169.32 15.1859C170.601 15.1859 171.882 15.2431 173.163 15.1859C174.018 15.1574 174.217 15.5287 174.16 16.2715C174.131 16.9 174.217 17.4999 173.249 17.4713C171.028 17.4142 168.807 17.4999 166.587 17.4427C164.679 17.3856 163.54 16.1286 163.512 14.2718C163.483 13.0434 163.483 11.815 163.512 10.5866C163.569 8.95823 164.65 7.87267 166.302 7.7584C166.387 7.7584 166.501 7.7584 166.587 7.7584C167.697 7.72983 168.779 7.72983 169.861 7.72983Z" fill="white"/>
<path d="M162.546 27.0424C161.72 28.1851 160.923 29.3564 160.04 30.5562C159.186 29.3564 158.36 28.2137 157.279 26.6996C157.279 28.0137 157.25 28.9279 157.279 29.842C157.307 30.4134 157.165 30.7276 156.51 30.7276C155.883 30.7276 155.684 30.4991 155.713 29.8992C155.741 28.328 155.713 26.7568 155.741 25.2141C155.741 24.8427 155.485 24.2428 156.083 24.1285C156.652 24.0143 157.279 23.9286 157.706 24.5856C158.417 25.6998 159.215 26.7568 160.04 27.928C160.866 26.7853 161.635 25.7569 162.29 24.6713C162.745 23.9571 163.371 23.9286 164.026 24.1C164.681 24.2428 164.368 24.8999 164.368 25.2998C164.396 26.8139 164.368 28.328 164.396 29.842C164.396 30.4419 164.254 30.6991 163.599 30.6991C162.973 30.6991 162.774 30.4419 162.802 29.842C162.83 28.9279 162.802 27.9851 162.802 27.0424C162.717 27.071 162.631 27.071 162.546 27.0424Z" fill="white"/>
<path d="M147.991 30.6992C147.934 30.6992 147.906 30.6992 147.849 30.6992C143.123 30.9848 143.72 29.3851 143.777 26.0998C143.777 24.8429 144.603 24.1001 145.884 24.0715C147.365 24.0144 148.817 24.0715 150.297 24.043C150.895 24.043 151.123 24.1858 151.123 24.8429C151.123 25.5285 150.81 25.6142 150.269 25.6142C148.988 25.5856 147.706 25.6427 146.425 25.5856C145.657 25.557 145.343 25.8141 145.315 26.6426C145.229 29.2137 145.201 29.2137 147.706 29.2137C147.763 29.2137 147.792 29.2137 147.849 29.2137C148.418 29.0423 149.415 29.6422 149.472 28.728C149.529 27.8139 148.532 28.2138 148.02 28.1852C147.393 28.1567 147.393 27.7853 147.365 27.3568C147.336 26.7854 147.593 26.6712 148.105 26.6426C151.095 26.3855 151.038 26.3855 151.123 29.3851C151.152 30.5278 150.81 30.8991 149.7 30.7563C149.13 30.642 148.561 30.6992 147.991 30.6992Z" fill="white"/>
<path d="M131.172 24.043C131.741 24.043 132.311 24.043 132.88 24.043C134.36 24.0715 135.129 24.8143 135.243 26.2712C135.243 26.3284 135.243 26.3569 135.243 26.4141C135.272 29.6136 135.528 30.9563 131.229 30.6992C131.172 30.6992 131.143 30.6992 131.086 30.6992C127.157 30.6992 126.816 30.3564 126.958 26.4141C127.015 24.8429 127.755 24.1001 129.321 24.043C129.947 24.043 130.545 24.043 131.172 24.043ZM131.029 29.1851C133.933 29.128 133.677 29.585 133.706 27.4711C133.734 25.557 133.706 25.557 131.77 25.557C131.257 25.557 130.716 25.6142 130.204 25.557C128.78 25.3571 128.41 25.957 128.495 27.2997C128.609 29.1565 128.524 29.1851 130.46 29.1851C130.631 29.1851 130.83 29.1851 131.029 29.1851Z" fill="white"/>
<path d="M180.51 24.043C181.307 24.043 182.133 24.043 182.93 24.043C184.325 24.0715 185.123 24.8714 185.151 26.2427C185.18 27.5853 184.354 28.4709 182.987 28.5281C182.048 28.5566 181.08 28.5852 180.14 28.5281C178.973 28.4424 178.062 28.4995 178.318 30.0707C178.432 30.7277 177.919 30.6992 177.464 30.6992C177.037 30.6992 176.752 30.5849 176.752 30.0707C176.78 28.2709 176.752 26.4712 176.752 24.6429C176.752 24.1001 177.065 24.043 177.492 24.043C178.517 24.0715 179.514 24.043 180.51 24.043ZM180.88 26.9854C181.535 26.9854 182.19 26.9854 182.845 26.9854C183.272 26.9854 183.557 26.8426 183.557 26.3569C183.557 25.9284 183.443 25.5856 182.959 25.5856C181.592 25.557 180.225 25.5856 178.887 25.5856C178.346 25.5856 178.375 25.9856 178.346 26.3855C178.346 26.7854 178.517 26.9854 178.916 26.9854C179.571 26.9854 180.225 26.9854 180.88 26.9854Z" fill="white"/>
<path d="M118.895 27.2425C118.895 24.043 118.895 24.043 122.112 24.043C122.169 24.043 122.197 24.043 122.254 24.043C125.984 24.043 126.952 25.2428 126.183 28.928C125.984 29.9564 125.358 30.642 124.247 30.6706C122.681 30.7277 121.144 30.6706 119.578 30.6992C119.009 30.6992 118.866 30.4421 118.866 29.9279C118.923 29.0423 118.895 28.1567 118.895 27.2425ZM122.568 29.1851C123.165 28.9851 124.162 29.6136 124.532 28.8137C124.931 27.9281 124.902 26.814 124.532 25.8998C124.276 25.2428 123.422 25.557 122.852 25.557C120.062 25.5856 120.489 25.0143 120.404 28.0424C120.375 29.0423 120.745 29.2994 121.628 29.1851C121.884 29.1565 122.169 29.1851 122.568 29.1851Z" fill="white"/>
<path d="M185.6 27.3265C185.6 26.5552 185.6 25.8124 185.6 25.0411C185.6 24.4983 185.543 24.0127 186.369 24.0127C187.138 24.0127 187.28 24.4126 187.166 24.984C186.91 26.4409 187.565 26.8123 188.875 26.6123C189.302 26.5552 189.729 26.5552 190.156 26.6123C191.636 26.8123 192.69 26.6123 192.291 24.6983C192.177 24.0984 192.576 24.0127 193.06 24.0127C193.572 24.0127 193.857 24.0984 193.829 24.6983C193.8 26.4409 193.8 28.2121 193.829 29.9547C193.829 30.5261 193.629 30.6975 193.088 30.6975C192.491 30.6975 192.149 30.5261 192.263 29.8976C192.576 28.2692 191.722 27.955 190.355 28.1264C189.9 28.1835 189.416 28.1835 188.932 28.1264C187.565 27.9264 186.853 28.3549 187.138 29.8404C187.252 30.4118 187.024 30.6975 186.369 30.6975C185.743 30.6975 185.543 30.4689 185.572 29.8404C185.629 29.0406 185.6 28.1835 185.6 27.3265Z" fill="white"/>
<path d="M219.167 30.7008C219.11 30.7008 219.082 30.7008 219.025 30.7008C215.352 30.7008 214.356 29.501 215.153 25.7872C215.381 24.7017 216.121 24.0732 217.26 24.0732C218.569 24.0446 219.907 24.0446 221.217 24.0732C222.527 24.1303 223.353 24.9016 223.353 26.2157C223.438 29.5867 223.837 30.9865 219.167 30.7008ZM219.253 29.1867C219.879 29.1867 220.477 29.1867 221.103 29.1867C221.53 29.1867 221.815 29.0439 221.929 28.6154C222.555 26.53 221.872 25.5587 219.737 25.5587C218.996 25.5587 218.228 25.5587 217.487 25.5587C216.975 25.5587 216.747 25.7872 216.662 26.3014C216.235 28.7297 216.605 29.1867 218.996 29.1867C219.053 29.1867 219.139 29.1867 219.253 29.1867Z" fill="white"/>
<path d="M141.479 28.5287C141.479 27.0146 141.507 25.929 141.479 24.8435C141.45 24.1864 141.735 24.0436 142.333 24.0436C142.902 24.0436 143.073 24.2721 143.073 24.8149C143.045 26.3861 143.073 27.9573 143.045 29.5C143.045 29.8999 143.329 30.5569 142.646 30.6712C142.105 30.7569 141.536 30.8141 141.109 30.2427C140.169 29.1 139.172 28.043 138.204 26.9289C138.062 26.7575 137.948 26.5289 137.493 26.5861C137.493 27.6716 137.493 28.7858 137.493 29.8999C137.493 30.3855 137.407 30.6998 136.809 30.6998C136.183 30.6998 135.984 30.4998 135.984 29.8713C136.012 28.3573 135.984 26.8432 136.012 25.3291C136.012 24.9006 135.699 24.2721 136.297 24.0721C136.952 23.8722 137.55 24.015 138.062 24.6149C139.03 25.8719 140.141 27.0432 141.479 28.5287Z" fill="white"/>
<path d="M80.4029 14.5869C80.9723 14.1869 81.5133 13.7584 82.0827 13.3585C82.5667 13.0157 83.0223 13.0728 83.4778 13.4442C83.9903 13.8727 83.734 14.2727 83.5347 14.6726C83.307 15.1868 83.0507 15.6725 82.823 16.1867C82.7945 16.3009 82.7945 16.4152 82.766 16.5295C82.8799 16.5009 82.9938 16.4723 83.1361 16.4438C83.3639 16.4723 83.7056 16.4438 83.7625 16.5866C83.9618 16.958 83.5632 16.9008 83.3924 16.9294C82.5098 17.0437 82.0258 17.615 81.5702 18.3292C80.3175 20.2718 79.0362 22.2429 77.1571 23.6713C76.246 24.3855 75.2211 25.2425 73.9683 24.3855C73.1996 23.8713 73.6267 22.5001 74.7371 21.1003C75.5058 20.1575 76.7016 19.6719 77.3564 18.6149H77.328C80.2321 17.7293 81.5417 16.3866 81.741 14.0727C81.3709 14.3298 81.0293 14.5869 80.6876 14.8154C80.6022 14.7583 80.5168 14.6726 80.4029 14.5869ZM80.2036 17.9578C77.812 19.1577 75.9044 20.3575 74.6516 22.4143C74.4239 22.7857 74.1107 23.3285 74.5662 23.6999C74.9363 23.9856 75.3919 23.6713 75.7336 23.4142C77.5273 21.9858 78.9508 20.2718 80.2036 17.9578Z" fill="white"/>
<path d="M214.5 27.4995C214.5 28.2709 214.472 29.0136 214.5 29.7849C214.529 30.4134 214.415 30.7562 213.674 30.7562C212.991 30.7276 212.963 30.4134 212.906 29.8706C212.877 29.3278 213.276 28.4137 212.536 28.2709C211.454 28.0709 210.258 28.128 209.176 28.328C208.663 28.4137 208.948 29.2421 208.948 29.7564C208.92 30.2991 209.005 30.7848 208.179 30.7562C207.325 30.7562 207.439 30.2134 207.439 29.7278C207.439 28.128 207.468 26.4997 207.439 24.8999C207.439 24.3 207.61 24.0714 208.236 24.0714C208.834 24.0714 208.92 24.3286 208.948 24.8428C208.977 25.4427 208.635 26.414 209.176 26.5282C210.315 26.7568 211.539 26.7282 212.706 26.5568C213.247 26.4711 212.934 25.6427 212.963 25.157C212.991 24.5571 212.906 24.0429 213.817 24.0714C214.642 24.1 214.557 24.5857 214.557 25.1284C214.5 25.8712 214.5 26.6711 214.5 27.4995Z" fill="white"/>
<path d="M114.34 27.4709C114.34 28.2708 114.311 29.0992 114.34 29.8991C114.368 30.499 114.169 30.7276 113.543 30.7276C112.945 30.699 112.603 30.5276 112.717 29.8991C113.03 28.2993 112.204 27.928 110.838 28.1279C110.468 28.1851 110.069 28.1565 109.699 28.1279C108.361 28.0137 107.165 28.0422 107.592 29.9848C107.706 30.5276 107.393 30.7276 106.852 30.7276C106.339 30.7276 106.083 30.5847 106.083 30.0134C106.111 28.2708 106.111 26.4996 106.083 24.757C106.083 24.1285 106.396 24.0999 106.88 24.0999C107.45 24.0714 107.677 24.3285 107.592 24.8427C107.25 26.5282 108.076 26.8995 109.528 26.671C109.898 26.6139 110.297 26.6424 110.667 26.671C112.034 26.8138 113.144 26.7281 112.745 24.8427C112.603 24.1571 113.087 24.1285 113.599 24.0999C114.283 24.0428 114.368 24.3856 114.368 24.957C114.34 25.7568 114.34 26.6139 114.34 27.4709Z" fill="white"/>
<path d="M99.8476 26.2133C99.8476 27.6988 99.8476 28.8129 99.8476 29.8985C99.8476 30.3841 99.7906 30.6984 99.1643 30.6984C98.5664 30.6984 98.3101 30.527 98.3386 29.8985C98.3671 28.3273 98.3386 26.7561 98.3671 25.2134C98.3671 24.8421 98.0824 24.2707 98.6803 24.1279C99.2212 23.985 99.7906 24.0136 100.218 24.5278C101.328 25.8134 102.467 27.0418 103.834 28.5558C103.834 27.0989 103.834 25.9848 103.834 24.8706C103.834 24.385 103.891 24.0708 104.517 24.0708C105.086 24.0708 105.371 24.2136 105.371 24.8706C105.343 26.3847 105.371 27.8988 105.343 29.4129C105.343 29.8414 105.656 30.4698 105.029 30.6698C104.375 30.8698 103.777 30.727 103.264 30.127C102.239 28.8415 101.129 27.6988 99.8476 26.2133Z" fill="white"/>
<path d="M168.662 24.0724C169.573 24.0724 170.456 24.0724 171.367 24.0724C171.851 24.0724 172.192 24.101 172.164 24.7295C172.164 25.3008 172.05 25.6151 171.395 25.5865C170.171 25.558 168.918 25.6437 167.694 25.558C166.726 25.5008 166.498 25.8722 166.498 26.7863C166.498 29.2146 166.47 29.2146 168.861 29.2146C169.715 29.2146 170.57 29.2431 171.424 29.2146C171.965 29.186 172.192 29.3574 172.164 29.9288C172.135 30.4144 172.079 30.7286 171.481 30.7286C169.573 30.7001 167.694 30.7001 165.786 30.7286C165.103 30.7286 165.018 30.443 165.018 29.8716C165.046 28.2147 165.046 26.5578 165.018 24.9009C165.018 24.301 165.188 24.0439 165.815 24.0724C166.754 24.101 167.694 24.0724 168.662 24.0724Z" fill="white"/>
<path d="M198.532 30.6985C194.603 30.6985 194.603 30.6985 194.631 26.7562C194.631 26.0991 194.66 25.4421 194.631 24.7565C194.603 24.1851 194.859 24.0423 195.4 24.0423C195.969 24.0423 196.14 24.2423 196.14 24.785C196.112 25.9277 196.169 27.0704 196.112 28.1846C196.083 28.8702 196.254 29.2416 197.051 29.1844C198.133 29.1273 199.244 29.1273 200.326 29.1844C201.123 29.2416 201.294 28.8987 201.265 28.1846C201.208 27.1561 201.237 26.0991 201.265 25.0707C201.265 24.5851 201.094 24.0423 201.948 24.0137C202.888 23.9852 202.746 24.5565 202.746 25.1279C202.746 26.2134 202.746 27.299 202.746 28.3845C202.717 30.0986 202.176 30.6414 200.439 30.6699C199.756 30.6985 199.13 30.6985 198.532 30.6985Z" fill="white"/>
<path d="M77.3597 18.6425C76.2208 18.614 75.7368 18.0141 75.8507 16.8999C76.0785 14.5288 77.6159 12.9862 79.2388 11.5293C80.036 10.8151 81.0325 10.3009 82.0575 9.92949C83.9081 9.27244 84.99 10.1009 84.9331 12.1863C84.7907 11.3007 84.1928 11.215 83.4811 11.2436C81.2888 11.415 77.8722 14.4717 77.3597 16.8428C78.4416 16.0429 79.4381 15.3002 80.4346 14.586C80.52 14.6717 80.6339 14.7859 80.7193 14.8716C80.2922 15.3002 79.8082 15.6715 79.4666 16.1572C78.7833 17.0142 77.6159 17.4427 77.3597 18.6425Z" fill="white"/>
<path d="M230.847 26.9005C231.046 27.4147 231.217 27.9575 231.758 28.4431C232.356 27.3004 233.01 26.2434 233.466 25.1007C233.893 24.0152 234.548 23.8438 235.601 24.158C234.776 25.8435 233.978 27.4718 233.181 29.1287C232.982 29.443 232.811 29.7858 232.612 30.1C232.042 30.9856 231.188 30.9856 230.676 30.0429C229.651 28.1289 228.683 26.1863 227.658 24.2151C228.797 23.7866 229.451 24.0723 229.85 25.1579C230.163 25.7863 230.533 26.3291 230.847 26.9005Z" fill="white"/>
<path d="M91.9908 24.0724C92.9303 24.0724 93.8984 24.1009 94.8379 24.0724C95.3504 24.0724 95.6066 24.1581 95.6066 24.758C95.6066 25.3579 95.4358 25.5579 94.8094 25.5864C92.5033 25.7293 92.5317 25.7578 92.5317 28.0718C92.5317 28.7003 92.5033 29.3002 92.5317 29.9287C92.5602 30.5857 92.2755 30.7286 91.6776 30.7286C91.0512 30.7286 90.9943 30.3857 91.0227 29.9287C91.0512 29.3573 91.0227 28.786 91.0227 28.2146C91.0227 27.4147 91.2505 26.4434 90.8804 25.8435C90.5103 25.215 89.4853 25.6436 88.745 25.5864C88.1186 25.5579 88.0902 25.215 88.0902 24.758C88.0617 24.1581 88.3749 24.0438 88.8589 24.0724C89.9124 24.0724 90.9373 24.0724 91.9908 24.0724Z" fill="white"/>
<path d="M201.234 11.4433C201.86 11.4433 202.458 11.4718 203.084 11.4433C203.967 11.3576 204.337 11.5861 204.337 12.586C204.337 13.5858 203.825 13.6144 203.084 13.6144C201.718 13.5858 200.351 13.5858 198.956 13.6144C198.13 13.643 198.045 13.1859 198.045 12.5288C198.045 11.9004 198.102 11.3861 198.928 11.4433C199.725 11.4718 200.493 11.4433 201.234 11.4433Z" fill="white"/>
<path d="M235.916 30.3261C235.944 28.5263 235.972 26.7552 235.972 24.9554C235.972 24.3269 236.086 24.0127 236.827 24.0127C237.538 24.0127 237.567 24.4126 237.538 24.9269C237.538 26.5838 237.538 28.2121 237.538 29.869C237.538 30.269 237.481 30.6118 237.054 30.7546C236.684 30.6118 236.143 30.8974 235.916 30.3261Z" fill="white"/>
<path d="M97.5778 27.4426C97.5778 28.2425 97.5494 29.0423 97.5778 29.8708C97.6063 30.4707 97.4355 30.7278 96.7806 30.6993C96.1827 30.6993 96.0688 30.4136 96.0688 29.8994C96.0973 28.1853 96.0973 26.4713 96.0688 24.7858C96.0688 24.243 96.2112 24.0431 96.7806 24.0145C97.4355 23.9859 97.5778 24.3002 97.5494 24.8715C97.5778 25.7285 97.5778 26.5856 97.5778 27.4426Z" fill="white"/>
<path d="M169.694 26.6157C170.121 26.6157 170.549 26.6443 170.976 26.6157C171.574 26.5586 171.83 26.7585 171.801 27.4156C171.773 27.9584 171.574 28.1583 171.033 28.1583C170.15 28.1298 169.239 28.1298 168.356 28.1583C167.73 28.1869 167.559 27.9584 167.559 27.3299C167.531 26.6157 167.929 26.5871 168.442 26.6157C168.869 26.6443 169.267 26.6157 169.694 26.6157Z" fill="white"/>
<path d="M159.073 5.07381C158.02 6.18793 157.194 7.41633 155.458 6.75928C156.027 5.07381 157.251 4.67386 159.073 5.07381Z" fill="white"/>
<path d="M200.666 19.0716C200.837 19.9287 200.353 20.0715 199.613 20.0715C198.901 20.0715 198.502 19.9572 198.502 19.1002C198.502 18.1861 198.844 18.0146 199.67 18.0146C200.467 18.0146 200.809 18.2718 200.666 19.0716Z" fill="white"/>
<path d="M221.16 23.5578C219.851 23.3292 218.712 23.1293 217.516 23.6149C218.427 21.758 219.822 21.7009 221.16 23.5578Z" fill="white"/>
<path d="M97.5205 22.5574C96.8372 22.1289 95.9831 22.6431 95.2144 22.0146C96.097 21.6433 96.8372 21.7575 97.549 21.8432C97.9761 21.8718 98.1754 22.2146 98.1754 22.6717C98.1754 23.1002 97.9476 23.4144 97.5205 23.4716C97.0365 23.5573 96.524 23.6144 96.04 23.3573C96.3247 22.5003 97.1504 23.2145 97.5205 22.5574Z" fill="white"/>
<path d="M131.787 23.385C130.648 23.7278 130.05 23.1564 129.481 22.4137C130.933 22.1851 130.933 22.1851 131.787 23.385Z" fill="white"/>
<path d="M168.643 31.1576C169.212 31.0719 169.326 31.3861 169.326 31.9003C169.354 32.6145 168.984 32.6145 168.472 32.6145C167.817 32.6431 167.874 32.2431 167.845 31.7861C167.817 31.1862 168.159 31.129 168.643 31.1576Z" fill="white"/>
<path d="M219.971 31.8426C220.056 32.4425 219.829 32.6139 219.288 32.6425C218.661 32.671 218.519 32.4139 218.519 31.814C218.519 31.1855 218.832 31.157 219.316 31.157C219.857 31.1284 220.113 31.3284 219.971 31.8426Z" fill="white"/>
<path d="M199.327 23.3862C198.359 23.7291 197.733 23.272 197.249 22.5007C198.501 22.1293 198.501 22.1293 199.327 23.3862Z" fill="white"/>
<path d="M273.209 7.64627C274.262 7.64627 275.287 7.56057 276.312 7.67484C278.191 7.84624 279.302 9.04607 279.387 10.9315C279.444 12.0171 279.415 13.1026 279.387 14.1882C279.33 16.0165 278.134 17.3592 276.312 17.4449C274.319 17.5306 272.326 17.5306 270.362 17.4449C268.425 17.3592 267.287 16.0736 267.258 14.1025C267.23 13.0741 267.23 12.0171 267.258 10.9887C267.315 8.96037 268.511 7.73197 270.532 7.64627C271.415 7.58913 272.326 7.6177 273.209 7.64627C273.209 7.6177 273.209 7.6177 273.209 7.64627ZM273.351 15.1881C277.707 15.1309 277.109 15.8451 277.166 11.1601C277.166 11.1029 277.166 11.0744 277.166 11.0172C277.166 10.2459 276.739 9.87452 275.999 9.87452C274.205 9.87452 272.412 9.87452 270.618 9.87452C269.963 9.87452 269.621 10.2173 269.536 10.9029C269.023 14.931 269.223 15.1595 273.209 15.1595C273.266 15.1881 273.294 15.1881 273.351 15.1881Z" fill="white"/>
<path d="M243.373 17.4434C242.319 17.4434 241.294 17.472 240.241 17.4434C238.447 17.3577 237.365 16.2436 237.337 14.4438C237.308 12.5584 237.365 10.6443 237.308 8.7589C237.28 7.90187 237.65 7.73047 238.39 7.73047C239.159 7.73047 239.643 7.7876 239.614 8.78746C239.529 10.5301 239.614 12.3013 239.586 14.0439C239.557 14.9009 239.871 15.2437 240.725 15.2151C242.433 15.1866 244.141 15.1866 245.85 15.2151C246.704 15.2437 247.045 14.9009 247.017 14.0439C246.988 12.3013 247.074 10.5301 246.988 8.78746C246.96 7.81617 247.416 7.73047 248.184 7.73047C248.925 7.73047 249.323 7.87331 249.295 8.7589C249.238 10.6158 249.323 12.4441 249.266 14.301C249.209 16.3293 248.07 17.4148 246.049 17.472C245.166 17.472 244.284 17.4434 243.373 17.4434Z" fill="white"/>
<path d="M266.385 12.615C266.385 13.9577 266.357 15.2718 266.385 16.5859C266.414 17.5857 265.759 17.4429 265.161 17.4429C264.534 17.4715 263.994 17.4143 264.107 16.5573C264.107 16.5002 264.107 16.4716 264.107 16.4145C263.965 13.5577 263.965 13.5577 261.032 13.5577C258.271 13.5577 258.242 13.5577 258.214 16.2716C258.214 17.1001 258.015 17.4429 257.103 17.4429C256.135 17.4429 256.05 16.9573 256.05 16.2145C256.078 13.7577 256.078 11.2723 256.05 8.81555C256.022 7.92996 256.363 7.67285 257.217 7.67285C258.1 7.67285 258.214 8.0728 258.214 8.81555C258.271 11.4152 258.299 11.4152 260.89 11.4152C261.032 11.4152 261.175 11.4152 261.317 11.4152C263.965 11.4152 264.022 11.4152 264.079 8.70128C264.107 7.84426 264.449 7.67285 265.189 7.67285C265.958 7.67285 266.499 7.72999 266.385 8.72985C266.328 9.3869 266.385 10.0439 266.385 10.7296C266.385 11.3866 266.385 11.9865 266.385 12.615Z" fill="white"/>
<path d="M269.711 24.043C273.697 24.043 273.782 24.1001 273.782 28.0995C273.782 28.728 273.754 29.3279 273.782 29.9564C273.811 30.4992 273.668 30.7277 273.07 30.7277C272.501 30.7277 272.131 30.5849 272.245 29.9279C272.473 28.6709 271.789 28.528 270.793 28.6138C270.138 28.6709 269.455 28.6138 268.8 28.6423C268.259 28.6709 268.031 28.4995 268.059 27.9281C268.059 27.3282 268.202 27.0425 268.857 27.0997C269.654 27.1282 270.48 27.0997 271.277 27.0997C271.761 27.0997 272.245 27.0997 272.245 26.3855C272.245 25.7284 271.875 25.5856 271.334 25.6142C271.248 25.6142 271.134 25.6142 271.049 25.6142C267.177 25.4713 267.205 25.4713 267.148 29.3279C267.148 29.8421 267.575 30.6706 266.494 30.7277C265.981 30.7563 265.554 30.7277 265.582 30.0136C265.611 28.6995 265.525 27.3568 265.611 26.0427C265.696 24.7857 266.38 24.043 267.718 24.1001C268.401 24.0715 269.056 24.043 269.711 24.043Z" fill="white"/>
<path d="M281.385 26.957C280.815 27.7854 280.246 28.6139 279.648 29.4424C278.737 30.7279 278.709 30.7565 277.826 29.3852C277.342 28.5853 276.915 27.7569 276.061 26.8142C276.061 28.0426 276.032 28.9853 276.061 29.9566C276.089 30.4994 275.918 30.7279 275.349 30.7279C274.836 30.7279 274.552 30.6136 274.552 30.0137C274.58 28.2711 274.552 26.4999 274.552 24.7573C274.552 24.4716 274.523 24.1574 274.922 24.1003C275.434 24.0431 275.975 23.986 276.317 24.5002C276.886 25.3001 277.484 26.1 277.997 26.9284C278.424 27.614 278.794 27.6426 279.278 27.0427C279.876 26.2714 280.559 25.5572 281.072 24.7002C281.527 23.9574 282.154 23.986 282.78 24.1003C283.492 24.2145 283.122 24.8716 283.15 25.2715C283.207 26.7856 283.15 28.2997 283.179 29.8137C283.179 30.3279 283.15 30.7279 282.438 30.6993C281.783 30.6993 281.641 30.4136 281.67 29.8423C281.698 28.9281 281.67 27.9854 281.67 27.0713C281.584 27.0141 281.47 26.9856 281.385 26.957Z" fill="white"/>
<path d="M263.309 28.4414C263.309 27.1273 263.309 26.0989 263.309 25.099C263.309 24.5848 263.224 24.0706 264.05 24.042C264.961 24.0135 264.875 24.5563 264.875 25.1562C264.875 26.5845 264.904 28.0129 264.847 29.4127C264.847 29.8412 265.16 30.4697 264.534 30.6411C263.879 30.8411 263.281 30.7554 262.768 30.1269C261.743 28.8985 260.633 27.7272 259.437 26.3846C259.124 27.5844 259.323 28.6414 259.266 29.6698C259.238 30.184 259.409 30.7268 258.555 30.7268C257.757 30.7268 257.786 30.2697 257.786 29.727C257.786 28.2129 257.757 26.6988 257.814 25.1847C257.814 24.8134 257.53 24.242 258.128 24.0992C258.668 23.9849 259.238 23.9563 259.693 24.4705C260.661 25.5847 261.63 26.6702 262.626 27.7558C262.768 27.9272 262.939 28.07 263.309 28.4414Z" fill="white"/>
<path d="M241.835 24.071C242.746 24.071 243.629 24.071 244.54 24.071C245.024 24.071 245.337 24.1281 245.337 24.7566C245.337 25.3565 245.195 25.6136 244.54 25.5851C243.373 25.5565 242.177 25.6136 240.981 25.5565C240.041 25.4994 239.643 25.7565 239.671 26.7849C239.7 29.1846 239.643 29.1846 242.034 29.1846C242.889 29.1846 243.743 29.2131 244.597 29.1846C245.138 29.156 245.366 29.3274 245.337 29.8987C245.337 30.4129 245.252 30.6986 244.654 30.6986C242.775 30.6701 240.867 30.6701 238.988 30.6986C238.305 30.6986 238.219 30.3844 238.219 29.8416C238.248 28.1847 238.248 26.5278 238.219 24.8709C238.219 24.2424 238.419 24.0424 239.016 24.071C239.928 24.0996 240.867 24.071 241.835 24.071Z" fill="white"/>
<path d="M249.496 25.557C248.556 25.557 247.617 25.5285 246.677 25.557C246.079 25.5856 245.852 25.3856 245.852 24.7572C245.852 24.1858 246.108 24.043 246.62 24.043C248.585 24.0715 250.578 24.0715 252.542 24.043C253.14 24.043 253.368 24.2144 253.368 24.8429C253.368 25.557 252.969 25.557 252.457 25.557C251.46 25.557 250.464 25.557 249.496 25.557Z" fill="white"/>
<path d="M276.006 6.81758C275.123 6.90328 274.326 7.13182 273.7 6.41764C273.472 6.16053 273.187 6.1891 272.988 6.41764C272.333 7.16039 271.507 6.81758 270.482 6.93185C271.223 6.04626 271.422 5.0464 272.646 4.90356C274.127 4.76073 275.266 5.2178 276.006 6.81758Z" fill="white"/>
<path d="M248.815 28.6425C248.815 28.1569 248.843 27.6998 248.815 27.2142C248.786 26.6714 249.128 26.6143 249.555 26.6143C250.011 26.6143 250.409 26.6428 250.381 27.2713C250.352 28.1283 250.352 28.9854 250.381 29.8138C250.409 30.3566 250.324 30.6994 249.641 30.728C248.9 30.7565 248.758 30.4137 248.815 29.7852C248.815 29.4139 248.786 29.0139 248.815 28.6425Z" fill="white"/>
<path d="M242.694 28.1283C242.21 28.1283 241.754 28.1283 241.27 28.1283C240.701 28.1283 240.729 27.757 240.701 27.357C240.701 26.9285 240.729 26.6143 241.27 26.6143C242.267 26.6428 243.263 26.6428 244.26 26.6143C244.744 26.6143 244.914 26.8142 244.914 27.2999C244.914 27.7855 244.829 28.1283 244.231 28.1283C243.747 28.0998 243.235 28.1283 242.694 28.1283Z" fill="white"/>
<path d="M240.759 5.10411C242.524 4.64703 243.72 5.10411 244.318 6.73245C242.609 7.44663 241.812 6.18967 240.759 5.10411Z" fill="white"/>
<path d="M273.36 18.0446C274.157 17.9018 274.413 18.2732 274.442 19.0731C274.47 19.9301 274.072 20.0729 273.331 20.1015C272.534 20.1015 272.25 19.873 272.25 19.0445C272.25 18.216 272.591 17.9304 273.36 18.0446Z" fill="white"/>
<path d="M243.635 23.5281C242.326 23.3567 241.187 23.1281 239.962 23.6138C240.987 21.814 242.326 21.7855 243.635 23.5281Z" fill="white"/>
<path d="M242.461 31.8428C242.547 32.4428 242.319 32.6142 241.778 32.6142C241.152 32.6427 241.009 32.3856 241.009 31.8143C241.009 31.1858 241.322 31.1572 241.806 31.1572C242.319 31.1572 242.575 31.3286 242.461 31.8428Z" fill="white"/>
<path d="M25.8737 26.1866C24.7633 29.4718 23.2828 32.2429 20.3503 34.0998C20.9482 34.414 21.4322 34.0712 21.9162 33.8712C24.6495 32.6428 26.7848 30.6717 28.1514 28.0435C28.9486 26.4723 29.9736 25.9295 31.5965 26.1866C31.9097 26.2437 32.2513 26.0723 32.6499 26.4437C29.3188 31.7287 24.5356 34.7568 18.3003 34.9854C11.4387 35.2425 6.22838 32.1858 2.29932 26.1866C3.49512 26.1866 4.43468 26.2152 5.34577 26.1866C6.1145 26.158 6.22838 26.8151 6.48463 27.2722C8.02209 30.1003 10.072 32.3857 13.0331 33.757C13.4601 33.9569 13.8587 34.2712 14.5421 34.1283C13.8587 33.4713 13.2039 32.9285 12.606 32.3286C11.1824 30.8145 10.3283 28.9576 9.53108 27.0722C9.24636 26.3866 9.41719 26.1009 10.1859 26.1866C10.613 26.2152 11.0401 26.2437 11.4671 26.1866C12.3498 26.0723 12.6914 26.4437 12.8907 27.3007C13.3178 29.3576 13.9157 31.3573 15.14 33.0999C15.5955 33.7284 16.0226 34.4426 17.1045 34.4997C16.5066 32.2715 16.3073 30.0718 16.0226 27.9006C15.8518 26.5865 16.1649 25.9009 17.617 26.158C17.8448 26.1866 18.101 26.1866 18.3288 26.158C19.069 26.0723 19.2968 26.3294 19.2399 27.1293C19.069 29.5861 18.8128 32.0143 18.101 34.4711C19.3253 34.414 19.7808 33.5284 20.2648 32.7857C21.2329 31.3002 21.8877 29.6433 22.144 27.9006C22.3717 26.3294 23.112 25.9295 24.5071 26.158C24.8488 26.2437 25.2758 26.1866 25.8737 26.1866Z" fill="white"/>
<path d="M24.6338 24.2432C27.6802 20.9008 29.6163 17.3013 30.442 13.0733C30.869 15.0159 31.3815 16.9299 30.7267 18.9296C30.6413 19.1867 30.442 19.4724 30.4704 19.7295C30.4989 20.2437 30.8406 20.6722 31.3246 20.7294C31.8371 20.7865 31.7801 20.2152 31.8086 19.8723C32.0364 17.2156 31.951 14.5588 31.1822 11.9878C30.926 11.1307 30.869 10.7879 31.9794 10.7308C33.3745 10.6451 34.0009 11.1593 34.3426 12.4734C35.3106 16.1015 35.2821 19.6724 34.0863 23.2433C33.9155 23.7289 33.8016 24.386 33.0898 24.2146C32.378 24.0146 31.4669 24.8716 30.8975 23.5861C30.3281 22.3006 28.8476 22.2434 28.0788 23.4147C27.2532 24.7288 26.0574 24.1289 24.6338 24.2432Z" fill="white"/>
<path d="M13.9479 15.0717C13.5778 17.757 13.7201 20.3852 13.8909 23.042C13.9194 23.6133 14.1187 24.3847 13.0937 24.2704C12.2965 24.1847 11.2431 24.7275 11.1007 23.2134C10.7021 19.4139 10.6737 15.643 11.1007 11.8436C11.1861 11.0723 11.5278 10.7295 12.2965 10.8152C12.3535 10.8152 12.382 10.8152 12.4389 10.8152C15.4853 10.7295 15.4853 10.7295 16.1687 13.6719C16.6242 15.6716 17.3645 17.5571 18.3894 19.3568C18.8735 20.1853 18.5318 21.6136 17.7631 22.0993C17.1936 22.4421 17.1082 21.8993 16.9374 21.6422C15.8839 20.0424 15.0583 18.3569 14.4604 16.5286C14.318 16.0144 14.1187 15.5573 13.9479 15.0717Z" fill="white"/>
<path d="M21.2412 14.8466C20.6433 16.2178 20.2732 17.7033 19.476 19.1031C18.5649 17.8176 17.7962 16.7035 18.4795 15.0466C18.935 13.961 19.0205 12.7612 19.2767 11.5899C19.3621 11.2185 19.3336 10.79 19.8746 10.79C21.0135 10.79 22.1523 10.79 23.2912 10.79C23.8037 10.79 23.8606 11.19 23.9175 11.5899C24.43 15.5608 24.4585 19.5317 23.8891 23.5025C23.6898 24.9023 22.5224 24.0739 21.8107 24.2167C20.9565 24.3595 21.0989 23.6739 21.1558 23.1597C21.469 20.4172 21.3266 17.6462 21.2412 14.8466Z" fill="white"/>
<path d="M21.6619 0.532227C26.4736 1.64635 30.0325 4.44596 32.7942 8.84534C31.7977 8.84534 31.0575 8.7882 30.3172 8.84534C29.4915 8.93104 29.0645 8.58823 28.6943 7.84548C27.3277 5.16014 25.3916 2.98902 22.7438 1.53209C22.2313 1.24641 21.7188 0.8179 21.064 1.10357L21.0924 1.13214C21.1209 1.10357 21.1779 1.04644 21.1779 1.01787C21.1779 0.93217 21.1494 0.875035 21.1209 0.789333C21.064 0.732198 21.064 0.646496 21.064 0.560794C21.2633 0.560794 21.4626 0.560794 21.6619 0.532227Z" fill="white"/>
<path d="M13.9199 0.847197C10.7596 2.0756 8.33948 4.24672 6.77355 7.24629C6.09023 8.53182 5.34998 9.10317 3.9264 8.87463C3.47086 8.78893 2.98684 8.87463 2.24658 8.87463C5.00832 4.50382 8.53878 1.70422 13.3505 0.561523C13.5498 0.647226 13.7491 0.732928 13.9199 0.847197Z" fill="white"/>
<path d="M4.18531 24.1012C3.41658 24.3869 2.70479 24.1869 1.993 24.2441C1.48052 24.2726 1.25275 24.0155 1.08192 23.5584C0.370129 21.5873 0 19.559 0 17.445C0 16.7594 0.256244 16.5594 0.911088 16.5309C3.04645 16.4166 3.04645 16.388 3.13186 18.5306C3.21728 20.416 3.58741 22.2729 4.18531 24.1012Z" fill="white"/>
<path d="M21.0367 1.13388C22.9158 3.07646 24.5671 5.16188 25.5067 7.76152C25.8199 8.61854 25.7914 8.90421 24.7664 8.90421C22.6311 8.90421 22.6595 8.93278 22.0616 6.90449C21.3783 4.59054 20.7519 2.21944 18.7305 0.61967C18.9298 0.191159 19.3853 0.333996 19.6985 0.219727C20.154 0.276861 20.5811 0.305429 21.0367 0.362563C21.0367 0.448266 21.0651 0.533968 21.0651 0.591103C20.6665 0.648237 20.154 0.333996 19.9263 0.733939C19.8124 0.933911 20.2964 1.04818 20.5242 1.13388C20.695 1.13388 20.8943 1.13388 21.0367 1.13388Z" fill="white"/>
<path d="M16.544 0.0449219C17.1989 0.0449219 17.8252 0.0449219 18.4801 0.0449219C18.1954 0.359163 17.569 0.587702 18.1669 1.15905C18.7933 3.38731 18.9641 5.70127 19.1634 8.01523C19.2203 8.75798 18.9641 8.87225 18.3092 8.90082C15.8038 9.01509 15.7183 8.98652 16.0315 6.55829C16.2593 4.61571 16.2878 2.67312 17.085 0.844809C17.6829 0.0734892 16.544 0.416298 16.544 0.0449219Z" fill="white"/>
<path d="M15.66 1.13113C14.0941 3.04515 13.3538 5.3591 12.8128 7.7302C12.5851 8.64436 10.1365 9.41568 9.48168 8.78719C9.22543 8.53009 9.42473 8.24441 9.51015 8.01587C10.6205 5.13057 12.0726 2.50237 14.8628 0.874023C15.0906 0.931158 15.4607 0.759754 15.66 1.13113Z" fill="white"/>
<path d="M6.60821 14.6159C3.90342 14.5588 4.13119 15.1016 4.67215 12.2448C4.89992 11.0736 5.41241 10.7593 6.57974 10.7879C9.48383 10.8736 9.45536 10.8164 9.14217 13.5875C9.05676 14.3588 8.85746 14.7016 8.03179 14.6445C7.57624 14.5588 7.09223 14.6159 6.60821 14.6159Z" fill="white"/>
<path d="M6.69047 19.4157C6.29187 19.4157 6.00716 19.4157 5.72244 19.4157C4.12804 19.4157 3.55861 18.5872 4.01415 17.016C4.15651 16.5018 4.49817 16.5304 4.89677 16.5304C5.69397 16.5304 6.49117 16.5875 7.28837 16.5018C8.48418 16.359 8.82583 16.7018 8.91125 18.0159C9.05361 20.3298 7.40226 19.0729 6.69047 19.4157Z" fill="white"/>
<path d="M4.12843 10.9606C3.90066 11.9605 3.7583 12.9889 3.38817 13.9602C2.87569 15.3029 1.67988 14.503 0.825738 14.5601C-0.113822 14.6172 0.541023 13.8459 0.512551 13.4174C0.512551 13.3317 0.541023 13.2174 0.569494 13.1317C1.19587 10.6464 1.39517 10.5035 4.12843 10.9606Z" fill="white"/>
<path d="M15.6607 1.13257C15.4614 0.761189 15.0913 0.932593 14.8065 0.875459C14.5218 0.875459 14.2371 0.846891 13.9239 0.846891C13.7246 0.761189 13.5253 0.64692 13.3545 0.561217C14.3795 0.104139 15.4329 -0.038698 16.5433 0.0470042C16.5718 0.41838 17.6822 0.0755715 17.0843 0.846891C16.4294 0.132706 16.1162 1.04686 15.6607 1.13257Z" fill="white"/>
<path d="M18.16 1.16078C17.5621 0.589431 18.1885 0.360892 18.4732 0.0466503C18.9003 -0.0104844 19.3273 -0.0676192 19.6975 0.218055C19.3843 0.360892 18.9287 0.218055 18.7294 0.617998C18.3024 0.532296 18.1885 0.789402 18.16 1.16078Z" fill="white"/>
<path d="M21.0734 0.589382C21.0734 0.503679 21.0734 0.417977 21.0449 0.360843C21.3012 0.303708 21.5005 0.360843 21.6713 0.560814C21.472 0.560814 21.2727 0.560814 21.0734 0.589382Z" fill="white"/>
<path d="M20.5328 1.1046C20.2766 1.0189 19.821 0.904632 19.9349 0.70466C20.1627 0.304717 20.6752 0.618958 21.0738 0.561823C21.0738 0.647525 21.0738 0.733228 21.0738 0.81893C20.8745 0.876065 20.6182 0.847497 20.5328 1.1046Z" fill="white"/>
<path d="M20.5322 1.10403C20.6176 0.818359 20.8739 0.875494 21.0732 0.818359C21.1017 0.904062 21.1301 0.961196 21.1301 1.0469C21.1301 1.07547 21.0732 1.10403 21.0447 1.16117C20.9024 1.1326 20.7031 1.1326 20.5322 1.10403Z" fill="white"/>
</svg>
