<svg width="1440" height="539" viewBox="0 0 1440 539" fill="none" xmlns="http://www.w3.org/2000/svg">
<mask id="mask0_1292_10163" style="mask-type:luminance" maskUnits="userSpaceOnUse" x="0" y="122" width="1439" height="303">
<path d="M0 122.328H1439V424.041H0V122.328Z" fill="white"/>
</mask>
<g mask="url(#mask0_1292_10163)">
<path d="M1513.32 381.142C1339.5 402.999 1139 395.499 953.839 381.882C771.23 361.554 600.35 347.181 414 332.002C228.153 316.849 23.4042 314.023 -160.5 332.001C-146.973 371.203 -128.504 398.064 -114.978 437.266C-111.596 447.06 -107.063 457.725 -87.3489 464.457C-65.62 471.875 -32.739 472.139 -3.09558 471.981C453.283 469.499 909.59 466.991 1365.97 464.51C1424.61 464.193 1492.67 462.108 1525.55 444.262C1558.29 426.496 1534.19 401.179 1513.32 381.142Z" fill="#052664"/>
</g>
<mask id="mask1_1292_10163" style="mask-type:luminance" maskUnits="userSpaceOnUse" x="0" y="0" width="1440" height="425">
<path d="M0 0H1440V424.002H0V0Z" fill="white"/>
</mask>
<g mask="url(#mask1_1292_10163)">
<path d="M1540.35 371.67C1472.86 384.219 1379.74 388.373 1288.78 388.609C1150.44 388.975 1008.86 381.011 882.689 365.77C956 372 1026.56 379.322 1101 380.5C1175.44 381.662 1251.49 381.791 1318 375.5C1404.5 369.5 1467.82 345.425 1530.97 330.333C1547.93 343.732 1547.44 358.254 1540.35 371.67Z" fill="#2974B8"/>
</g>
<path d="M0 351.33V539H1440V391.101C1439.8 390.963 1439.7 390.852 1439.5 390.714C1290.2 409.633 1114.03 404.137 956.299 391.184C798.568 378.23 648.867 358.29 487.964 348.595C327.656 338.956 158.722 339.895 0 351.33Z" fill="white"/>
</svg>
