<?xml version="1.0" encoding="utf-8"?>
<!-- Generator: Adobe Illustrator 24.3.0, SVG Export Plug-In . SVG Version: 6.00 Build 0)  -->
<svg version="1.1" id="Layer_1" xmlns="http://www.w3.org/2000/svg" xmlns:xlink="http://www.w3.org/1999/xlink" x="0px" y="0px"
	 width="408.5px" height="408.7px" viewBox="0 0 408.5 408.7" style="enable-background:new 0 0 408.5 408.7;" xml:space="preserve"
	>
<style type="text/css">
	.st0{fill:#FFFFFF;}
</style>
<g>
	<path class="st0" d="M0,221.1c0-11.2,0-22.3,0-33.5c0.9-0.2,0.7-0.9,0.8-1.5c0.8-5.5,1.3-11.1,2.3-16.6
		C12.7,115.9,39.4,72.5,83,40.3c46.6-34.5,99.1-46.8,156.3-37c49.9,8.5,91.1,32.9,123.1,72c34.3,42,49.3,90.4,45.6,144.5
		c-2.1,29.9-10.2,58-25.2,83.9c-33.6,57.9-83.5,92.4-149.7,103c-4.8,0.8-9.6,0.5-14.3,2.1c-10.1,0-20.2,0-30.3,0
		c-0.2-0.9-0.9-0.7-1.6-0.8c-8.9-0.7-17.7-2.1-26.4-4C77.7,385.7,14.2,317.4,2.2,233.7C1.6,229.5,1.8,225.1,0,221.1z M153.2,203.9
		c0,24.9,0,49.7,0,74.6c0,4.1,0.6,7.7,4.6,9.8c3.8,2,7.1,0.7,10.4-1.4c38.5-24.8,77-49.5,115.6-74.3c7.7-5,7.7-11.6,0-16.6
		c-38.5-24.8-77-49.5-115.5-74.3c-3.3-2.1-6.6-3.5-10.4-1.4c-3.9,2.1-4.6,5.7-4.6,9.8C153.3,154.7,153.2,179.3,153.2,203.9z"/>
</g>
</svg>
